solid Default
  facet normal 0.000000e+00 -1.000000e+00 0.000000e+00
    outer loop
      vertex -1.000000e+01 -1.748834e+01 0.000000e+00
      vertex -9.725117e+00 -1.748834e+01 0.000000e+00
      vertex -1.000000e+01 -1.748834e+01 8.000000e+00
    endloop
  endfacet
  facet normal 0.000000e+00 -1.000000e+00 0.000000e+00
    outer loop
      vertex -1.000000e+01 -1.748834e+01 8.000000e+00
      vertex -9.725117e+00 -1.748834e+01 0.000000e+00
      vertex -9.725117e+00 -1.748834e+01 8.000000e+00
    endloop
  endfacet
  facet normal 0.000000e+00 0.000000e+00 1.000000e+00
    outer loop
      vertex -7.842479e+00 1.307180e+00 8.000000e+00
      vertex -1.000000e+01 -1.748834e+01 8.000000e+00
      vertex -6.944249e+00 3.160043e-01 8.000000e+00
    endloop
  endfacet
  facet normal 0.000000e+00 0.000000e+00 1.000000e+00
    outer loop
      vertex -8.600388e+00 2.409369e+00 8.000000e+00
      vertex -1.000000e+01 -1.748834e+01 8.000000e+00
      vertex -7.842479e+00 1.307180e+00 8.000000e+00
    endloop
  endfacet
  facet normal 0.000000e+00 0.000000e+00 1.000000e+00
    outer loop
      vertex -9.204414e+00 3.602851e+00 8.000000e+00
      vertex -1.000000e+01 -1.748834e+01 8.000000e+00
      vertex -8.600388e+00 2.409369e+00 8.000000e+00
    endloop
  endfacet
  facet normal 0.000000e+00 0.000000e+00 1.000000e+00
    outer loop
      vertex -9.910538e+00 6.177024e+00 8.000000e+00
      vertex -1.000000e+01 7.511656e+00 8.000000e+00
      vertex -1.000000e+01 -1.748834e+01 8.000000e+00
    endloop
  endfacet
  facet normal 0.000000e+00 0.000000e+00 1.000000e+00
    outer loop
      vertex -9.910538e+00 6.177024e+00 8.000000e+00
      vertex -1.000000e+01 -1.748834e+01 8.000000e+00
      vertex -9.643751e+00 4.866271e+00 8.000000e+00
    endloop
  endfacet
  facet normal 0.000000e+00 0.000000e+00 1.000000e+00
    outer loop
      vertex -9.643751e+00 4.866271e+00 8.000000e+00
      vertex -1.000000e+01 -1.748834e+01 8.000000e+00
      vertex -9.204414e+00 3.602851e+00 8.000000e+00
    endloop
  endfacet
  facet normal 0.000000e+00 0.000000e+00 1.000000e+00
    outer loop
      vertex -4.156955e+00 -4.988344e+00 8.000000e+00
      vertex -5.921769e+00 -5.464234e-01 8.000000e+00
      vertex -6.944249e+00 3.160043e-01 8.000000e+00
    endloop
  endfacet
  facet normal 0.000000e+00 0.000000e+00 1.000000e+00
    outer loop
      vertex -4.156955e+00 -4.988344e+00 8.000000e+00
      vertex -4.793334e+00 -1.264673e+00 8.000000e+00
      vertex -5.921769e+00 -5.464234e-01 8.000000e+00
    endloop
  endfacet
  facet normal 0.000000e+00 0.000000e+00 1.000000e+00
    outer loop
      vertex -4.156955e+00 -4.988344e+00 8.000000e+00
      vertex -3.579134e+00 -1.825891e+00 8.000000e+00
      vertex -4.793334e+00 -1.264673e+00 8.000000e+00
    endloop
  endfacet
  facet normal 0.000000e+00 0.000000e+00 1.000000e+00
    outer loop
      vertex -4.156955e+00 -4.988344e+00 8.000000e+00
      vertex -2.300895e+00 -2.220038e+00 8.000000e+00
      vertex -3.579134e+00 -1.825891e+00 8.000000e+00
    endloop
  endfacet
  facet normal 0.000000e+00 0.000000e+00 1.000000e+00
    outer loop
      vertex -4.156955e+00 -4.988344e+00 8.000000e+00
      vertex -9.814870e-01 -2.440061e+00 8.000000e+00
      vertex -2.300895e+00 -2.220038e+00 8.000000e+00
    endloop
  endfacet
  facet normal 0.000000e+00 0.000000e+00 1.000000e+00
    outer loop
      vertex -4.156955e+00 -4.988344e+00 8.000000e+00
      vertex 3.554821e-01 -2.482024e+00 8.000000e+00
      vertex -9.814870e-01 -2.440061e+00 8.000000e+00
    endloop
  endfacet
  facet normal 0.000000e+00 0.000000e+00 1.000000e+00
    outer loop
      vertex -4.156955e+00 -4.988344e+00 8.000000e+00
      vertex 1.686090e+00 -2.345173e+00 8.000000e+00
      vertex 3.554821e-01 -2.482024e+00 8.000000e+00
    endloop
  endfacet
  facet normal 0.000000e+00 0.000000e+00 1.000000e+00
    outer loop
      vertex -4.156955e+00 -4.988344e+00 8.000000e+00
      vertex -9.725117e+00 -1.748834e+01 8.000000e+00
      vertex 1.686090e+00 -2.345173e+00 8.000000e+00
    endloop
  endfacet
  facet normal 0.000000e+00 0.000000e+00 1.000000e+00
    outer loop
      vertex -4.156955e+00 -4.988344e+00 8.000000e+00
      vertex -1.000000e+01 -1.748834e+01 8.000000e+00
      vertex -9.725117e+00 -1.748834e+01 8.000000e+00
    endloop
  endfacet
  facet normal 0.000000e+00 0.000000e+00 1.000000e+00
    outer loop
      vertex -4.156955e+00 -4.988344e+00 8.000000e+00
      vertex -6.944249e+00 3.160043e-01 8.000000e+00
      vertex -1.000000e+01 -1.748834e+01 8.000000e+00
    endloop
  endfacet
  facet normal -1.000000e+00 0.000000e+00 0.000000e+00
    outer loop
      vertex -1.000000e+01 7.511656e+00 0.000000e+00
      vertex -1.000000e+01 -1.748834e+01 0.000000e+00
      vertex -1.000000e+01 -1.748834e+01 8.000000e+00
    endloop
  endfacet
  facet normal -1.000000e+00 -0.000000e+00 -0.000000e+00
    outer loop
      vertex -1.000000e+01 7.511656e+00 8.000000e+00
      vertex -1.000000e+01 7.511656e+00 0.000000e+00
      vertex -1.000000e+01 -1.748834e+01 8.000000e+00
    endloop
  endfacet
  facet normal 0.000000e+00 0.000000e+00 -1.000000e+00
    outer loop
      vertex -6.944249e+00 3.160043e-01 0.000000e+00
      vertex -1.000000e+01 -1.748834e+01 0.000000e+00
      vertex -7.842479e+00 1.307180e+00 0.000000e+00
    endloop
  endfacet
  facet normal 0.000000e+00 0.000000e+00 -1.000000e+00
    outer loop
      vertex -7.842479e+00 1.307180e+00 0.000000e+00
      vertex -1.000000e+01 -1.748834e+01 0.000000e+00
      vertex -8.600388e+00 2.409369e+00 0.000000e+00
    endloop
  endfacet
  facet normal 0.000000e+00 0.000000e+00 -1.000000e+00
    outer loop
      vertex -8.600388e+00 2.409369e+00 0.000000e+00
      vertex -1.000000e+01 -1.748834e+01 0.000000e+00
      vertex -9.204414e+00 3.602851e+00 0.000000e+00
    endloop
  endfacet
  facet normal 0.000000e+00 0.000000e+00 -1.000000e+00
    outer loop
      vertex -1.000000e+01 -1.748834e+01 0.000000e+00
      vertex -1.000000e+01 7.511656e+00 0.000000e+00
      vertex -9.910538e+00 6.177024e+00 0.000000e+00
    endloop
  endfacet
  facet normal 0.000000e+00 0.000000e+00 -1.000000e+00
    outer loop
      vertex -9.643751e+00 4.866271e+00 0.000000e+00
      vertex -1.000000e+01 -1.748834e+01 0.000000e+00
      vertex -9.910538e+00 6.177024e+00 0.000000e+00
    endloop
  endfacet
  facet normal 0.000000e+00 0.000000e+00 -1.000000e+00
    outer loop
      vertex -9.204414e+00 3.602851e+00 0.000000e+00
      vertex -1.000000e+01 -1.748834e+01 0.000000e+00
      vertex -9.643751e+00 4.866271e+00 0.000000e+00
    endloop
  endfacet
  facet normal 0.000000e+00 0.000000e+00 -1.000000e+00
    outer loop
      vertex -6.944249e+00 3.160043e-01 0.000000e+00
      vertex -5.921769e+00 -5.464234e-01 0.000000e+00
      vertex -4.156955e+00 -4.988344e+00 0.000000e+00
    endloop
  endfacet
  facet normal 0.000000e+00 0.000000e+00 -1.000000e+00
    outer loop
      vertex -5.921769e+00 -5.464234e-01 0.000000e+00
      vertex -4.793334e+00 -1.264673e+00 0.000000e+00
      vertex -4.156955e+00 -4.988344e+00 0.000000e+00
    endloop
  endfacet
  facet normal 0.000000e+00 0.000000e+00 -1.000000e+00
    outer loop
      vertex -4.793334e+00 -1.264673e+00 0.000000e+00
      vertex -3.579134e+00 -1.825891e+00 0.000000e+00
      vertex -4.156955e+00 -4.988344e+00 0.000000e+00
    endloop
  endfacet
  facet normal 0.000000e+00 0.000000e+00 -1.000000e+00
    outer loop
      vertex -3.579134e+00 -1.825891e+00 0.000000e+00
      vertex -2.300895e+00 -2.220038e+00 0.000000e+00
      vertex -4.156955e+00 -4.988344e+00 0.000000e+00
    endloop
  endfacet
  facet normal 0.000000e+00 0.000000e+00 -1.000000e+00
    outer loop
      vertex -2.300895e+00 -2.220038e+00 0.000000e+00
      vertex -9.814870e-01 -2.440061e+00 0.000000e+00
      vertex -4.156955e+00 -4.988344e+00 0.000000e+00
    endloop
  endfacet
  facet normal 0.000000e+00 0.000000e+00 -1.000000e+00
    outer loop
      vertex -9.814870e-01 -2.440061e+00 0.000000e+00
      vertex 3.554821e-01 -2.482024e+00 0.000000e+00
      vertex -4.156955e+00 -4.988344e+00 0.000000e+00
    endloop
  endfacet
  facet normal 0.000000e+00 0.000000e+00 -1.000000e+00
    outer loop
      vertex 3.554821e-01 -2.482024e+00 0.000000e+00
      vertex 1.686090e+00 -2.345173e+00 0.000000e+00
      vertex -4.156955e+00 -4.988344e+00 0.000000e+00
    endloop
  endfacet
  facet normal 0.000000e+00 0.000000e+00 -1.000000e+00
    outer loop
      vertex 1.686090e+00 -2.345173e+00 0.000000e+00
      vertex -9.725117e+00 -1.748834e+01 0.000000e+00
      vertex -4.156955e+00 -4.988344e+00 0.000000e+00
    endloop
  endfacet
  facet normal 0.000000e+00 0.000000e+00 -1.000000e+00
    outer loop
      vertex -9.725117e+00 -1.748834e+01 0.000000e+00
      vertex -1.000000e+01 -1.748834e+01 0.000000e+00
      vertex -4.156955e+00 -4.988344e+00 0.000000e+00
    endloop
  endfacet
  facet normal 0.000000e+00 0.000000e+00 -1.000000e+00
    outer loop
      vertex -1.000000e+01 -1.748834e+01 0.000000e+00
      vertex -6.944249e+00 3.160043e-01 0.000000e+00
      vertex -4.156955e+00 -4.988344e+00 0.000000e+00
    endloop
  endfacet
  facet normal 7.986353e-01 -6.018153e-01 0.000000e+00
    outer loop
      vertex -9.725117e+00 -1.748834e+01 0.000000e+00
      vertex 1.686090e+00 -2.345173e+00 0.000000e+00
      vertex 1.686090e+00 -2.345173e+00 8.000000e+00
    endloop
  endfacet
  facet normal 7.986353e-01 -6.018153e-01 0.000000e+00
    outer loop
      vertex -9.725117e+00 -1.748834e+01 8.000000e+00
      vertex -9.725117e+00 -1.748834e+01 0.000000e+00
      vertex 1.686090e+00 -2.345173e+00 8.000000e+00
    endloop
  endfacet
  facet normal 0.000000e+00 0.000000e+00 1.000000e+00
    outer loop
      vertex -7.805050e+00 5.994620e+00 8.000000e+00
      vertex -9.910538e+00 6.177024e+00 8.000000e+00
      vertex -9.643751e+00 4.866271e+00 8.000000e+00
    endloop
  endfacet
  facet normal 0.000000e+00 0.000000e+00 1.000000e+00
    outer loop
      vertex -7.805050e+00 5.994620e+00 8.000000e+00
      vertex -9.643751e+00 4.866271e+00 8.000000e+00
      vertex -7.232868e+00 4.576167e+00 8.000000e+00
    endloop
  endfacet
  facet normal 0.000000e+00 0.000000e+00 1.000000e+00
    outer loop
      vertex -2.222631e+00 1.515788e+00 8.000000e+00
      vertex -3.579134e+00 -1.825891e+00 8.000000e+00
      vertex -2.300895e+00 -2.220038e+00 8.000000e+00
    endloop
  endfacet
  facet normal 0.000000e+00 0.000000e+00 1.000000e+00
    outer loop
      vertex -2.222631e+00 1.515788e+00 8.000000e+00
      vertex -2.300895e+00 -2.220038e+00 8.000000e+00
      vertex -9.814870e-01 -2.440061e+00 8.000000e+00
    endloop
  endfacet
  facet normal 0.000000e+00 0.000000e+00 1.000000e+00
    outer loop
      vertex -2.222631e+00 1.515788e+00 8.000000e+00
      vertex -3.731388e+00 1.766894e+00 8.000000e+00
      vertex -3.579134e+00 -1.825891e+00 8.000000e+00
    endloop
  endfacet
  facet normal 0.000000e+00 0.000000e+00 1.000000e+00
    outer loop
      vertex -8.000000e+00 7.511656e+00 8.000000e+00
      vertex -1.000000e+01 7.511656e+00 8.000000e+00
      vertex -9.910538e+00 6.177024e+00 8.000000e+00
    endloop
  endfacet
  facet normal 0.000000e+00 0.000000e+00 1.000000e+00
    outer loop
      vertex -8.000000e+00 7.511656e+00 8.000000e+00
      vertex -9.910538e+00 6.177024e+00 8.000000e+00
      vertex -7.805050e+00 5.994620e+00 8.000000e+00
    endloop
  endfacet
  facet normal 0.000000e+00 0.000000e+00 1.000000e+00
    outer loop
      vertex 1.850830e+00 -2.126557e+00 8.000000e+00
      vertex 3.554821e-01 -2.482024e+00 8.000000e+00
      vertex 1.686090e+00 -2.345173e+00 8.000000e+00
    endloop
  endfacet
  facet normal 0.000000e+00 0.000000e+00 1.000000e+00
    outer loop
      vertex -6.994060e-01 1.654315e+00 8.000000e+00
      vertex -9.814870e-01 -2.440061e+00 8.000000e+00
      vertex 3.554821e-01 -2.482024e+00 8.000000e+00
    endloop
  endfacet
  facet normal 0.000000e+00 0.000000e+00 1.000000e+00
    outer loop
      vertex -6.994060e-01 1.654315e+00 8.000000e+00
      vertex -2.222631e+00 1.515788e+00 8.000000e+00
      vertex -9.814870e-01 -2.440061e+00 8.000000e+00
    endloop
  endfacet
  facet normal 0.000000e+00 0.000000e+00 1.000000e+00
    outer loop
      vertex -6.994060e-01 1.654315e+00 8.000000e+00
      vertex 3.554821e-01 -2.482024e+00 8.000000e+00
      vertex 1.850830e+00 -2.126557e+00 8.000000e+00
    endloop
  endfacet
  facet normal 0.000000e+00 0.000000e+00 1.000000e+00
    outer loop
      vertex 7.393010e-01 2.173470e+00 8.000000e+00
      vertex -6.994060e-01 1.654315e+00 8.000000e+00
      vertex 1.850830e+00 -2.126557e+00 8.000000e+00
    endloop
  endfacet
  facet normal 0.000000e+00 0.000000e+00 1.000000e+00
    outer loop
      vertex 2.000000e+00 3.039520e+00 8.000000e+00
      vertex 1.850830e+00 -2.126557e+00 8.000000e+00
      vertex 2.000000e+00 -2.238965e+00 8.000000e+00
    endloop
  endfacet
  facet normal 0.000000e+00 0.000000e+00 1.000000e+00
    outer loop
      vertex 2.000000e+00 3.039520e+00 8.000000e+00
      vertex 7.393010e-01 2.173470e+00 8.000000e+00
      vertex 1.850830e+00 -2.126557e+00 8.000000e+00
    endloop
  endfacet
  facet normal 0.000000e+00 0.000000e+00 1.000000e+00
    outer loop
      vertex -6.320636e+00 3.348471e+00 8.000000e+00
      vertex -8.600388e+00 2.409369e+00 8.000000e+00
      vertex -7.842479e+00 1.307180e+00 8.000000e+00
    endloop
  endfacet
  facet normal 0.000000e+00 0.000000e+00 1.000000e+00
    outer loop
      vertex -5.127634e+00 2.391315e+00 8.000000e+00
      vertex -7.842479e+00 1.307180e+00 8.000000e+00
      vertex -6.944249e+00 3.160043e-01 8.000000e+00
    endloop
  endfacet
  facet normal 0.000000e+00 0.000000e+00 1.000000e+00
    outer loop
      vertex -5.127634e+00 2.391315e+00 8.000000e+00
      vertex -6.944249e+00 3.160043e-01 8.000000e+00
      vertex -5.921769e+00 -5.464234e-01 8.000000e+00
    endloop
  endfacet
  facet normal 0.000000e+00 0.000000e+00 1.000000e+00
    outer loop
      vertex -5.127634e+00 2.391315e+00 8.000000e+00
      vertex -6.320636e+00 3.348471e+00 8.000000e+00
      vertex -7.842479e+00 1.307180e+00 8.000000e+00
    endloop
  endfacet
  facet normal 0.000000e+00 0.000000e+00 1.000000e+00
    outer loop
      vertex -7.232868e+00 4.576167e+00 8.000000e+00
      vertex -9.643751e+00 4.866271e+00 8.000000e+00
      vertex -9.204414e+00 3.602851e+00 8.000000e+00
    endloop
  endfacet
  facet normal 0.000000e+00 0.000000e+00 1.000000e+00
    outer loop
      vertex -7.232868e+00 4.576167e+00 8.000000e+00
      vertex -9.204414e+00 3.602851e+00 8.000000e+00
      vertex -8.600388e+00 2.409369e+00 8.000000e+00
    endloop
  endfacet
  facet normal 0.000000e+00 0.000000e+00 1.000000e+00
    outer loop
      vertex -7.232868e+00 4.576167e+00 8.000000e+00
      vertex -8.600388e+00 2.409369e+00 8.000000e+00
      vertex -6.320636e+00 3.348471e+00 8.000000e+00
    endloop
  endfacet
  facet normal 0.000000e+00 0.000000e+00 1.000000e+00
    outer loop
      vertex -3.731388e+00 1.766894e+00 8.000000e+00
      vertex -5.921769e+00 -5.464234e-01 8.000000e+00
      vertex -4.793334e+00 -1.264673e+00 8.000000e+00
    endloop
  endfacet
  facet normal 0.000000e+00 0.000000e+00 1.000000e+00
    outer loop
      vertex -3.731388e+00 1.766894e+00 8.000000e+00
      vertex -4.793334e+00 -1.264673e+00 8.000000e+00
      vertex -3.579134e+00 -1.825891e+00 8.000000e+00
    endloop
  endfacet
  facet normal 0.000000e+00 0.000000e+00 1.000000e+00
    outer loop
      vertex -3.731388e+00 1.766894e+00 8.000000e+00
      vertex -5.127634e+00 2.391315e+00 8.000000e+00
      vertex -5.921769e+00 -5.464234e-01 8.000000e+00
    endloop
  endfacet
  facet normal -9.790841e-01 2.034560e-01 0.000000e+00
    outer loop
      vertex -9.906859e+00 8.873322e+00 8.000000e+00
      vertex -9.629173e+00 1.020962e+01 8.000000e+00
      vertex -9.906859e+00 8.873322e+00 0.000000e+00
    endloop
  endfacet
  facet normal 2.697969e-01 9.629173e-01 0.000000e+00
    outer loop
      vertex 2.034560e+00 1.730250e+01 8.000000e+00
      vertex 3.348796e+00 1.693427e+01 8.000000e+00
      vertex 2.034560e+00 1.730250e+01 0.000000e+00
    endloop
  endfacet
  facet normal -9.976688e-01 6.824247e-02 0.000000e+00
    outer loop
      vertex -1.000000e+01 7.511656e+00 0.000000e+00
      vertex -9.906859e+00 8.873322e+00 8.000000e+00
      vertex -9.906859e+00 8.873322e+00 0.000000e+00
    endloop
  endfacet
  facet normal 1.361663e-01 9.906860e-01 0.000000e+00
    outer loop
      vertex 6.824241e-01 1.748834e+01 8.000000e+00
      vertex 2.034560e+00 1.730250e+01 0.000000e+00
      vertex 6.824241e-01 1.748834e+01 0.000000e+00
    endloop
  endfacet
  facet normal -9.976688e-01 6.824247e-02 0.000000e+00
    outer loop
      vertex -1.000000e+01 7.511656e+00 8.000000e+00
      vertex -9.906859e+00 8.873322e+00 8.000000e+00
      vertex -1.000000e+01 7.511656e+00 0.000000e+00
    endloop
  endfacet
  facet normal 1.361663e-01 9.906860e-01 0.000000e+00
    outer loop
      vertex 6.824241e-01 1.748834e+01 8.000000e+00
      vertex 2.034560e+00 1.730250e+01 8.000000e+00
      vertex 2.034560e+00 1.730250e+01 0.000000e+00
    endloop
  endfacet
  facet normal 9.976688e-01 6.824247e-02 0.000000e+00
    outer loop
      vertex 9.906860e+00 8.873322e+00 8.000000e+00
      vertex 1.000000e+01 7.511656e+00 0.000000e+00
      vertex 9.906860e+00 8.873322e+00 0.000000e+00
    endloop
  endfacet
  facet normal 9.976688e-01 6.824247e-02 0.000000e+00
    outer loop
      vertex 9.906860e+00 8.873322e+00 8.000000e+00
      vertex 1.000000e+01 7.511656e+00 8.000000e+00
      vertex 1.000000e+01 7.511656e+00 0.000000e+00
    endloop
  endfacet
  facet normal 0.000000e+00 1.000000e+00 0.000000e+00
    outer loop
      vertex -6.824239e-01 1.748834e+01 0.000000e+00
      vertex 6.824241e-01 1.748834e+01 8.000000e+00
      vertex 6.824241e-01 1.748834e+01 0.000000e+00
    endloop
  endfacet
  facet normal 0.000000e+00 1.000000e+00 0.000000e+00
    outer loop
      vertex -6.824239e-01 1.748834e+01 8.000000e+00
      vertex 6.824241e-01 1.748834e+01 8.000000e+00
      vertex -6.824239e-01 1.748834e+01 0.000000e+00
    endloop
  endfacet
  facet normal -1.361663e-01 9.906860e-01 0.000000e+00
    outer loop
      vertex -2.034560e+00 1.730250e+01 0.000000e+00
      vertex -6.824239e-01 1.748834e+01 8.000000e+00
      vertex -6.824239e-01 1.748834e+01 0.000000e+00
    endloop
  endfacet
  facet normal 9.790842e-01 2.034557e-01 0.000000e+00
    outer loop
      vertex 9.629170e+00 1.020962e+01 0.000000e+00
      vertex 9.906860e+00 8.873322e+00 8.000000e+00
      vertex 9.906860e+00 8.873322e+00 0.000000e+00
    endloop
  endfacet
  facet normal -1.361663e-01 9.906860e-01 0.000000e+00
    outer loop
      vertex -2.034560e+00 1.730250e+01 8.000000e+00
      vertex -6.824239e-01 1.748834e+01 8.000000e+00
      vertex -2.034560e+00 1.730250e+01 0.000000e+00
    endloop
  endfacet
  facet normal 9.790842e-01 2.034557e-01 0.000000e+00
    outer loop
      vertex 9.629170e+00 1.020962e+01 8.000000e+00
      vertex 9.906860e+00 8.873322e+00 8.000000e+00
      vertex 9.629170e+00 1.020962e+01 0.000000e+00
    endloop
  endfacet
  facet normal 9.422609e-01 3.348796e-01 0.000000e+00
    outer loop
      vertex 9.172110e+00 1.149567e+01 8.000000e+00
      vertex 9.629170e+00 1.020962e+01 0.000000e+00
      vertex 9.172110e+00 1.149567e+01 0.000000e+00
    endloop
  endfacet
  facet normal -2.697968e-01 9.629173e-01 0.000000e+00
    outer loop
      vertex -3.348796e+00 1.693427e+01 8.000000e+00
      vertex -2.034560e+00 1.730250e+01 8.000000e+00
      vertex -2.034560e+00 1.730250e+01 0.000000e+00
    endloop
  endfacet
  facet normal -2.697968e-01 9.629173e-01 0.000000e+00
    outer loop
      vertex -3.348796e+00 1.693427e+01 8.000000e+00
      vertex -2.034560e+00 1.730250e+01 0.000000e+00
      vertex -3.348796e+00 1.693427e+01 0.000000e+00
    endloop
  endfacet
  facet normal 9.422609e-01 3.348796e-01 0.000000e+00
    outer loop
      vertex 9.172110e+00 1.149567e+01 8.000000e+00
      vertex 9.629170e+00 1.020962e+01 8.000000e+00
      vertex 9.629170e+00 1.020962e+01 0.000000e+00
    endloop
  endfacet
  facet normal -3.984013e-01 9.172112e-01 0.000000e+00
    outer loop
      vertex -4.600650e+00 1.639051e+01 0.000000e+00
      vertex -3.348796e+00 1.693427e+01 8.000000e+00
      vertex -3.348796e+00 1.693427e+01 0.000000e+00
    endloop
  endfacet
  facet normal 8.878852e-01 4.600652e-01 0.000000e+00
    outer loop
      vertex 8.544190e+00 1.270750e+01 8.000000e+00
      vertex 9.172110e+00 1.149567e+01 0.000000e+00
      vertex 8.544190e+00 1.270750e+01 0.000000e+00
    endloop
  endfacet
  facet normal -3.984013e-01 9.172112e-01 0.000000e+00
    outer loop
      vertex -4.600650e+00 1.639051e+01 8.000000e+00
      vertex -3.348796e+00 1.693427e+01 8.000000e+00
      vertex -4.600650e+00 1.639051e+01 0.000000e+00
    endloop
  endfacet
  facet normal 8.878852e-01 4.600652e-01 0.000000e+00
    outer loop
      vertex 8.544190e+00 1.270750e+01 8.000000e+00
      vertex 9.172110e+00 1.149567e+01 8.000000e+00
      vertex 9.172110e+00 1.149567e+01 0.000000e+00
    endloop
  endfacet
  facet normal -5.195838e-01 8.544195e-01 0.000000e+00
    outer loop
      vertex -5.766803e+00 1.568135e+01 0.000000e+00
      vertex -4.600650e+00 1.639051e+01 8.000000e+00
      vertex -4.600650e+00 1.639051e+01 0.000000e+00
    endloop
  endfacet
  facet normal 8.169696e-01 5.766807e-01 0.000000e+00
    outer loop
      vertex 7.757113e+00 1.382254e+01 0.000000e+00
      vertex 8.544190e+00 1.270750e+01 8.000000e+00
      vertex 8.544190e+00 1.270750e+01 0.000000e+00
    endloop
  endfacet
  facet normal -5.195838e-01 8.544195e-01 0.000000e+00
    outer loop
      vertex -5.766803e+00 1.568135e+01 8.000000e+00
      vertex -4.600650e+00 1.639051e+01 8.000000e+00
      vertex -5.766803e+00 1.568135e+01 0.000000e+00
    endloop
  endfacet
  facet normal 8.169696e-01 5.766807e-01 0.000000e+00
    outer loop
      vertex 7.757113e+00 1.382254e+01 8.000000e+00
      vertex 8.544190e+00 1.270750e+01 8.000000e+00
      vertex 7.757113e+00 1.382254e+01 0.000000e+00
    endloop
  endfacet
  facet normal -6.310878e-01 7.757114e-01 0.000000e+00
    outer loop
      vertex -6.825531e+00 1.482002e+01 0.000000e+00
      vertex -5.766803e+00 1.568135e+01 8.000000e+00
      vertex -5.766803e+00 1.568135e+01 0.000000e+00
    endloop
  endfacet
  facet normal -6.310878e-01 7.757114e-01 0.000000e+00
    outer loop
      vertex -6.825531e+00 1.482002e+01 8.000000e+00
      vertex -5.766803e+00 1.568135e+01 8.000000e+00
      vertex -6.825531e+00 1.482002e+01 0.000000e+00
    endloop
  endfacet
  facet normal 7.308360e-01 6.825531e-01 0.000000e+00
    outer loop
      vertex 6.825531e+00 1.482002e+01 8.000000e+00
      vertex 7.757113e+00 1.382254e+01 0.000000e+00
      vertex 6.825531e+00 1.482002e+01 0.000000e+00
    endloop
  endfacet
  facet normal -7.308360e-01 6.825531e-01 0.000000e+00
    outer loop
      vertex -7.757113e+00 1.382254e+01 0.000000e+00
      vertex -6.825531e+00 1.482002e+01 8.000000e+00
      vertex -6.825531e+00 1.482002e+01 0.000000e+00
    endloop
  endfacet
  facet normal 7.308360e-01 6.825531e-01 0.000000e+00
    outer loop
      vertex 6.825531e+00 1.482002e+01 8.000000e+00
      vertex 7.757113e+00 1.382254e+01 8.000000e+00
      vertex 7.757113e+00 1.382254e+01 0.000000e+00
    endloop
  endfacet
  facet normal -7.308360e-01 6.825531e-01 0.000000e+00
    outer loop
      vertex -7.757113e+00 1.382254e+01 8.000000e+00
      vertex -6.825531e+00 1.482002e+01 8.000000e+00
      vertex -7.757113e+00 1.382254e+01 0.000000e+00
    endloop
  endfacet
  facet normal 6.310880e-01 7.757112e-01 0.000000e+00
    outer loop
      vertex 5.766803e+00 1.568135e+01 0.000000e+00
      vertex 6.825531e+00 1.482002e+01 8.000000e+00
      vertex 6.825531e+00 1.482002e+01 0.000000e+00
    endloop
  endfacet
  facet normal -8.169698e-01 5.766804e-01 0.000000e+00
    outer loop
      vertex -8.544194e+00 1.270750e+01 0.000000e+00
      vertex -7.757113e+00 1.382254e+01 8.000000e+00
      vertex -7.757113e+00 1.382254e+01 0.000000e+00
    endloop
  endfacet
  facet normal 6.310880e-01 7.757112e-01 0.000000e+00
    outer loop
      vertex 5.766803e+00 1.568135e+01 8.000000e+00
      vertex 6.825531e+00 1.482002e+01 8.000000e+00
      vertex 5.766803e+00 1.568135e+01 0.000000e+00
    endloop
  endfacet
  facet normal -8.169698e-01 5.766804e-01 0.000000e+00
    outer loop
      vertex -8.544194e+00 1.270750e+01 8.000000e+00
      vertex -7.757113e+00 1.382254e+01 8.000000e+00
      vertex -8.544194e+00 1.270750e+01 0.000000e+00
    endloop
  endfacet
  facet normal 5.195838e-01 8.544195e-01 0.000000e+00
    outer loop
      vertex 4.600650e+00 1.639051e+01 8.000000e+00
      vertex 5.766803e+00 1.568135e+01 0.000000e+00
      vertex 4.600650e+00 1.639051e+01 0.000000e+00
    endloop
  endfacet
  facet normal -8.878853e-01 4.600649e-01 0.000000e+00
    outer loop
      vertex -9.172113e+00 1.149567e+01 8.000000e+00
      vertex -8.544194e+00 1.270750e+01 0.000000e+00
      vertex -9.172113e+00 1.149567e+01 0.000000e+00
    endloop
  endfacet
  facet normal -8.878853e-01 4.600649e-01 0.000000e+00
    outer loop
      vertex -9.172113e+00 1.149567e+01 8.000000e+00
      vertex -8.544194e+00 1.270750e+01 8.000000e+00
      vertex -8.544194e+00 1.270750e+01 0.000000e+00
    endloop
  endfacet
  facet normal 5.195838e-01 8.544195e-01 0.000000e+00
    outer loop
      vertex 4.600650e+00 1.639051e+01 8.000000e+00
      vertex 5.766803e+00 1.568135e+01 8.000000e+00
      vertex 5.766803e+00 1.568135e+01 0.000000e+00
    endloop
  endfacet
  facet normal -9.422609e-01 3.348796e-01 0.000000e+00
    outer loop
      vertex -9.629173e+00 1.020962e+01 0.000000e+00
      vertex -9.172113e+00 1.149567e+01 8.000000e+00
      vertex -9.172113e+00 1.149567e+01 0.000000e+00
    endloop
  endfacet
  facet normal 3.984013e-01 9.172112e-01 0.000000e+00
    outer loop
      vertex 3.348796e+00 1.693427e+01 0.000000e+00
      vertex 4.600650e+00 1.639051e+01 8.000000e+00
      vertex 4.600650e+00 1.639051e+01 0.000000e+00
    endloop
  endfacet
  facet normal -9.422609e-01 3.348796e-01 0.000000e+00
    outer loop
      vertex -9.629173e+00 1.020962e+01 8.000000e+00
      vertex -9.172113e+00 1.149567e+01 8.000000e+00
      vertex -9.629173e+00 1.020962e+01 0.000000e+00
    endloop
  endfacet
  facet normal 3.984013e-01 9.172112e-01 0.000000e+00
    outer loop
      vertex 3.348796e+00 1.693427e+01 8.000000e+00
      vertex 4.600650e+00 1.639051e+01 8.000000e+00
      vertex 3.348796e+00 1.693427e+01 0.000000e+00
    endloop
  endfacet
  facet normal -9.790841e-01 2.034560e-01 0.000000e+00
    outer loop
      vertex -9.906859e+00 8.873322e+00 0.000000e+00
      vertex -9.629173e+00 1.020962e+01 8.000000e+00
      vertex -9.629173e+00 1.020962e+01 0.000000e+00
    endloop
  endfacet
  facet normal 2.697969e-01 9.629173e-01 0.000000e+00
    outer loop
      vertex 2.034560e+00 1.730250e+01 0.000000e+00
      vertex 3.348796e+00 1.693427e+01 8.000000e+00
      vertex 3.348796e+00 1.693427e+01 0.000000e+00
    endloop
  endfacet
  facet normal 0.000000e+00 0.000000e+00 -1.000000e+00
    outer loop
      vertex -9.643751e+00 4.866271e+00 0.000000e+00
      vertex -9.910538e+00 6.177024e+00 0.000000e+00
      vertex -7.805050e+00 5.994620e+00 0.000000e+00
    endloop
  endfacet
  facet normal 0.000000e+00 0.000000e+00 -1.000000e+00
    outer loop
      vertex -7.232868e+00 4.576167e+00 0.000000e+00
      vertex -9.643751e+00 4.866271e+00 0.000000e+00
      vertex -7.805050e+00 5.994620e+00 0.000000e+00
    endloop
  endfacet
  facet normal 0.000000e+00 0.000000e+00 -1.000000e+00
    outer loop
      vertex -2.300895e+00 -2.220038e+00 0.000000e+00
      vertex -3.579134e+00 -1.825891e+00 0.000000e+00
      vertex -2.222631e+00 1.515788e+00 0.000000e+00
    endloop
  endfacet
  facet normal 0.000000e+00 0.000000e+00 -1.000000e+00
    outer loop
      vertex -9.814870e-01 -2.440061e+00 0.000000e+00
      vertex -2.300895e+00 -2.220038e+00 0.000000e+00
      vertex -2.222631e+00 1.515788e+00 0.000000e+00
    endloop
  endfacet
  facet normal 0.000000e+00 0.000000e+00 -1.000000e+00
    outer loop
      vertex -3.579134e+00 -1.825891e+00 0.000000e+00
      vertex -3.731388e+00 1.766894e+00 0.000000e+00
      vertex -2.222631e+00 1.515788e+00 0.000000e+00
    endloop
  endfacet
  facet normal 0.000000e+00 0.000000e+00 -1.000000e+00
    outer loop
      vertex -9.910538e+00 6.177024e+00 0.000000e+00
      vertex -1.000000e+01 7.511656e+00 0.000000e+00
      vertex -8.000000e+00 7.511656e+00 0.000000e+00
    endloop
  endfacet
  facet normal 0.000000e+00 0.000000e+00 -1.000000e+00
    outer loop
      vertex -7.805050e+00 5.994620e+00 0.000000e+00
      vertex -9.910538e+00 6.177024e+00 0.000000e+00
      vertex -8.000000e+00 7.511656e+00 0.000000e+00
    endloop
  endfacet
  facet normal 0.000000e+00 0.000000e+00 -1.000000e+00
    outer loop
      vertex 1.686090e+00 -2.345173e+00 0.000000e+00
      vertex 3.554821e-01 -2.482024e+00 0.000000e+00
      vertex 1.850830e+00 -2.126557e+00 0.000000e+00
    endloop
  endfacet
  facet normal 0.000000e+00 0.000000e+00 -1.000000e+00
    outer loop
      vertex 3.554821e-01 -2.482024e+00 0.000000e+00
      vertex -9.814870e-01 -2.440061e+00 0.000000e+00
      vertex -6.994060e-01 1.654315e+00 0.000000e+00
    endloop
  endfacet
  facet normal 0.000000e+00 0.000000e+00 -1.000000e+00
    outer loop
      vertex -9.814870e-01 -2.440061e+00 0.000000e+00
      vertex -2.222631e+00 1.515788e+00 0.000000e+00
      vertex -6.994060e-01 1.654315e+00 0.000000e+00
    endloop
  endfacet
  facet normal 0.000000e+00 0.000000e+00 -1.000000e+00
    outer loop
      vertex 1.850830e+00 -2.126557e+00 0.000000e+00
      vertex 3.554821e-01 -2.482024e+00 0.000000e+00
      vertex -6.994060e-01 1.654315e+00 0.000000e+00
    endloop
  endfacet
  facet normal 0.000000e+00 0.000000e+00 -1.000000e+00
    outer loop
      vertex 1.850830e+00 -2.126557e+00 0.000000e+00
      vertex -6.994060e-01 1.654315e+00 0.000000e+00
      vertex 7.393010e-01 2.173470e+00 0.000000e+00
    endloop
  endfacet
  facet normal 0.000000e+00 0.000000e+00 -1.000000e+00
    outer loop
      vertex 2.000000e+00 -2.238965e+00 0.000000e+00
      vertex 1.850830e+00 -2.126557e+00 0.000000e+00
      vertex 2.000000e+00 3.039520e+00 0.000000e+00
    endloop
  endfacet
  facet normal 0.000000e+00 0.000000e+00 -1.000000e+00
    outer loop
      vertex 1.850830e+00 -2.126557e+00 0.000000e+00
      vertex 7.393010e-01 2.173470e+00 0.000000e+00
      vertex 2.000000e+00 3.039520e+00 0.000000e+00
    endloop
  endfacet
  facet normal 0.000000e+00 0.000000e+00 -1.000000e+00
    outer loop
      vertex -7.842479e+00 1.307180e+00 0.000000e+00
      vertex -8.600388e+00 2.409369e+00 0.000000e+00
      vertex -6.320636e+00 3.348471e+00 0.000000e+00
    endloop
  endfacet
  facet normal 0.000000e+00 0.000000e+00 -1.000000e+00
    outer loop
      vertex -6.944249e+00 3.160043e-01 0.000000e+00
      vertex -7.842479e+00 1.307180e+00 0.000000e+00
      vertex -5.127634e+00 2.391315e+00 0.000000e+00
    endloop
  endfacet
  facet normal 0.000000e+00 0.000000e+00 -1.000000e+00
    outer loop
      vertex -5.921769e+00 -5.464234e-01 0.000000e+00
      vertex -6.944249e+00 3.160043e-01 0.000000e+00
      vertex -5.127634e+00 2.391315e+00 0.000000e+00
    endloop
  endfacet
  facet normal 0.000000e+00 0.000000e+00 -1.000000e+00
    outer loop
      vertex -7.842479e+00 1.307180e+00 0.000000e+00
      vertex -6.320636e+00 3.348471e+00 0.000000e+00
      vertex -5.127634e+00 2.391315e+00 0.000000e+00
    endloop
  endfacet
  facet normal 0.000000e+00 0.000000e+00 -1.000000e+00
    outer loop
      vertex -9.204414e+00 3.602851e+00 0.000000e+00
      vertex -9.643751e+00 4.866271e+00 0.000000e+00
      vertex -7.232868e+00 4.576167e+00 0.000000e+00
    endloop
  endfacet
  facet normal 0.000000e+00 0.000000e+00 -1.000000e+00
    outer loop
      vertex -8.600388e+00 2.409369e+00 0.000000e+00
      vertex -9.204414e+00 3.602851e+00 0.000000e+00
      vertex -7.232868e+00 4.576167e+00 0.000000e+00
    endloop
  endfacet
  facet normal 0.000000e+00 0.000000e+00 -1.000000e+00
    outer loop
      vertex -6.320636e+00 3.348471e+00 0.000000e+00
      vertex -8.600388e+00 2.409369e+00 0.000000e+00
      vertex -7.232868e+00 4.576167e+00 0.000000e+00
    endloop
  endfacet
  facet normal 0.000000e+00 0.000000e+00 -1.000000e+00
    outer loop
      vertex -4.793334e+00 -1.264673e+00 0.000000e+00
      vertex -5.921769e+00 -5.464234e-01 0.000000e+00
      vertex -3.731388e+00 1.766894e+00 0.000000e+00
    endloop
  endfacet
  facet normal 0.000000e+00 0.000000e+00 -1.000000e+00
    outer loop
      vertex -3.579134e+00 -1.825891e+00 0.000000e+00
      vertex -4.793334e+00 -1.264673e+00 0.000000e+00
      vertex -3.731388e+00 1.766894e+00 0.000000e+00
    endloop
  endfacet
  facet normal 0.000000e+00 0.000000e+00 -1.000000e+00
    outer loop
      vertex -5.921769e+00 -5.464234e-01 0.000000e+00
      vertex -5.127634e+00 2.391315e+00 0.000000e+00
      vertex -3.731388e+00 1.766894e+00 0.000000e+00
    endloop
  endfacet
  facet normal 2.372043e-01 -9.714598e-01 0.000000e+00
    outer loop
      vertex 3.046359e+00 -2.013032e+00 8.000000e+00
      vertex 1.686090e+00 -2.345173e+00 8.000000e+00
      vertex 1.686090e+00 -2.345173e+00 0.000000e+00
    endloop
  endfacet
  facet normal 2.372043e-01 -9.714598e-01 0.000000e+00
    outer loop
      vertex 3.046359e+00 -2.013032e+00 8.000000e+00
      vertex 1.686090e+00 -2.345173e+00 0.000000e+00
      vertex 3.046359e+00 -2.013032e+00 0.000000e+00
    endloop
  endfacet
  facet normal 3.705721e-01 -9.288037e-01 0.000000e+00
    outer loop
      vertex 4.346899e+00 -1.494146e+00 8.000000e+00
      vertex 3.046359e+00 -2.013032e+00 0.000000e+00
      vertex 4.346899e+00 -1.494146e+00 0.000000e+00
    endloop
  endfacet
  facet normal 3.705721e-01 -9.288037e-01 0.000000e+00
    outer loop
      vertex 4.346899e+00 -1.494146e+00 8.000000e+00
      vertex 3.046359e+00 -2.013032e+00 8.000000e+00
      vertex 3.046359e+00 -2.013032e+00 0.000000e+00
    endloop
  endfacet
  facet normal 4.966744e-01 -8.679369e-01 0.000000e+00
    outer loop
      vertex 5.562212e+00 -7.986865e-01 8.000000e+00
      vertex 4.346899e+00 -1.494146e+00 0.000000e+00
      vertex 5.562212e+00 -7.986865e-01 0.000000e+00
    endloop
  endfacet
  facet normal 4.966744e-01 -8.679369e-01 0.000000e+00
    outer loop
      vertex 5.562212e+00 -7.986865e-01 8.000000e+00
      vertex 4.346899e+00 -1.494146e+00 8.000000e+00
      vertex 4.346899e+00 -1.494146e+00 0.000000e+00
    endloop
  endfacet
  facet normal 6.130383e-01 -7.900532e-01 0.000000e+00
    outer loop
      vertex 6.668469e+00 5.970907e-02 8.000000e+00
      vertex 5.562212e+00 -7.986865e-01 0.000000e+00
      vertex 6.668469e+00 5.970907e-02 0.000000e+00
    endloop
  endfacet
  facet normal 6.130383e-01 -7.900532e-01 0.000000e+00
    outer loop
      vertex 6.668469e+00 5.970907e-02 8.000000e+00
      vertex 5.562212e+00 -7.986865e-01 8.000000e+00
      vertex 5.562212e+00 -7.986865e-01 0.000000e+00
    endloop
  endfacet
  facet normal 7.173831e-01 -6.966789e-01 0.000000e+00
    outer loop
      vertex 7.643981e+00 1.064211e+00 8.000000e+00
      vertex 6.668469e+00 5.970907e-02 0.000000e+00
      vertex 7.643981e+00 1.064211e+00 0.000000e+00
    endloop
  endfacet
  facet normal 7.173831e-01 -6.966789e-01 0.000000e+00
    outer loop
      vertex 7.643981e+00 1.064211e+00 8.000000e+00
      vertex 6.668469e+00 5.970907e-02 8.000000e+00
      vertex 6.668469e+00 5.970907e-02 0.000000e+00
    endloop
  endfacet
  facet normal 8.076619e-01 -5.896459e-01 0.000000e+00
    outer loop
      vertex 8.469620e+00 2.195125e+00 8.000000e+00
      vertex 7.643981e+00 1.064211e+00 0.000000e+00
      vertex 8.469620e+00 2.195125e+00 0.000000e+00
    endloop
  endfacet
  facet normal 8.076619e-01 -5.896459e-01 0.000000e+00
    outer loop
      vertex 8.469620e+00 2.195125e+00 8.000000e+00
      vertex 7.643981e+00 1.064211e+00 8.000000e+00
      vertex 7.643981e+00 1.064211e+00 0.000000e+00
    endloop
  endfacet
  facet normal 8.821057e-01 -4.710515e-01 0.000000e+00
    outer loop
      vertex 9.129200e+00 3.430277e+00 8.000000e+00
      vertex 8.469620e+00 2.195125e+00 0.000000e+00
      vertex 9.129200e+00 3.430277e+00 0.000000e+00
    endloop
  endfacet
  facet normal 8.821057e-01 -4.710515e-01 0.000000e+00
    outer loop
      vertex 9.129200e+00 3.430277e+00 8.000000e+00
      vertex 8.469620e+00 2.195125e+00 8.000000e+00
      vertex 8.469620e+00 2.195125e+00 0.000000e+00
    endloop
  endfacet
  facet normal 9.392544e-01 -3.432217e-01 0.000000e+00
    outer loop
      vertex 9.609790e+00 4.745451e+00 8.000000e+00
      vertex 9.129200e+00 3.430277e+00 0.000000e+00
      vertex 9.609790e+00 4.745451e+00 0.000000e+00
    endloop
  endfacet
  facet normal 9.392544e-01 -3.432217e-01 0.000000e+00
    outer loop
      vertex 9.609790e+00 4.745451e+00 8.000000e+00
      vertex 9.129200e+00 3.430277e+00 8.000000e+00
      vertex 9.129200e+00 3.430277e+00 0.000000e+00
    endloop
  endfacet
  facet normal 9.779878e-01 -2.086621e-01 0.000000e+00
    outer loop
      vertex 9.901970e+00 6.114860e+00 8.000000e+00
      vertex 9.609790e+00 4.745451e+00 0.000000e+00
      vertex 9.901970e+00 6.114860e+00 0.000000e+00
    endloop
  endfacet
  facet normal 9.779878e-01 -2.086621e-01 0.000000e+00
    outer loop
      vertex 9.901970e+00 6.114860e+00 8.000000e+00
      vertex 9.609790e+00 4.745451e+00 8.000000e+00
      vertex 9.609790e+00 4.745451e+00 0.000000e+00
    endloop
  endfacet
  facet normal 9.975462e-01 -7.001127e-02 0.000000e+00
    outer loop
      vertex 1.000000e+01 7.511656e+00 8.000000e+00
      vertex 9.901970e+00 6.114860e+00 0.000000e+00
      vertex 1.000000e+01 7.511656e+00 0.000000e+00
    endloop
  endfacet
  facet normal 9.975462e-01 -7.001127e-02 0.000000e+00
    outer loop
      vertex 1.000000e+01 7.511656e+00 8.000000e+00
      vertex 9.901970e+00 6.114860e+00 8.000000e+00
      vertex 9.901970e+00 6.114860e+00 0.000000e+00
    endloop
  endfacet
  facet normal 0.000000e+00 0.000000e+00 1.000000e+00
    outer loop
      vertex -8.000000e+00 7.511656e+00 8.000000e+00
      vertex -9.906859e+00 8.873322e+00 8.000000e+00
      vertex -1.000000e+01 7.511656e+00 8.000000e+00
    endloop
  endfacet
  facet normal 0.000000e+00 0.000000e+00 1.000000e+00
    outer loop
      vertex 2.000000e+00 -2.238965e+00 8.000000e+00
      vertex 1.850830e+00 -2.126557e+00 8.000000e+00
      vertex 1.686090e+00 -2.345173e+00 8.000000e+00
    endloop
  endfacet
  facet normal 0.000000e+00 0.000000e+00 1.000000e+00
    outer loop
      vertex 3.046359e+00 -2.013032e+00 8.000000e+00
      vertex 2.000000e+00 -2.238965e+00 8.000000e+00
      vertex 1.686090e+00 -2.345173e+00 8.000000e+00
    endloop
  endfacet
  facet normal 0.000000e+00 0.000000e+00 1.000000e+00
    outer loop
      vertex -7.795555e+00 9.064570e+00 8.000000e+00
      vertex -9.629173e+00 1.020962e+01 8.000000e+00
      vertex -9.906859e+00 8.873322e+00 8.000000e+00
    endloop
  endfacet
  facet normal 0.000000e+00 0.000000e+00 1.000000e+00
    outer loop
      vertex -7.795555e+00 9.064570e+00 8.000000e+00
      vertex -9.906859e+00 8.873322e+00 8.000000e+00
      vertex -8.000000e+00 7.511656e+00 8.000000e+00
    endloop
  endfacet
  facet normal 0.000000e+00 0.000000e+00 1.000000e+00
    outer loop
      vertex -7.196152e+00 1.051166e+01 8.000000e+00
      vertex -9.172113e+00 1.149567e+01 8.000000e+00
      vertex -9.629173e+00 1.020962e+01 8.000000e+00
    endloop
  endfacet
  facet normal 0.000000e+00 0.000000e+00 1.000000e+00
    outer loop
      vertex -7.196152e+00 1.051166e+01 8.000000e+00
      vertex -9.629173e+00 1.020962e+01 8.000000e+00
      vertex -7.795555e+00 9.064570e+00 8.000000e+00
    endloop
  endfacet
  facet normal 0.000000e+00 0.000000e+00 1.000000e+00
    outer loop
      vertex -8.544194e+00 1.270750e+01 8.000000e+00
      vertex -9.172113e+00 1.149567e+01 8.000000e+00
      vertex -7.196152e+00 1.051166e+01 8.000000e+00
    endloop
  endfacet
  facet normal 0.000000e+00 0.000000e+00 1.000000e+00
    outer loop
      vertex 2.000000e+00 3.039520e+00 8.000000e+00
      vertex 3.046359e+00 -2.013032e+00 8.000000e+00
      vertex 4.346899e+00 -1.494146e+00 8.000000e+00
    endloop
  endfacet
  facet normal 0.000000e+00 0.000000e+00 1.000000e+00
    outer loop
      vertex 2.000000e+00 3.039520e+00 8.000000e+00
      vertex 4.346899e+00 -1.494146e+00 8.000000e+00
      vertex 5.562212e+00 -7.986865e-01 8.000000e+00
    endloop
  endfacet
  facet normal 0.000000e+00 0.000000e+00 1.000000e+00
    outer loop
      vertex -6.242640e+00 1.175430e+01 8.000000e+00
      vertex -8.544194e+00 1.270750e+01 8.000000e+00
      vertex -7.196152e+00 1.051166e+01 8.000000e+00
    endloop
  endfacet
  facet normal 0.000000e+00 0.000000e+00 1.000000e+00
    outer loop
      vertex -7.757113e+00 1.382254e+01 8.000000e+00
      vertex -8.544194e+00 1.270750e+01 8.000000e+00
      vertex -6.242640e+00 1.175430e+01 8.000000e+00
    endloop
  endfacet
  facet normal 0.000000e+00 0.000000e+00 1.000000e+00
    outer loop
      vertex 6.668469e+00 5.970907e-02 8.000000e+00
      vertex 2.000000e+00 3.039520e+00 8.000000e+00
      vertex 5.562212e+00 -7.986865e-01 8.000000e+00
    endloop
  endfacet
  facet normal 0.000000e+00 0.000000e+00 1.000000e+00
    outer loop
      vertex 3.081259e+00 4.320918e+00 8.000000e+00
      vertex 2.000000e+00 3.039520e+00 8.000000e+00
      vertex 6.668469e+00 5.970907e-02 8.000000e+00
    endloop
  endfacet
  facet normal 0.000000e+00 0.000000e+00 1.000000e+00
    outer loop
      vertex -5.000000e+00 1.270781e+01 8.000000e+00
      vertex -7.757113e+00 1.382254e+01 8.000000e+00
      vertex -6.242640e+00 1.175430e+01 8.000000e+00
    endloop
  endfacet
  facet normal 0.000000e+00 0.000000e+00 1.000000e+00
    outer loop
      vertex -6.825531e+00 1.482002e+01 8.000000e+00
      vertex -7.757113e+00 1.382254e+01 8.000000e+00
      vertex -5.000000e+00 1.270781e+01 8.000000e+00
    endloop
  endfacet
  facet normal 0.000000e+00 0.000000e+00 1.000000e+00
    outer loop
      vertex 7.643981e+00 1.064211e+00 8.000000e+00
      vertex 3.081259e+00 4.320918e+00 8.000000e+00
      vertex 6.668469e+00 5.970907e-02 8.000000e+00
    endloop
  endfacet
  facet normal 0.000000e+00 0.000000e+00 1.000000e+00
    outer loop
      vertex -5.766803e+00 1.568135e+01 8.000000e+00
      vertex -5.000000e+00 1.270781e+01 8.000000e+00
      vertex -3.552914e+00 1.330721e+01 8.000000e+00
    endloop
  endfacet
  facet normal 0.000000e+00 0.000000e+00 1.000000e+00
    outer loop
      vertex -5.766803e+00 1.568135e+01 8.000000e+00
      vertex -6.825531e+00 1.482002e+01 8.000000e+00
      vertex -5.000000e+00 1.270781e+01 8.000000e+00
    endloop
  endfacet
  facet normal 0.000000e+00 0.000000e+00 1.000000e+00
    outer loop
      vertex 8.469620e+00 2.195125e+00 8.000000e+00
      vertex 3.081259e+00 4.320918e+00 8.000000e+00
      vertex 7.643981e+00 1.064211e+00 8.000000e+00
    endloop
  endfacet
  facet normal 0.000000e+00 0.000000e+00 1.000000e+00
    outer loop
      vertex 8.469620e+00 2.195125e+00 8.000000e+00
      vertex 3.765742e+00 5.851468e+00 8.000000e+00
      vertex 3.081259e+00 4.320918e+00 8.000000e+00
    endloop
  endfacet
  facet normal 0.000000e+00 0.000000e+00 1.000000e+00
    outer loop
      vertex -4.600650e+00 1.639051e+01 8.000000e+00
      vertex -5.766803e+00 1.568135e+01 8.000000e+00
      vertex -3.552914e+00 1.330721e+01 8.000000e+00
    endloop
  endfacet
  facet normal 0.000000e+00 0.000000e+00 1.000000e+00
    outer loop
      vertex 9.129200e+00 3.430277e+00 8.000000e+00
      vertex 3.765742e+00 5.851468e+00 8.000000e+00
      vertex 8.469620e+00 2.195125e+00 8.000000e+00
    endloop
  endfacet
  facet normal 0.000000e+00 0.000000e+00 1.000000e+00
    outer loop
      vertex -3.348796e+00 1.693427e+01 8.000000e+00
      vertex -3.552914e+00 1.330721e+01 8.000000e+00
      vertex -2.000000e+00 1.351166e+01 8.000000e+00
    endloop
  endfacet
  facet normal 0.000000e+00 0.000000e+00 1.000000e+00
    outer loop
      vertex -3.348796e+00 1.693427e+01 8.000000e+00
      vertex -4.600650e+00 1.639051e+01 8.000000e+00
      vertex -3.552914e+00 1.330721e+01 8.000000e+00
    endloop
  endfacet
  facet normal 0.000000e+00 0.000000e+00 1.000000e+00
    outer loop
      vertex 9.609790e+00 4.745451e+00 8.000000e+00
      vertex 3.765742e+00 5.851468e+00 8.000000e+00
      vertex 9.129200e+00 3.430277e+00 8.000000e+00
    endloop
  endfacet
  facet normal 0.000000e+00 0.000000e+00 1.000000e+00
    outer loop
      vertex -2.034560e+00 1.730250e+01 8.000000e+00
      vertex -3.348796e+00 1.693427e+01 8.000000e+00
      vertex -2.000000e+00 1.351166e+01 8.000000e+00
    endloop
  endfacet
  facet normal 0.000000e+00 0.000000e+00 1.000000e+00
    outer loop
      vertex 9.901970e+00 6.114860e+00 8.000000e+00
      vertex 4.000000e+00 7.511656e+00 8.000000e+00
      vertex 3.765742e+00 5.851468e+00 8.000000e+00
    endloop
  endfacet
  facet normal 0.000000e+00 0.000000e+00 1.000000e+00
    outer loop
      vertex 9.901970e+00 6.114860e+00 8.000000e+00
      vertex 3.765742e+00 5.851468e+00 8.000000e+00
      vertex 9.609790e+00 4.745451e+00 8.000000e+00
    endloop
  endfacet
  facet normal 0.000000e+00 0.000000e+00 1.000000e+00
    outer loop
      vertex -6.824239e-01 1.748834e+01 8.000000e+00
      vertex -2.034560e+00 1.730250e+01 8.000000e+00
      vertex -2.000000e+00 1.351166e+01 8.000000e+00
    endloop
  endfacet
  facet normal 0.000000e+00 0.000000e+00 1.000000e+00
    outer loop
      vertex -6.824239e-01 1.748834e+01 8.000000e+00
      vertex -2.000000e+00 1.351166e+01 8.000000e+00
      vertex -4.470860e-01 1.330721e+01 8.000000e+00
    endloop
  endfacet
  facet normal 0.000000e+00 0.000000e+00 1.000000e+00
    outer loop
      vertex 1.000000e+01 7.511656e+00 8.000000e+00
      vertex 4.000000e+00 7.511656e+00 8.000000e+00
      vertex 9.901970e+00 6.114860e+00 8.000000e+00
    endloop
  endfacet
  facet normal 0.000000e+00 0.000000e+00 1.000000e+00
    outer loop
      vertex 6.824241e-01 1.748834e+01 8.000000e+00
      vertex -6.824239e-01 1.748834e+01 8.000000e+00
      vertex -4.470860e-01 1.330721e+01 8.000000e+00
    endloop
  endfacet
  facet normal 0.000000e+00 0.000000e+00 1.000000e+00
    outer loop
      vertex 9.906860e+00 8.873322e+00 8.000000e+00
      vertex 3.795555e+00 9.064570e+00 8.000000e+00
      vertex 4.000000e+00 7.511656e+00 8.000000e+00
    endloop
  endfacet
  facet normal 0.000000e+00 0.000000e+00 1.000000e+00
    outer loop
      vertex 9.906860e+00 8.873322e+00 8.000000e+00
      vertex 4.000000e+00 7.511656e+00 8.000000e+00
      vertex 1.000000e+01 7.511656e+00 8.000000e+00
    endloop
  endfacet
  facet normal 0.000000e+00 0.000000e+00 1.000000e+00
    outer loop
      vertex 2.034560e+00 1.730250e+01 8.000000e+00
      vertex -4.470860e-01 1.330721e+01 8.000000e+00
      vertex 1.000000e+00 1.270781e+01 8.000000e+00
    endloop
  endfacet
  facet normal 0.000000e+00 0.000000e+00 1.000000e+00
    outer loop
      vertex 2.034560e+00 1.730250e+01 8.000000e+00
      vertex 6.824241e-01 1.748834e+01 8.000000e+00
      vertex -4.470860e-01 1.330721e+01 8.000000e+00
    endloop
  endfacet
  facet normal 0.000000e+00 0.000000e+00 1.000000e+00
    outer loop
      vertex 9.629170e+00 1.020962e+01 8.000000e+00
      vertex 3.795555e+00 9.064570e+00 8.000000e+00
      vertex 9.906860e+00 8.873322e+00 8.000000e+00
    endloop
  endfacet
  facet normal 0.000000e+00 0.000000e+00 1.000000e+00
    outer loop
      vertex 3.348796e+00 1.693427e+01 8.000000e+00
      vertex 2.034560e+00 1.730250e+01 8.000000e+00
      vertex 1.000000e+00 1.270781e+01 8.000000e+00
    endloop
  endfacet
  facet normal 0.000000e+00 0.000000e+00 1.000000e+00
    outer loop
      vertex 9.172110e+00 1.149567e+01 8.000000e+00
      vertex 3.795555e+00 9.064570e+00 8.000000e+00
      vertex 9.629170e+00 1.020962e+01 8.000000e+00
    endloop
  endfacet
  facet normal 0.000000e+00 0.000000e+00 1.000000e+00
    outer loop
      vertex 4.600650e+00 1.639051e+01 8.000000e+00
      vertex 1.000000e+00 1.270781e+01 8.000000e+00
      vertex 2.242640e+00 1.175430e+01 8.000000e+00
    endloop
  endfacet
  facet normal 0.000000e+00 0.000000e+00 1.000000e+00
    outer loop
      vertex 4.600650e+00 1.639051e+01 8.000000e+00
      vertex 3.348796e+00 1.693427e+01 8.000000e+00
      vertex 1.000000e+00 1.270781e+01 8.000000e+00
    endloop
  endfacet
  facet normal 0.000000e+00 0.000000e+00 1.000000e+00
    outer loop
      vertex 8.544190e+00 1.270750e+01 8.000000e+00
      vertex 3.196152e+00 1.051166e+01 8.000000e+00
      vertex 3.795555e+00 9.064570e+00 8.000000e+00
    endloop
  endfacet
  facet normal 0.000000e+00 0.000000e+00 1.000000e+00
    outer loop
      vertex 8.544190e+00 1.270750e+01 8.000000e+00
      vertex 3.795555e+00 9.064570e+00 8.000000e+00
      vertex 9.172110e+00 1.149567e+01 8.000000e+00
    endloop
  endfacet
  facet normal 0.000000e+00 0.000000e+00 1.000000e+00
    outer loop
      vertex 5.766803e+00 1.568135e+01 8.000000e+00
      vertex 4.600650e+00 1.639051e+01 8.000000e+00
      vertex 2.242640e+00 1.175430e+01 8.000000e+00
    endloop
  endfacet
  facet normal 0.000000e+00 0.000000e+00 1.000000e+00
    outer loop
      vertex 7.757113e+00 1.382254e+01 8.000000e+00
      vertex 3.196152e+00 1.051166e+01 8.000000e+00
      vertex 8.544190e+00 1.270750e+01 8.000000e+00
    endloop
  endfacet
  facet normal 0.000000e+00 0.000000e+00 1.000000e+00
    outer loop
      vertex 6.825531e+00 1.482002e+01 8.000000e+00
      vertex 2.242640e+00 1.175430e+01 8.000000e+00
      vertex 3.196152e+00 1.051166e+01 8.000000e+00
    endloop
  endfacet
  facet normal 0.000000e+00 0.000000e+00 1.000000e+00
    outer loop
      vertex 6.825531e+00 1.482002e+01 8.000000e+00
      vertex 5.766803e+00 1.568135e+01 8.000000e+00
      vertex 2.242640e+00 1.175430e+01 8.000000e+00
    endloop
  endfacet
  facet normal 0.000000e+00 0.000000e+00 1.000000e+00
    outer loop
      vertex 6.825531e+00 1.482002e+01 8.000000e+00
      vertex 3.196152e+00 1.051166e+01 8.000000e+00
      vertex 7.757113e+00 1.382254e+01 8.000000e+00
    endloop
  endfacet
  facet normal 0.000000e+00 0.000000e+00 1.000000e+00
    outer loop
      vertex 2.000000e+00 3.039520e+00 8.000000e+00
      vertex 2.000000e+00 -2.238965e+00 8.000000e+00
      vertex 3.046359e+00 -2.013032e+00 8.000000e+00
    endloop
  endfacet
  facet normal -7.642682e-01 6.448985e-01 0.000000e+00
    outer loop
      vertex 3.081259e+00 4.320918e+00 0.000000e+00
      vertex 2.000000e+00 3.039520e+00 0.000000e+00
      vertex 3.081259e+00 4.320918e+00 8.000000e+00
    endloop
  endfacet
  facet normal 7.933533e-01 -6.087614e-01 0.000000e+00
    outer loop
      vertex -7.196152e+00 1.051166e+01 0.000000e+00
      vertex -6.242640e+00 1.175430e+01 0.000000e+00
      vertex -7.196152e+00 1.051166e+01 8.000000e+00
    endloop
  endfacet
  facet normal -7.642682e-01 6.448985e-01 0.000000e+00
    outer loop
      vertex 2.000000e+00 3.039520e+00 0.000000e+00
      vertex 2.000000e+00 3.039520e+00 8.000000e+00
      vertex 3.081259e+00 4.320918e+00 8.000000e+00
    endloop
  endfacet
  facet normal 7.933533e-01 -6.087614e-01 0.000000e+00
    outer loop
      vertex -6.242640e+00 1.175430e+01 0.000000e+00
      vertex -6.242640e+00 1.175430e+01 8.000000e+00
      vertex -7.196152e+00 1.051166e+01 8.000000e+00
    endloop
  endfacet
  facet normal -9.128709e-01 4.082484e-01 0.000000e+00
    outer loop
      vertex 3.081259e+00 4.320918e+00 0.000000e+00
      vertex 3.081259e+00 4.320918e+00 8.000000e+00
      vertex 3.765742e+00 5.851468e+00 0.000000e+00
    endloop
  endfacet
  facet normal -9.128709e-01 4.082484e-01 0.000000e+00
    outer loop
      vertex 3.765742e+00 5.851468e+00 0.000000e+00
      vertex 3.081259e+00 4.320918e+00 8.000000e+00
      vertex 3.765742e+00 5.851468e+00 8.000000e+00
    endloop
  endfacet
  facet normal 9.238795e-01 -3.826837e-01 0.000000e+00
    outer loop
      vertex -7.795555e+00 9.064570e+00 0.000000e+00
      vertex -7.196152e+00 1.051166e+01 0.000000e+00
      vertex -7.795555e+00 9.064570e+00 8.000000e+00
    endloop
  endfacet
  facet normal -9.914449e-01 -1.305261e-01 0.000000e+00
    outer loop
      vertex 3.795555e+00 9.064570e+00 0.000000e+00
      vertex 4.000000e+00 7.511656e+00 0.000000e+00
      vertex 3.795555e+00 9.064570e+00 8.000000e+00
    endloop
  endfacet
  facet normal 9.238795e-01 -3.826837e-01 0.000000e+00
    outer loop
      vertex -7.196152e+00 1.051166e+01 0.000000e+00
      vertex -7.196152e+00 1.051166e+01 8.000000e+00
      vertex -7.795555e+00 9.064570e+00 8.000000e+00
    endloop
  endfacet
  facet normal -9.914449e-01 -1.305261e-01 0.000000e+00
    outer loop
      vertex 4.000000e+00 7.511656e+00 0.000000e+00
      vertex 4.000000e+00 7.511656e+00 8.000000e+00
      vertex 3.795555e+00 9.064570e+00 8.000000e+00
    endloop
  endfacet
  facet normal -9.901912e-01 1.397194e-01 0.000000e+00
    outer loop
      vertex 4.000000e+00 7.511656e+00 0.000000e+00
      vertex 3.765742e+00 5.851468e+00 0.000000e+00
      vertex 4.000000e+00 7.511656e+00 8.000000e+00
    endloop
  endfacet
  facet normal -9.901912e-01 1.397194e-01 0.000000e+00
    outer loop
      vertex 3.765742e+00 5.851468e+00 0.000000e+00
      vertex 3.765742e+00 5.851468e+00 8.000000e+00
      vertex 4.000000e+00 7.511656e+00 8.000000e+00
    endloop
  endfacet
  facet normal 9.914449e-01 -1.305261e-01 0.000000e+00
    outer loop
      vertex -7.795555e+00 9.064570e+00 0.000000e+00
      vertex -7.795555e+00 9.064570e+00 8.000000e+00
      vertex -8.000000e+00 7.511656e+00 0.000000e+00
    endloop
  endfacet
  facet normal -9.238795e-01 -3.826837e-01 0.000000e+00
    outer loop
      vertex 3.196152e+00 1.051166e+01 0.000000e+00
      vertex 3.795555e+00 9.064570e+00 0.000000e+00
      vertex 3.196152e+00 1.051166e+01 8.000000e+00
    endloop
  endfacet
  facet normal 9.914449e-01 -1.305261e-01 0.000000e+00
    outer loop
      vertex -8.000000e+00 7.511656e+00 0.000000e+00
      vertex -7.795555e+00 9.064570e+00 8.000000e+00
      vertex -8.000000e+00 7.511656e+00 8.000000e+00
    endloop
  endfacet
  facet normal -9.238795e-01 -3.826837e-01 0.000000e+00
    outer loop
      vertex 3.795555e+00 9.064570e+00 0.000000e+00
      vertex 3.795555e+00 9.064570e+00 8.000000e+00
      vertex 3.196152e+00 1.051166e+01 8.000000e+00
    endloop
  endfacet
  facet normal 9.918438e-01 1.274591e-01 0.000000e+00
    outer loop
      vertex -8.000000e+00 7.511656e+00 0.000000e+00
      vertex -8.000000e+00 7.511656e+00 8.000000e+00
      vertex -7.805050e+00 5.994620e+00 0.000000e+00
    endloop
  endfacet
  facet normal 9.918438e-01 1.274591e-01 0.000000e+00
    outer loop
      vertex -7.805050e+00 5.994620e+00 0.000000e+00
      vertex -8.000000e+00 7.511656e+00 8.000000e+00
      vertex -7.805050e+00 5.994620e+00 8.000000e+00
    endloop
  endfacet
  facet normal -7.933533e-01 -6.087614e-01 0.000000e+00
    outer loop
      vertex 2.242640e+00 1.175430e+01 0.000000e+00
      vertex 3.196152e+00 1.051166e+01 0.000000e+00
      vertex 2.242640e+00 1.175430e+01 8.000000e+00
    endloop
  endfacet
  facet normal 9.273904e-01 3.740949e-01 0.000000e+00
    outer loop
      vertex -7.805050e+00 5.994620e+00 0.000000e+00
      vertex -7.805050e+00 5.994620e+00 8.000000e+00
      vertex -7.232868e+00 4.576167e+00 0.000000e+00
    endloop
  endfacet
  facet normal -7.933533e-01 -6.087614e-01 0.000000e+00
    outer loop
      vertex 3.196152e+00 1.051166e+01 0.000000e+00
      vertex 3.196152e+00 1.051166e+01 8.000000e+00
      vertex 2.242640e+00 1.175430e+01 8.000000e+00
    endloop
  endfacet
  facet normal 9.273904e-01 3.740949e-01 0.000000e+00
    outer loop
      vertex -7.232868e+00 4.576167e+00 0.000000e+00
      vertex -7.805050e+00 5.994620e+00 8.000000e+00
      vertex -7.232868e+00 4.576167e+00 8.000000e+00
    endloop
  endfacet
  facet normal 8.026719e-01 5.964208e-01 0.000000e+00
    outer loop
      vertex -7.232868e+00 4.576167e+00 0.000000e+00
      vertex -7.232868e+00 4.576167e+00 8.000000e+00
      vertex -6.320636e+00 3.348471e+00 0.000000e+00
    endloop
  endfacet
  facet normal -6.087614e-01 -7.933533e-01 0.000000e+00
    outer loop
      vertex 1.000000e+00 1.270781e+01 0.000000e+00
      vertex 2.242640e+00 1.175430e+01 0.000000e+00
      vertex 1.000000e+00 1.270781e+01 8.000000e+00
    endloop
  endfacet
  facet normal 8.026719e-01 5.964208e-01 0.000000e+00
    outer loop
      vertex -6.320636e+00 3.348471e+00 0.000000e+00
      vertex -7.232868e+00 4.576167e+00 8.000000e+00
      vertex -6.320636e+00 3.348471e+00 8.000000e+00
    endloop
  endfacet
  facet normal -6.087614e-01 -7.933533e-01 0.000000e+00
    outer loop
      vertex 2.242640e+00 1.175430e+01 0.000000e+00
      vertex 2.242640e+00 1.175430e+01 8.000000e+00
      vertex 1.000000e+00 1.270781e+01 8.000000e+00
    endloop
  endfacet
  facet normal 6.257933e-01 7.799890e-01 0.000000e+00
    outer loop
      vertex -6.320636e+00 3.348471e+00 0.000000e+00
      vertex -6.320636e+00 3.348471e+00 8.000000e+00
      vertex -5.127634e+00 2.391315e+00 0.000000e+00
    endloop
  endfacet
  facet normal -3.826837e-01 -9.238795e-01 0.000000e+00
    outer loop
      vertex -4.470860e-01 1.330721e+01 0.000000e+00
      vertex 1.000000e+00 1.270781e+01 0.000000e+00
      vertex -4.470860e-01 1.330721e+01 8.000000e+00
    endloop
  endfacet
  facet normal 6.257933e-01 7.799890e-01 0.000000e+00
    outer loop
      vertex -5.127634e+00 2.391315e+00 0.000000e+00
      vertex -6.320636e+00 3.348471e+00 8.000000e+00
      vertex -5.127634e+00 2.391315e+00 8.000000e+00
    endloop
  endfacet
  facet normal -3.826837e-01 -9.238795e-01 0.000000e+00
    outer loop
      vertex 1.000000e+00 1.270781e+01 0.000000e+00
      vertex 1.000000e+00 1.270781e+01 8.000000e+00
      vertex -4.470860e-01 1.330721e+01 8.000000e+00
    endloop
  endfacet
  facet normal 4.082483e-01 9.128709e-01 0.000000e+00
    outer loop
      vertex -5.127634e+00 2.391315e+00 0.000000e+00
      vertex -5.127634e+00 2.391315e+00 8.000000e+00
      vertex -3.731388e+00 1.766894e+00 0.000000e+00
    endloop
  endfacet
  facet normal 4.082483e-01 9.128709e-01 0.000000e+00
    outer loop
      vertex -3.731388e+00 1.766894e+00 0.000000e+00
      vertex -5.127634e+00 2.391315e+00 8.000000e+00
      vertex -3.731388e+00 1.766894e+00 8.000000e+00
    endloop
  endfacet
  facet normal -1.305261e-01 -9.914449e-01 0.000000e+00
    outer loop
      vertex -2.000000e+00 1.351166e+01 0.000000e+00
      vertex -4.470860e-01 1.330721e+01 0.000000e+00
      vertex -2.000000e+00 1.351166e+01 8.000000e+00
    endloop
  endfacet
  facet normal -1.305261e-01 -9.914449e-01 0.000000e+00
    outer loop
      vertex -4.470860e-01 1.330721e+01 0.000000e+00
      vertex -4.470860e-01 1.330721e+01 8.000000e+00
      vertex -2.000000e+00 1.351166e+01 8.000000e+00
    endloop
  endfacet
  facet normal 1.641739e-01 9.864314e-01 0.000000e+00
    outer loop
      vertex -3.731388e+00 1.766894e+00 0.000000e+00
      vertex -3.731388e+00 1.766894e+00 8.000000e+00
      vertex -2.222631e+00 1.515788e+00 0.000000e+00
    endloop
  endfacet
  facet normal 1.641739e-01 9.864314e-01 0.000000e+00
    outer loop
      vertex -2.222631e+00 1.515788e+00 0.000000e+00
      vertex -3.731388e+00 1.766894e+00 8.000000e+00
      vertex -2.222631e+00 1.515788e+00 8.000000e+00
    endloop
  endfacet
  facet normal 1.305261e-01 -9.914449e-01 0.000000e+00
    outer loop
      vertex -3.552914e+00 1.330721e+01 0.000000e+00
      vertex -2.000000e+00 1.351166e+01 0.000000e+00
      vertex -3.552914e+00 1.330721e+01 8.000000e+00
    endloop
  endfacet
  facet normal -9.056880e-02 9.958902e-01 0.000000e+00
    outer loop
      vertex -2.222631e+00 1.515788e+00 0.000000e+00
      vertex -2.222631e+00 1.515788e+00 8.000000e+00
      vertex -6.994060e-01 1.654315e+00 0.000000e+00
    endloop
  endfacet
  facet normal 1.305261e-01 -9.914449e-01 0.000000e+00
    outer loop
      vertex -2.000000e+00 1.351166e+01 0.000000e+00
      vertex -2.000000e+00 1.351166e+01 8.000000e+00
      vertex -3.552914e+00 1.330721e+01 8.000000e+00
    endloop
  endfacet
  facet normal -9.056880e-02 9.958902e-01 0.000000e+00
    outer loop
      vertex -6.994060e-01 1.654315e+00 0.000000e+00
      vertex -2.222631e+00 1.515788e+00 8.000000e+00
      vertex -6.994060e-01 1.654315e+00 8.000000e+00
    endloop
  endfacet
  facet normal 3.826837e-01 -9.238795e-01 0.000000e+00
    outer loop
      vertex -3.552914e+00 1.330721e+01 0.000000e+00
      vertex -3.552914e+00 1.330721e+01 8.000000e+00
      vertex -5.000000e+00 1.270781e+01 0.000000e+00
    endloop
  endfacet
  facet normal -3.394265e-01 9.406326e-01 0.000000e+00
    outer loop
      vertex -6.994060e-01 1.654315e+00 0.000000e+00
      vertex -6.994060e-01 1.654315e+00 8.000000e+00
      vertex 7.393010e-01 2.173470e+00 0.000000e+00
    endloop
  endfacet
  facet normal -3.394265e-01 9.406326e-01 0.000000e+00
    outer loop
      vertex 7.393010e-01 2.173470e+00 0.000000e+00
      vertex -6.994060e-01 1.654315e+00 8.000000e+00
      vertex 7.393010e-01 2.173470e+00 8.000000e+00
    endloop
  endfacet
  facet normal 3.826837e-01 -9.238795e-01 0.000000e+00
    outer loop
      vertex -5.000000e+00 1.270781e+01 0.000000e+00
      vertex -3.552914e+00 1.330721e+01 8.000000e+00
      vertex -5.000000e+00 1.270781e+01 8.000000e+00
    endloop
  endfacet
  facet normal 6.087614e-01 -7.933533e-01 0.000000e+00
    outer loop
      vertex -6.242640e+00 1.175430e+01 0.000000e+00
      vertex -5.000000e+00 1.270781e+01 0.000000e+00
      vertex -6.242640e+00 1.175430e+01 8.000000e+00
    endloop
  endfacet
  facet normal -5.662267e-01 8.242496e-01 0.000000e+00
    outer loop
      vertex 2.000000e+00 3.039520e+00 0.000000e+00
      vertex 7.393010e-01 2.173470e+00 0.000000e+00
      vertex 2.000000e+00 3.039520e+00 8.000000e+00
    endloop
  endfacet
  facet normal -5.662267e-01 8.242496e-01 0.000000e+00
    outer loop
      vertex 7.393010e-01 2.173470e+00 0.000000e+00
      vertex 7.393010e-01 2.173470e+00 8.000000e+00
      vertex 2.000000e+00 3.039520e+00 8.000000e+00
    endloop
  endfacet
  facet normal 6.087614e-01 -7.933533e-01 0.000000e+00
    outer loop
      vertex -5.000000e+00 1.270781e+01 0.000000e+00
      vertex -5.000000e+00 1.270781e+01 8.000000e+00
      vertex -6.242640e+00 1.175430e+01 8.000000e+00
    endloop
  endfacet
  facet normal 0.000000e+00 0.000000e+00 -1.000000e+00
    outer loop
      vertex -1.000000e+01 7.511656e+00 0.000000e+00
      vertex -9.906859e+00 8.873322e+00 0.000000e+00
      vertex -8.000000e+00 7.511656e+00 0.000000e+00
    endloop
  endfacet
  facet normal 0.000000e+00 0.000000e+00 -1.000000e+00
    outer loop
      vertex 1.686090e+00 -2.345173e+00 0.000000e+00
      vertex 1.850830e+00 -2.126557e+00 0.000000e+00
      vertex 2.000000e+00 -2.238965e+00 0.000000e+00
    endloop
  endfacet
  facet normal 0.000000e+00 0.000000e+00 -1.000000e+00
    outer loop
      vertex 1.686090e+00 -2.345173e+00 0.000000e+00
      vertex 2.000000e+00 -2.238965e+00 0.000000e+00
      vertex 3.046359e+00 -2.013032e+00 0.000000e+00
    endloop
  endfacet
  facet normal 0.000000e+00 0.000000e+00 -1.000000e+00
    outer loop
      vertex -9.906859e+00 8.873322e+00 0.000000e+00
      vertex -9.629173e+00 1.020962e+01 0.000000e+00
      vertex -7.795555e+00 9.064570e+00 0.000000e+00
    endloop
  endfacet
  facet normal 0.000000e+00 0.000000e+00 -1.000000e+00
    outer loop
      vertex -8.000000e+00 7.511656e+00 0.000000e+00
      vertex -9.906859e+00 8.873322e+00 0.000000e+00
      vertex -7.795555e+00 9.064570e+00 0.000000e+00
    endloop
  endfacet
  facet normal 0.000000e+00 0.000000e+00 -1.000000e+00
    outer loop
      vertex -9.629173e+00 1.020962e+01 0.000000e+00
      vertex -9.172113e+00 1.149567e+01 0.000000e+00
      vertex -7.196152e+00 1.051166e+01 0.000000e+00
    endloop
  endfacet
  facet normal 0.000000e+00 0.000000e+00 -1.000000e+00
    outer loop
      vertex -7.795555e+00 9.064570e+00 0.000000e+00
      vertex -9.629173e+00 1.020962e+01 0.000000e+00
      vertex -7.196152e+00 1.051166e+01 0.000000e+00
    endloop
  endfacet
  facet normal 0.000000e+00 0.000000e+00 -1.000000e+00
    outer loop
      vertex -7.196152e+00 1.051166e+01 0.000000e+00
      vertex -9.172113e+00 1.149567e+01 0.000000e+00
      vertex -8.544194e+00 1.270750e+01 0.000000e+00
    endloop
  endfacet
  facet normal 0.000000e+00 0.000000e+00 -1.000000e+00
    outer loop
      vertex 4.346899e+00 -1.494146e+00 0.000000e+00
      vertex 3.046359e+00 -2.013032e+00 0.000000e+00
      vertex 2.000000e+00 3.039520e+00 0.000000e+00
    endloop
  endfacet
  facet normal 0.000000e+00 0.000000e+00 -1.000000e+00
    outer loop
      vertex 5.562212e+00 -7.986865e-01 0.000000e+00
      vertex 4.346899e+00 -1.494146e+00 0.000000e+00
      vertex 2.000000e+00 3.039520e+00 0.000000e+00
    endloop
  endfacet
  facet normal 0.000000e+00 0.000000e+00 -1.000000e+00
    outer loop
      vertex -7.196152e+00 1.051166e+01 0.000000e+00
      vertex -8.544194e+00 1.270750e+01 0.000000e+00
      vertex -6.242640e+00 1.175430e+01 0.000000e+00
    endloop
  endfacet
  facet normal 0.000000e+00 0.000000e+00 -1.000000e+00
    outer loop
      vertex -6.242640e+00 1.175430e+01 0.000000e+00
      vertex -8.544194e+00 1.270750e+01 0.000000e+00
      vertex -7.757113e+00 1.382254e+01 0.000000e+00
    endloop
  endfacet
  facet normal 0.000000e+00 0.000000e+00 -1.000000e+00
    outer loop
      vertex 5.562212e+00 -7.986865e-01 0.000000e+00
      vertex 2.000000e+00 3.039520e+00 0.000000e+00
      vertex 6.668469e+00 5.970907e-02 0.000000e+00
    endloop
  endfacet
  facet normal 0.000000e+00 0.000000e+00 -1.000000e+00
    outer loop
      vertex 6.668469e+00 5.970907e-02 0.000000e+00
      vertex 2.000000e+00 3.039520e+00 0.000000e+00
      vertex 3.081259e+00 4.320918e+00 0.000000e+00
    endloop
  endfacet
  facet normal 0.000000e+00 0.000000e+00 -1.000000e+00
    outer loop
      vertex -6.242640e+00 1.175430e+01 0.000000e+00
      vertex -7.757113e+00 1.382254e+01 0.000000e+00
      vertex -5.000000e+00 1.270781e+01 0.000000e+00
    endloop
  endfacet
  facet normal 0.000000e+00 0.000000e+00 -1.000000e+00
    outer loop
      vertex -5.000000e+00 1.270781e+01 0.000000e+00
      vertex -7.757113e+00 1.382254e+01 0.000000e+00
      vertex -6.825531e+00 1.482002e+01 0.000000e+00
    endloop
  endfacet
  facet normal 0.000000e+00 0.000000e+00 -1.000000e+00
    outer loop
      vertex 6.668469e+00 5.970907e-02 0.000000e+00
      vertex 3.081259e+00 4.320918e+00 0.000000e+00
      vertex 7.643981e+00 1.064211e+00 0.000000e+00
    endloop
  endfacet
  facet normal 0.000000e+00 0.000000e+00 -1.000000e+00
    outer loop
      vertex -3.552914e+00 1.330721e+01 0.000000e+00
      vertex -5.000000e+00 1.270781e+01 0.000000e+00
      vertex -5.766803e+00 1.568135e+01 0.000000e+00
    endloop
  endfacet
  facet normal 0.000000e+00 0.000000e+00 -1.000000e+00
    outer loop
      vertex -5.000000e+00 1.270781e+01 0.000000e+00
      vertex -6.825531e+00 1.482002e+01 0.000000e+00
      vertex -5.766803e+00 1.568135e+01 0.000000e+00
    endloop
  endfacet
  facet normal 0.000000e+00 0.000000e+00 -1.000000e+00
    outer loop
      vertex 7.643981e+00 1.064211e+00 0.000000e+00
      vertex 3.081259e+00 4.320918e+00 0.000000e+00
      vertex 8.469620e+00 2.195125e+00 0.000000e+00
    endloop
  endfacet
  facet normal 0.000000e+00 0.000000e+00 -1.000000e+00
    outer loop
      vertex 3.081259e+00 4.320918e+00 0.000000e+00
      vertex 3.765742e+00 5.851468e+00 0.000000e+00
      vertex 8.469620e+00 2.195125e+00 0.000000e+00
    endloop
  endfacet
  facet normal 0.000000e+00 0.000000e+00 -1.000000e+00
    outer loop
      vertex -3.552914e+00 1.330721e+01 0.000000e+00
      vertex -5.766803e+00 1.568135e+01 0.000000e+00
      vertex -4.600650e+00 1.639051e+01 0.000000e+00
    endloop
  endfacet
  facet normal 0.000000e+00 0.000000e+00 -1.000000e+00
    outer loop
      vertex 8.469620e+00 2.195125e+00 0.000000e+00
      vertex 3.765742e+00 5.851468e+00 0.000000e+00
      vertex 9.129200e+00 3.430277e+00 0.000000e+00
    endloop
  endfacet
  facet normal 0.000000e+00 0.000000e+00 -1.000000e+00
    outer loop
      vertex -2.000000e+00 1.351166e+01 0.000000e+00
      vertex -3.552914e+00 1.330721e+01 0.000000e+00
      vertex -3.348796e+00 1.693427e+01 0.000000e+00
    endloop
  endfacet
  facet normal 0.000000e+00 0.000000e+00 -1.000000e+00
    outer loop
      vertex -3.552914e+00 1.330721e+01 0.000000e+00
      vertex -4.600650e+00 1.639051e+01 0.000000e+00
      vertex -3.348796e+00 1.693427e+01 0.000000e+00
    endloop
  endfacet
  facet normal 0.000000e+00 0.000000e+00 -1.000000e+00
    outer loop
      vertex 9.129200e+00 3.430277e+00 0.000000e+00
      vertex 3.765742e+00 5.851468e+00 0.000000e+00
      vertex 9.609790e+00 4.745451e+00 0.000000e+00
    endloop
  endfacet
  facet normal 0.000000e+00 0.000000e+00 -1.000000e+00
    outer loop
      vertex -2.000000e+00 1.351166e+01 0.000000e+00
      vertex -3.348796e+00 1.693427e+01 0.000000e+00
      vertex -2.034560e+00 1.730250e+01 0.000000e+00
    endloop
  endfacet
  facet normal 0.000000e+00 0.000000e+00 -1.000000e+00
    outer loop
      vertex 3.765742e+00 5.851468e+00 0.000000e+00
      vertex 4.000000e+00 7.511656e+00 0.000000e+00
      vertex 9.901970e+00 6.114860e+00 0.000000e+00
    endloop
  endfacet
  facet normal 0.000000e+00 0.000000e+00 -1.000000e+00
    outer loop
      vertex 9.609790e+00 4.745451e+00 0.000000e+00
      vertex 3.765742e+00 5.851468e+00 0.000000e+00
      vertex 9.901970e+00 6.114860e+00 0.000000e+00
    endloop
  endfacet
  facet normal 0.000000e+00 0.000000e+00 -1.000000e+00
    outer loop
      vertex -2.000000e+00 1.351166e+01 0.000000e+00
      vertex -2.034560e+00 1.730250e+01 0.000000e+00
      vertex -6.824239e-01 1.748834e+01 0.000000e+00
    endloop
  endfacet
  facet normal 0.000000e+00 0.000000e+00 -1.000000e+00
    outer loop
      vertex -4.470860e-01 1.330721e+01 0.000000e+00
      vertex -2.000000e+00 1.351166e+01 0.000000e+00
      vertex -6.824239e-01 1.748834e+01 0.000000e+00
    endloop
  endfacet
  facet normal 0.000000e+00 0.000000e+00 -1.000000e+00
    outer loop
      vertex 9.901970e+00 6.114860e+00 0.000000e+00
      vertex 4.000000e+00 7.511656e+00 0.000000e+00
      vertex 1.000000e+01 7.511656e+00 0.000000e+00
    endloop
  endfacet
  facet normal 0.000000e+00 0.000000e+00 -1.000000e+00
    outer loop
      vertex -4.470860e-01 1.330721e+01 0.000000e+00
      vertex -6.824239e-01 1.748834e+01 0.000000e+00
      vertex 6.824241e-01 1.748834e+01 0.000000e+00
    endloop
  endfacet
  facet normal 0.000000e+00 0.000000e+00 -1.000000e+00
    outer loop
      vertex 4.000000e+00 7.511656e+00 0.000000e+00
      vertex 3.795555e+00 9.064570e+00 0.000000e+00
      vertex 9.906860e+00 8.873322e+00 0.000000e+00
    endloop
  endfacet
  facet normal 0.000000e+00 0.000000e+00 -1.000000e+00
    outer loop
      vertex 1.000000e+01 7.511656e+00 0.000000e+00
      vertex 4.000000e+00 7.511656e+00 0.000000e+00
      vertex 9.906860e+00 8.873322e+00 0.000000e+00
    endloop
  endfacet
  facet normal 0.000000e+00 0.000000e+00 -1.000000e+00
    outer loop
      vertex 1.000000e+00 1.270781e+01 0.000000e+00
      vertex -4.470860e-01 1.330721e+01 0.000000e+00
      vertex 2.034560e+00 1.730250e+01 0.000000e+00
    endloop
  endfacet
  facet normal 0.000000e+00 0.000000e+00 -1.000000e+00
    outer loop
      vertex -4.470860e-01 1.330721e+01 0.000000e+00
      vertex 6.824241e-01 1.748834e+01 0.000000e+00
      vertex 2.034560e+00 1.730250e+01 0.000000e+00
    endloop
  endfacet
  facet normal 0.000000e+00 0.000000e+00 -1.000000e+00
    outer loop
      vertex 9.906860e+00 8.873322e+00 0.000000e+00
      vertex 3.795555e+00 9.064570e+00 0.000000e+00
      vertex 9.629170e+00 1.020962e+01 0.000000e+00
    endloop
  endfacet
  facet normal 0.000000e+00 0.000000e+00 -1.000000e+00
    outer loop
      vertex 1.000000e+00 1.270781e+01 0.000000e+00
      vertex 2.034560e+00 1.730250e+01 0.000000e+00
      vertex 3.348796e+00 1.693427e+01 0.000000e+00
    endloop
  endfacet
  facet normal 0.000000e+00 0.000000e+00 -1.000000e+00
    outer loop
      vertex 9.629170e+00 1.020962e+01 0.000000e+00
      vertex 3.795555e+00 9.064570e+00 0.000000e+00
      vertex 9.172110e+00 1.149567e+01 0.000000e+00
    endloop
  endfacet
  facet normal 0.000000e+00 0.000000e+00 -1.000000e+00
    outer loop
      vertex 2.242640e+00 1.175430e+01 0.000000e+00
      vertex 1.000000e+00 1.270781e+01 0.000000e+00
      vertex 4.600650e+00 1.639051e+01 0.000000e+00
    endloop
  endfacet
  facet normal 0.000000e+00 0.000000e+00 -1.000000e+00
    outer loop
      vertex 1.000000e+00 1.270781e+01 0.000000e+00
      vertex 3.348796e+00 1.693427e+01 0.000000e+00
      vertex 4.600650e+00 1.639051e+01 0.000000e+00
    endloop
  endfacet
  facet normal 0.000000e+00 0.000000e+00 -1.000000e+00
    outer loop
      vertex 3.795555e+00 9.064570e+00 0.000000e+00
      vertex 3.196152e+00 1.051166e+01 0.000000e+00
      vertex 8.544190e+00 1.270750e+01 0.000000e+00
    endloop
  endfacet
  facet normal 0.000000e+00 0.000000e+00 -1.000000e+00
    outer loop
      vertex 9.172110e+00 1.149567e+01 0.000000e+00
      vertex 3.795555e+00 9.064570e+00 0.000000e+00
      vertex 8.544190e+00 1.270750e+01 0.000000e+00
    endloop
  endfacet
  facet normal 0.000000e+00 0.000000e+00 -1.000000e+00
    outer loop
      vertex 2.242640e+00 1.175430e+01 0.000000e+00
      vertex 4.600650e+00 1.639051e+01 0.000000e+00
      vertex 5.766803e+00 1.568135e+01 0.000000e+00
    endloop
  endfacet
  facet normal 0.000000e+00 0.000000e+00 -1.000000e+00
    outer loop
      vertex 8.544190e+00 1.270750e+01 0.000000e+00
      vertex 3.196152e+00 1.051166e+01 0.000000e+00
      vertex 7.757113e+00 1.382254e+01 0.000000e+00
    endloop
  endfacet
  facet normal 0.000000e+00 0.000000e+00 -1.000000e+00
    outer loop
      vertex 3.196152e+00 1.051166e+01 0.000000e+00
      vertex 2.242640e+00 1.175430e+01 0.000000e+00
      vertex 6.825531e+00 1.482002e+01 0.000000e+00
    endloop
  endfacet
  facet normal 0.000000e+00 0.000000e+00 -1.000000e+00
    outer loop
      vertex 2.242640e+00 1.175430e+01 0.000000e+00
      vertex 5.766803e+00 1.568135e+01 0.000000e+00
      vertex 6.825531e+00 1.482002e+01 0.000000e+00
    endloop
  endfacet
  facet normal 0.000000e+00 0.000000e+00 -1.000000e+00
    outer loop
      vertex 7.757113e+00 1.382254e+01 0.000000e+00
      vertex 3.196152e+00 1.051166e+01 0.000000e+00
      vertex 6.825531e+00 1.482002e+01 0.000000e+00
    endloop
  endfacet
  facet normal 0.000000e+00 0.000000e+00 -1.000000e+00
    outer loop
      vertex 3.046359e+00 -2.013032e+00 0.000000e+00
      vertex 2.000000e+00 -2.238965e+00 0.000000e+00
      vertex 2.000000e+00 3.039520e+00 0.000000e+00
    endloop
  endfacet
endsolid Default
