solid ascii
  facet normal 9.700313e-001 -2.429802e-001 -1.209734e-016
    outer loop
      vertex   1.674646e+001 -5.079982e+000 0.000000e+000
      vertex   1.716374e+001 -3.414081e+000 0.000000e+000
      vertex   1.716374e+001 -3.414081e+000 2.000000e+001
    endloop
  endfacet
  facet normal 9.700313e-001 -2.429802e-001 -1.306856e-017
    outer loop
      vertex   1.674646e+001 -5.079982e+000 2.000000e+001
      vertex   1.674646e+001 -5.079982e+000 0.000000e+000
      vertex   1.716374e+001 -3.414081e+000 2.000000e+001
    endloop
  endfacet
  facet normal 9.415441e-001 -3.368899e-001 7.575791e-017
    outer loop
      vertex   1.674646e+001 -5.079982e+000 2.000000e+001
      vertex   1.616789e+001 -6.696960e+000 2.000000e+001
      vertex   1.674646e+001 -5.079982e+000 0.000000e+000
    endloop
  endfacet
  facet normal 9.415441e-001 -3.368899e-001 8.247905e-017
    outer loop
      vertex   1.674646e+001 -5.079982e+000 0.000000e+000
      vertex   1.616789e+001 -6.696960e+000 2.000000e+001
      vertex   1.616789e+001 -6.696960e+000 0.000000e+000
    endloop
  endfacet
  facet normal 9.039893e-001 -4.275551e-001 1.369778e-016
    outer loop
      vertex   1.616789e+001 -6.696960e+000 0.000000e+000
      vertex   1.616789e+001 -6.696960e+000 2.000000e+001
      vertex   1.543362e+001 -8.249443e+000 2.000000e+001
    endloop
  endfacet
  facet normal 8.577286e-001 -5.141027e-001 -4.776183e-017
    outer loop
      vertex   1.543362e+001 -8.249443e+000 0.000000e+000
      vertex   1.543362e+001 -8.249443e+000 2.000000e+001
      vertex   1.455072e+001 -9.722479e+000 2.000000e+001
    endloop
  endfacet
  facet normal 8.032075e-001 -5.956993e-001 0.000000e+000
    outer loop
      vertex   1.455072e+001 -9.722479e+000 0.000000e+000
      vertex   1.455072e+001 -9.722479e+000 2.000000e+001
      vertex   1.352768e+001 -1.110188e+001 2.000000e+001
    endloop
  endfacet
  facet normal 7.409511e-001 -6.715590e-001 8.996618e-017
    outer loop
      vertex   1.352768e+001 -1.110188e+001 0.000000e+000
      vertex   1.352768e+001 -1.110188e+001 2.000000e+001
      vertex   1.237437e+001 -1.237437e+001 0.000000e+000
    endloop
  endfacet
  facet normal 8.032075e-001 -5.956993e-001 1.111116e-016
    outer loop
      vertex   1.352768e+001 -1.110188e+001 0.000000e+000
      vertex   1.455072e+001 -9.722479e+000 0.000000e+000
      vertex   1.352768e+001 -1.110188e+001 2.000000e+001
    endloop
  endfacet
  facet normal 9.891765e-001 -1.467305e-001 -1.221777e-017
    outer loop
      vertex   1.716374e+001 -3.414081e+000 2.000000e+001
      vertex   1.741573e+001 -1.715300e+000 0.000000e+000
      vertex   1.741573e+001 -1.715300e+000 2.000000e+001
    endloop
  endfacet
  facet normal 9.891765e-001 -1.467305e-001 -1.626251e-016
    outer loop
      vertex   1.716374e+001 -3.414081e+000 2.000000e+001
      vertex   1.716374e+001 -3.414081e+000 0.000000e+000
      vertex   1.741573e+001 -1.715300e+000 0.000000e+000
    endloop
  endfacet
  facet normal 7.409511e-001 -6.715590e-001 6.685394e-017
    outer loop
      vertex   1.352768e+001 -1.110188e+001 2.000000e+001
      vertex   1.237437e+001 -1.237437e+001 2.000000e+001
      vertex   1.237437e+001 -1.237437e+001 0.000000e+000
    endloop
  endfacet
  facet normal 6.715590e-001 -7.409511e-001 8.996618e-017
    outer loop
      vertex   1.237437e+001 -1.237437e+001 0.000000e+000
      vertex   1.237437e+001 -1.237437e+001 2.000000e+001
      vertex   1.110188e+001 -1.352768e+001 2.000000e+001
    endloop
  endfacet
  facet normal 5.956993e-001 -8.032075e-001 2.601626e-017
    outer loop
      vertex   1.110188e+001 -1.352768e+001 0.000000e+000
      vertex   1.110188e+001 -1.352768e+001 2.000000e+001
      vertex   9.722479e+000 -1.455072e+001 2.000000e+001
    endloop
  endfacet
  facet normal 5.141027e-001 -8.577286e-001 -9.315036e-018
    outer loop
      vertex   9.722479e+000 -1.455072e+001 0.000000e+000
      vertex   9.722479e+000 -1.455072e+001 2.000000e+001
      vertex   8.249443e+000 -1.543362e+001 2.000000e+001
    endloop
  endfacet
  facet normal 4.275551e-001 -9.039893e-001 -7.120223e-017
    outer loop
      vertex   8.249443e+000 -1.543362e+001 0.000000e+000
      vertex   8.249443e+000 -1.543362e+001 2.000000e+001
      vertex   6.696960e+000 -1.616789e+001 2.000000e+001
    endloop
  endfacet
  facet normal 3.368899e-001 -9.415441e-001 -8.583125e-017
    outer loop
      vertex   6.696960e+000 -1.616789e+001 0.000000e+000
      vertex   6.696960e+000 -1.616789e+001 2.000000e+001
      vertex   5.079982e+000 -1.674646e+001 0.000000e+000
    endloop
  endfacet
  facet normal 4.275551e-001 -9.039893e-001 -7.575791e-017
    outer loop
      vertex   6.696960e+000 -1.616789e+001 0.000000e+000
      vertex   8.249443e+000 -1.543362e+001 0.000000e+000
      vertex   6.696960e+000 -1.616789e+001 2.000000e+001
    endloop
  endfacet
  facet normal 3.368899e-001 -9.415441e-001 -2.205334e-017
    outer loop
      vertex   6.696960e+000 -1.616789e+001 2.000000e+001
      vertex   5.079982e+000 -1.674646e+001 2.000000e+001
      vertex   5.079982e+000 -1.674646e+001 0.000000e+000
    endloop
  endfacet
  facet normal 2.429802e-001 -9.700313e-001 -8.050911e-017
    outer loop
      vertex   5.079982e+000 -1.674646e+001 0.000000e+000
      vertex   5.079982e+000 -1.674646e+001 2.000000e+001
      vertex   3.414081e+000 -1.716374e+001 2.000000e+001
    endloop
  endfacet
  facet normal 1.467305e-001 -9.891765e-001 0.000000e+000
    outer loop
      vertex   3.414081e+000 -1.716374e+001 0.000000e+000
      vertex   3.414081e+000 -1.716374e+001 2.000000e+001
      vertex   1.715300e+000 -1.741573e+001 2.000000e+001
    endloop
  endfacet
  facet normal 4.906767e-002 -9.987955e-001 8.092674e-017
    outer loop
      vertex   1.715300e+000 -1.741573e+001 0.000000e+000
      vertex   1.715300e+000 -1.741573e+001 2.000000e+001
      vertex   1.071531e-015 -1.750000e+001 2.000000e+001
    endloop
  endfacet
  facet normal -4.906767e-002 -9.987955e-001 1.051550e-017
    outer loop
      vertex   -3.214592e-015 -1.750000e+001 0.000000e+000
      vertex   1.071531e-015 -1.750000e+001 2.000000e+001
      vertex   -1.715300e+000 -1.741573e+001 2.000000e+001
    endloop
  endfacet
  facet normal -1.467305e-001 -9.891765e-001 -2.443553e-017
    outer loop
      vertex   -1.715300e+000 -1.741573e+001 0.000000e+000
      vertex   -1.715300e+000 -1.741573e+001 2.000000e+001
      vertex   -3.414081e+000 -1.716374e+001 0.000000e+000
    endloop
  endfacet
  facet normal -4.906767e-002 -9.987955e-001 -8.207107e-018
    outer loop
      vertex   -1.715300e+000 -1.741573e+001 0.000000e+000
      vertex   -3.214592e-015 -1.750000e+001 0.000000e+000
      vertex   -1.715300e+000 -1.741573e+001 2.000000e+001
    endloop
  endfacet
  facet normal -1.467305e-001 -9.891765e-001 -1.626251e-016
    outer loop
      vertex   -1.715300e+000 -1.741573e+001 2.000000e+001
      vertex   -3.414081e+000 -1.716374e+001 2.000000e+001
      vertex   -3.414081e+000 -1.716374e+001 0.000000e+000
    endloop
  endfacet
  facet normal -2.429802e-001 -9.700313e-001 -1.209734e-016
    outer loop
      vertex   -3.414081e+000 -1.716374e+001 0.000000e+000
      vertex   -3.414081e+000 -1.716374e+001 2.000000e+001
      vertex   -5.079982e+000 -1.674646e+001 2.000000e+001
    endloop
  endfacet
  facet normal -3.368899e-001 -9.415441e-001 1.088547e-016
    outer loop
      vertex   -5.079982e+000 -1.674646e+001 0.000000e+000
      vertex   -5.079982e+000 -1.674646e+001 2.000000e+001
      vertex   -6.696960e+000 -1.616789e+001 2.000000e+001
    endloop
  endfacet
  facet normal -4.275551e-001 -9.039893e-001 8.950963e-017
    outer loop
      vertex   -6.696960e+000 -1.616789e+001 0.000000e+000
      vertex   -6.696960e+000 -1.616789e+001 2.000000e+001
      vertex   -8.249443e+000 -1.543362e+001 2.000000e+001
    endloop
  endfacet
  facet normal -5.141027e-001 -8.577286e-001 5.707687e-017
    outer loop
      vertex   -8.249443e+000 -1.543362e+001 0.000000e+000
      vertex   -8.249443e+000 -1.543362e+001 2.000000e+001
      vertex   -9.722479e+000 -1.455072e+001 2.000000e+001
    endloop
  endfacet
  facet normal -5.956993e-001 -8.032075e-001 -4.607608e-017
    outer loop
      vertex   -9.722479e+000 -1.455072e+001 0.000000e+000
      vertex   -9.722479e+000 -1.455072e+001 2.000000e+001
      vertex   -1.110188e+001 -1.352768e+001 0.000000e+000
    endloop
  endfacet
  facet normal -5.141027e-001 -8.577286e-001 -7.575791e-017
    outer loop
      vertex   -9.722479e+000 -1.455072e+001 0.000000e+000
      vertex   -8.249443e+000 -1.543362e+001 0.000000e+000
      vertex   -9.722479e+000 -1.455072e+001 2.000000e+001
    endloop
  endfacet
  facet normal -5.956993e-001 -8.032075e-001 -1.322718e-016
    outer loop
      vertex   -9.722479e+000 -1.455072e+001 2.000000e+001
      vertex   -1.110188e+001 -1.352768e+001 2.000000e+001
      vertex   -1.110188e+001 -1.352768e+001 0.000000e+000
    endloop
  endfacet
  facet normal -6.715590e-001 -7.409511e-001 -1.491160e-016
    outer loop
      vertex   -1.110188e+001 -1.352768e+001 0.000000e+000
      vertex   -1.110188e+001 -1.352768e+001 2.000000e+001
      vertex   -1.237437e+001 -1.237437e+001 2.000000e+001
    endloop
  endfacet
  facet normal -7.409511e-001 -6.715590e-001 1.645242e-016
    outer loop
      vertex   -1.237437e+001 -1.237437e+001 0.000000e+000
      vertex   -1.237437e+001 -1.237437e+001 2.000000e+001
      vertex   -1.352768e+001 -1.110188e+001 2.000000e+001
    endloop
  endfacet
  facet normal -8.032075e-001 -5.956993e-001 1.122120e-016
    outer loop
      vertex   -1.352768e+001 -1.110188e+001 0.000000e+000
      vertex   -1.352768e+001 -1.110188e+001 2.000000e+001
      vertex   -1.455072e+001 -9.722479e+000 2.000000e+001
    endloop
  endfacet
  facet normal -8.577286e-001 -5.141027e-001 -1.141537e-016
    outer loop
      vertex   -1.455072e+001 -9.722479e+000 0.000000e+000
      vertex   -1.455072e+001 -9.722479e+000 2.000000e+001
      vertex   -1.543362e+001 -8.249443e+000 2.000000e+001
    endloop
  endfacet
  facet normal -9.039893e-001 -4.275551e-001 -7.120223e-017
    outer loop
      vertex   -1.543362e+001 -8.249443e+000 0.000000e+000
      vertex   -1.543362e+001 -8.249443e+000 2.000000e+001
      vertex   -1.616789e+001 -6.696960e+000 0.000000e+000
    endloop
  endfacet
  facet normal -8.577286e-001 -5.141027e-001 -8.585897e-017
    outer loop
      vertex   -1.543362e+001 -8.249443e+000 0.000000e+000
      vertex   -1.455072e+001 -9.722479e+000 0.000000e+000
      vertex   -1.543362e+001 -8.249443e+000 2.000000e+001
    endloop
  endfacet
  facet normal -9.039893e-001 -4.275551e-001 -9.493630e-017
    outer loop
      vertex   -1.543362e+001 -8.249443e+000 2.000000e+001
      vertex   -1.616789e+001 -6.696960e+000 2.000000e+001
      vertex   -1.616789e+001 -6.696960e+000 0.000000e+000
    endloop
  endfacet
  facet normal -9.415441e-001 -3.368899e-001 -7.480457e-017
    outer loop
      vertex   -1.616789e+001 -6.696960e+000 0.000000e+000
      vertex   -1.616789e+001 -6.696960e+000 2.000000e+001
      vertex   -1.674646e+001 -5.079982e+000 2.000000e+001
    endloop
  endfacet
  facet normal -9.700313e-001 -2.429802e-001 -6.744055e-017
    outer loop
      vertex   -1.674646e+001 -5.079982e+000 0.000000e+000
      vertex   -1.674646e+001 -5.079982e+000 2.000000e+001
      vertex   -1.716374e+001 -3.414081e+000 2.000000e+001
    endloop
  endfacet
  facet normal -9.891765e-001 -1.467305e-001 -2.850812e-017
    outer loop
      vertex   -1.716374e+001 -3.414081e+000 0.000000e+000
      vertex   -1.716374e+001 -3.414081e+000 2.000000e+001
      vertex   -1.741573e+001 -1.715300e+000 2.000000e+001
    endloop
  endfacet
  facet normal -9.987955e-001 -4.906767e-002 1.006743e-016
    outer loop
      vertex   -1.741573e+001 -1.715300e+000 0.000000e+000
      vertex   -1.741573e+001 -1.715300e+000 2.000000e+001
      vertex   -1.750000e+001 2.143061e-015 0.000000e+000
    endloop
  endfacet
  facet normal -9.891765e-001 -1.467305e-001 7.828318e-017
    outer loop
      vertex   -1.741573e+001 -1.715300e+000 0.000000e+000
      vertex   -1.716374e+001 -3.414081e+000 0.000000e+000
      vertex   -1.741573e+001 -1.715300e+000 2.000000e+001
    endloop
  endfacet
  facet normal -9.987955e-001 -4.906767e-002 -1.051550e-017
    outer loop
      vertex   -1.741573e+001 -1.715300e+000 2.000000e+001
      vertex   -1.750000e+001 -2.143061e-015 2.000000e+001
      vertex   -1.750000e+001 2.143061e-015 0.000000e+000
    endloop
  endfacet
  facet normal -9.987955e-001 4.906767e-002 1.051550e-017
    outer loop
      vertex   -1.750000e+001 2.143061e-015 0.000000e+000
      vertex   -1.750000e+001 -2.143061e-015 2.000000e+001
      vertex   -1.741573e+001 1.715300e+000 0.000000e+000
    endloop
  endfacet
  facet normal -9.987955e-001 4.906767e-002 -1.003792e-016
    outer loop
      vertex   -1.741573e+001 1.715300e+000 0.000000e+000
      vertex   -1.750000e+001 -2.143061e-015 2.000000e+001
      vertex   -1.741573e+001 1.715300e+000 2.000000e+001
    endloop
  endfacet
  facet normal -9.891765e-001 1.467305e-001 -7.927624e-017
    outer loop
      vertex   -1.716374e+001 3.414081e+000 2.000000e+001
      vertex   -1.741573e+001 1.715300e+000 0.000000e+000
      vertex   -1.741573e+001 1.715300e+000 2.000000e+001
    endloop
  endfacet
  facet normal -9.891765e-001 1.467305e-001 2.850812e-017
    outer loop
      vertex   -1.716374e+001 3.414081e+000 2.000000e+001
      vertex   -1.716374e+001 3.414081e+000 0.000000e+000
      vertex   -1.741573e+001 1.715300e+000 0.000000e+000
    endloop
  endfacet
  facet normal -9.700313e-001 2.429802e-001 4.798001e-017
    outer loop
      vertex   -1.716374e+001 3.414081e+000 2.000000e+001
      vertex   -1.674646e+001 5.079982e+000 2.000000e+001
      vertex   -1.716374e+001 3.414081e+000 0.000000e+000
    endloop
  endfacet
  facet normal -9.700313e-001 2.429802e-001 6.744055e-017
    outer loop
      vertex   -1.716374e+001 3.414081e+000 0.000000e+000
      vertex   -1.674646e+001 5.079982e+000 2.000000e+001
      vertex   -1.674646e+001 5.079982e+000 0.000000e+000
    endloop
  endfacet
  facet normal -9.415441e-001 3.368899e-001 9.350572e-017
    outer loop
      vertex   -1.674646e+001 5.079982e+000 0.000000e+000
      vertex   -1.674646e+001 5.079982e+000 2.000000e+001
      vertex   -1.616789e+001 6.696960e+000 2.000000e+001
    endloop
  endfacet
  facet normal -9.039893e-001 4.275551e-001 9.493630e-017
    outer loop
      vertex   -1.616789e+001 6.696960e+000 0.000000e+000
      vertex   -1.616789e+001 6.696960e+000 2.000000e+001
      vertex   -1.543362e+001 8.249443e+000 0.000000e+000
    endloop
  endfacet
  facet normal -9.415441e-001 3.368899e-001 7.575791e-017
    outer loop
      vertex   -1.616789e+001 6.696960e+000 0.000000e+000
      vertex   -1.674646e+001 5.079982e+000 0.000000e+000
      vertex   -1.616789e+001 6.696960e+000 2.000000e+001
    endloop
  endfacet
  facet normal -9.039893e-001 4.275551e-001 7.120223e-017
    outer loop
      vertex   -1.616789e+001 6.696960e+000 2.000000e+001
      vertex   -1.543362e+001 8.249443e+000 2.000000e+001
      vertex   -1.543362e+001 8.249443e+000 0.000000e+000
    endloop
  endfacet
  facet normal -8.577286e-001 5.141027e-001 8.561531e-017
    outer loop
      vertex   -1.543362e+001 8.249443e+000 0.000000e+000
      vertex   -1.543362e+001 8.249443e+000 2.000000e+001
      vertex   -1.455072e+001 9.722479e+000 2.000000e+001
    endloop
  endfacet
  facet normal -8.032075e-001 5.956993e-001 1.322718e-016
    outer loop
      vertex   -1.455072e+001 9.722479e+000 0.000000e+000
      vertex   -1.455072e+001 9.722479e+000 2.000000e+001
      vertex   -1.352768e+001 1.110188e+001 2.000000e+001
    endloop
  endfacet
  facet normal -7.409511e-001 6.715590e-001 -8.996618e-017
    outer loop
      vertex   -1.352768e+001 1.110188e+001 0.000000e+000
      vertex   -1.352768e+001 1.110188e+001 2.000000e+001
      vertex   -1.237437e+001 1.237437e+001 2.000000e+001
    endloop
  endfacet
  facet normal -6.715590e-001 7.409511e-001 -1.491160e-016
    outer loop
      vertex   -1.237437e+001 1.237437e+001 0.000000e+000
      vertex   -1.237437e+001 1.237437e+001 2.000000e+001
      vertex   -1.110188e+001 1.352768e+001 2.000000e+001
    endloop
  endfacet
  facet normal -5.956993e-001 8.032075e-001 1.322718e-016
    outer loop
      vertex   -1.110188e+001 1.352768e+001 0.000000e+000
      vertex   -1.110188e+001 1.352768e+001 2.000000e+001
      vertex   -9.722479e+000 1.455072e+001 0.000000e+000
    endloop
  endfacet
  facet normal -6.715590e-001 7.409511e-001 1.515158e-016
    outer loop
      vertex   -1.110188e+001 1.352768e+001 0.000000e+000
      vertex   -1.237437e+001 1.237437e+001 0.000000e+000
      vertex   -1.110188e+001 1.352768e+001 2.000000e+001
    endloop
  endfacet
  facet normal -5.956993e-001 8.032075e-001 4.607608e-017
    outer loop
      vertex   -1.110188e+001 1.352768e+001 2.000000e+001
      vertex   -9.722479e+000 1.455072e+001 2.000000e+001
      vertex   -9.722479e+000 1.455072e+001 0.000000e+000
    endloop
  endfacet
  facet normal -5.141027e-001 8.577286e-001 7.630027e-017
    outer loop
      vertex   -9.722479e+000 1.455072e+001 0.000000e+000
      vertex   -9.722479e+000 1.455072e+001 2.000000e+001
      vertex   -8.249443e+000 1.543362e+001 2.000000e+001
    endloop
  endfacet
  facet normal -4.275551e-001 9.039893e-001 -4.746815e-017
    outer loop
      vertex   -8.249443e+000 1.543362e+001 0.000000e+000
      vertex   -8.249443e+000 1.543362e+001 2.000000e+001
      vertex   -6.696960e+000 1.616789e+001 2.000000e+001
    endloop
  endfacet
  facet normal -3.368899e-001 9.415441e-001 -4.507676e-017
    outer loop
      vertex   -6.696960e+000 1.616789e+001 0.000000e+000
      vertex   -6.696960e+000 1.616789e+001 2.000000e+001
      vertex   -5.079982e+000 1.674646e+001 2.000000e+001
    endloop
  endfacet
  facet normal -2.429802e-001 9.700313e-001 -1.390766e-017
    outer loop
      vertex   -5.079982e+000 1.674646e+001 0.000000e+000
      vertex   -5.079982e+000 1.674646e+001 2.000000e+001
      vertex   -3.414081e+000 1.716374e+001 2.000000e+001
    endloop
  endfacet
  facet normal -1.467305e-001 9.891765e-001 1.626251e-016
    outer loop
      vertex   -3.414081e+000 1.716374e+001 0.000000e+000
      vertex   -3.414081e+000 1.716374e+001 2.000000e+001
      vertex   -1.715300e+000 1.741573e+001 0.000000e+000
    endloop
  endfacet
  facet normal -2.429802e-001 9.700313e-001 1.212127e-016
    outer loop
      vertex   -3.414081e+000 1.716374e+001 0.000000e+000
      vertex   -5.079982e+000 1.674646e+001 0.000000e+000
      vertex   -3.414081e+000 1.716374e+001 2.000000e+001
    endloop
  endfacet
  facet normal -1.467305e-001 9.891765e-001 2.443553e-017
    outer loop
      vertex   -3.414081e+000 1.716374e+001 2.000000e+001
      vertex   -1.715300e+000 1.741573e+001 2.000000e+001
      vertex   -1.715300e+000 1.741573e+001 0.000000e+000
    endloop
  endfacet
  facet normal -4.906767e-002 9.987955e-001 8.171409e-018
    outer loop
      vertex   -1.715300e+000 1.741573e+001 0.000000e+000
      vertex   -1.715300e+000 1.741573e+001 2.000000e+001
      vertex   -3.214592e-015 1.750000e+001 2.000000e+001
    endloop
  endfacet
  facet normal 4.906767e-002 9.987955e-001 1.051550e-017
    outer loop
      vertex   1.071531e-015 1.750000e+001 0.000000e+000
      vertex   -3.214592e-015 1.750000e+001 2.000000e+001
      vertex   1.715300e+000 1.741573e+001 2.000000e+001
    endloop
  endfacet
  facet normal 1.467305e-001 9.891765e-001 -2.022370e-017
    outer loop
      vertex   1.715300e+000 1.741573e+001 0.000000e+000
      vertex   1.715300e+000 1.741573e+001 2.000000e+001
      vertex   3.414081e+000 1.716374e+001 2.000000e+001
    endloop
  endfacet
  facet normal 2.429802e-001 9.700313e-001 -0.000000e+000
    outer loop
      vertex   3.414081e+000 1.716374e+001 0.000000e+000
      vertex   3.414081e+000 1.716374e+001 2.000000e+001
      vertex   5.079982e+000 1.674646e+001 2.000000e+001
    endloop
  endfacet
  facet normal 3.368899e-001 9.415441e-001 2.205334e-017
    outer loop
      vertex   5.079982e+000 1.674646e+001 0.000000e+000
      vertex   5.079982e+000 1.674646e+001 2.000000e+001
      vertex   6.696960e+000 1.616789e+001 0.000000e+000
    endloop
  endfacet
  facet normal 2.429802e-001 9.700313e-001 8.080844e-017
    outer loop
      vertex   5.079982e+000 1.674646e+001 0.000000e+000
      vertex   3.414081e+000 1.716374e+001 0.000000e+000
      vertex   5.079982e+000 1.674646e+001 2.000000e+001
    endloop
  endfacet
  facet normal 3.368899e-001 9.415441e-001 8.583125e-017
    outer loop
      vertex   5.079982e+000 1.674646e+001 2.000000e+001
      vertex   6.696960e+000 1.616789e+001 2.000000e+001
      vertex   6.696960e+000 1.616789e+001 0.000000e+000
    endloop
  endfacet
  facet normal 4.275551e-001 9.039893e-001 7.662890e-017
    outer loop
      vertex   6.696960e+000 1.616789e+001 0.000000e+000
      vertex   6.696960e+000 1.616789e+001 2.000000e+001
      vertex   8.249443e+000 1.543362e+001 2.000000e+001
    endloop
  endfacet
  facet normal 5.141027e-001 8.577286e-001 8.561531e-017
    outer loop
      vertex   8.249443e+000 1.543362e+001 0.000000e+000
      vertex   8.249443e+000 1.543362e+001 2.000000e+001
      vertex   9.722479e+000 1.455072e+001 2.000000e+001
    endloop
  endfacet
  facet normal 5.956993e-001 8.032075e-001 5.312778e-017
    outer loop
      vertex   9.722479e+000 1.455072e+001 0.000000e+000
      vertex   9.722479e+000 1.455072e+001 2.000000e+001
      vertex   1.110188e+001 1.352768e+001 2.000000e+001
    endloop
  endfacet
  facet normal 6.715590e-001 7.409511e-001 4.374171e-017
    outer loop
      vertex   1.110188e+001 1.352768e+001 0.000000e+000
      vertex   1.110188e+001 1.352768e+001 2.000000e+001
      vertex   1.237437e+001 1.237437e+001 2.000000e+001
    endloop
  endfacet
  facet normal 7.409511e-001 6.715590e-001 -6.685394e-017
    outer loop
      vertex   1.237437e+001 1.237437e+001 0.000000e+000
      vertex   1.237437e+001 1.237437e+001 2.000000e+001
      vertex   1.352768e+001 1.110188e+001 0.000000e+000
    endloop
  endfacet
  facet normal 6.715590e-001 7.409511e-001 -9.090950e-017
    outer loop
      vertex   1.237437e+001 1.237437e+001 0.000000e+000
      vertex   1.110188e+001 1.352768e+001 0.000000e+000
      vertex   1.237437e+001 1.237437e+001 2.000000e+001
    endloop
  endfacet
  facet normal 7.409511e-001 6.715590e-001 -8.996618e-017
    outer loop
      vertex   1.237437e+001 1.237437e+001 2.000000e+001
      vertex   1.352768e+001 1.110188e+001 2.000000e+001
      vertex   1.352768e+001 1.110188e+001 0.000000e+000
    endloop
  endfacet
  facet normal 8.032075e-001 5.956993e-001 -1.122120e-016
    outer loop
      vertex   1.352768e+001 1.110188e+001 0.000000e+000
      vertex   1.352768e+001 1.110188e+001 2.000000e+001
      vertex   1.455072e+001 9.722479e+000 2.000000e+001
    endloop
  endfacet
  facet normal 8.577286e-001 5.141027e-001 -0.000000e+000
    outer loop
      vertex   1.455072e+001 9.722479e+000 0.000000e+000
      vertex   1.455072e+001 9.722479e+000 2.000000e+001
      vertex   1.543362e+001 8.249443e+000 2.000000e+001
    endloop
  endfacet
  facet normal 9.039893e-001 4.275551e-001 8.205557e-017
    outer loop
      vertex   1.543362e+001 8.249443e+000 0.000000e+000
      vertex   1.543362e+001 8.249443e+000 2.000000e+001
      vertex   1.616789e+001 6.696960e+000 2.000000e+001
    endloop
  endfacet
  facet normal 9.415441e-001 3.368899e-001 -8.247905e-017
    outer loop
      vertex   1.616789e+001 6.696960e+000 0.000000e+000
      vertex   1.616789e+001 6.696960e+000 2.000000e+001
      vertex   1.674646e+001 5.079982e+000 2.000000e+001
    endloop
  endfacet
  facet normal 9.700313e-001 2.429802e-001 1.306856e-017
    outer loop
      vertex   1.674646e+001 5.079982e+000 0.000000e+000
      vertex   1.674646e+001 5.079982e+000 2.000000e+001
      vertex   1.716374e+001 3.414081e+000 0.000000e+000
    endloop
  endfacet
  facet normal 9.415441e-001 3.368899e-001 -7.575791e-017
    outer loop
      vertex   1.674646e+001 5.079982e+000 0.000000e+000
      vertex   1.616789e+001 6.696960e+000 0.000000e+000
      vertex   1.674646e+001 5.079982e+000 2.000000e+001
    endloop
  endfacet
  facet normal 9.700313e-001 2.429802e-001 1.209734e-016
    outer loop
      vertex   1.674646e+001 5.079982e+000 2.000000e+001
      vertex   1.716374e+001 3.414081e+000 2.000000e+001
      vertex   1.716374e+001 3.414081e+000 0.000000e+000
    endloop
  endfacet
  facet normal 9.891765e-001 1.467305e-001 1.626251e-016
    outer loop
      vertex   1.716374e+001 3.414081e+000 0.000000e+000
      vertex   1.716374e+001 3.414081e+000 2.000000e+001
      vertex   1.741573e+001 1.715300e+000 2.000000e+001
    endloop
  endfacet
  facet normal 9.987955e-001 4.906767e-002 4.085705e-018
    outer loop
      vertex   1.741573e+001 1.715300e+000 0.000000e+000
      vertex   1.741573e+001 1.715300e+000 2.000000e+001
      vertex   1.750000e+001 0.000000e+000 2.000000e+001
    endloop
  endfacet
  facet normal 9.987955e-001 -4.906767e-002 0.000000e+000
    outer loop
      vertex   1.750000e+001 0.000000e+000 0.000000e+000
      vertex   1.750000e+001 0.000000e+000 2.000000e+001
      vertex   1.741573e+001 -1.715300e+000 2.000000e+001
    endloop
  endfacet
  facet normal 9.987955e-001 -4.906767e-002 -3.787896e-018
    outer loop
      vertex   1.741573e+001 -1.715300e+000 0.000000e+000
      vertex   1.750000e+001 0.000000e+000 0.000000e+000
      vertex   1.741573e+001 -1.715300e+000 2.000000e+001
    endloop
  endfacet
  facet normal 9.987955e-001 4.906767e-002 0.000000e+000
    outer loop
      vertex   1.750000e+001 0.000000e+000 0.000000e+000
      vertex   1.741573e+001 1.715300e+000 0.000000e+000
      vertex   1.750000e+001 0.000000e+000 2.000000e+001
    endloop
  endfacet
  facet normal 9.891765e-001 1.467305e-001 1.262632e-017
    outer loop
      vertex   1.741573e+001 1.715300e+000 0.000000e+000
      vertex   1.716374e+001 3.414081e+000 0.000000e+000
      vertex   1.741573e+001 1.715300e+000 2.000000e+001
    endloop
  endfacet
  facet normal 9.039893e-001 4.275551e-001 -1.363642e-016
    outer loop
      vertex   1.616789e+001 6.696960e+000 0.000000e+000
      vertex   1.543362e+001 8.249443e+000 0.000000e+000
      vertex   1.616789e+001 6.696960e+000 2.000000e+001
    endloop
  endfacet
  facet normal 8.577286e-001 5.141027e-001 4.545475e-017
    outer loop
      vertex   1.543362e+001 8.249443e+000 0.000000e+000
      vertex   1.455072e+001 9.722479e+000 0.000000e+000
      vertex   1.543362e+001 8.249443e+000 2.000000e+001
    endloop
  endfacet
  facet normal 8.032075e-001 5.956993e-001 0.000000e+000
    outer loop
      vertex   1.455072e+001 9.722479e+000 0.000000e+000
      vertex   1.352768e+001 1.110188e+001 0.000000e+000
      vertex   1.455072e+001 9.722479e+000 2.000000e+001
    endloop
  endfacet
  facet normal 5.956993e-001 8.032075e-001 -2.525264e-017
    outer loop
      vertex   1.110188e+001 1.352768e+001 0.000000e+000
      vertex   9.722479e+000 1.455072e+001 0.000000e+000
      vertex   1.110188e+001 1.352768e+001 2.000000e+001
    endloop
  endfacet
  facet normal 5.141027e-001 8.577286e-001 1.010106e-017
    outer loop
      vertex   9.722479e+000 1.455072e+001 0.000000e+000
      vertex   8.249443e+000 1.543362e+001 0.000000e+000
      vertex   9.722479e+000 1.455072e+001 2.000000e+001
    endloop
  endfacet
  facet normal 4.275551e-001 9.039893e-001 7.070739e-017
    outer loop
      vertex   8.249443e+000 1.543362e+001 0.000000e+000
      vertex   6.696960e+000 1.616789e+001 0.000000e+000
      vertex   8.249443e+000 1.543362e+001 2.000000e+001
    endloop
  endfacet
  facet normal 1.467305e-001 9.891765e-001 0.000000e+000
    outer loop
      vertex   3.414081e+000 1.716374e+001 0.000000e+000
      vertex   1.715300e+000 1.741573e+001 0.000000e+000
      vertex   3.414081e+000 1.716374e+001 2.000000e+001
    endloop
  endfacet
  facet normal 4.906767e-002 9.987955e-001 -8.080844e-017
    outer loop
      vertex   1.715300e+000 1.741573e+001 0.000000e+000
      vertex   1.071531e-015 1.750000e+001 0.000000e+000
      vertex   1.715300e+000 1.741573e+001 2.000000e+001
    endloop
  endfacet
  facet normal -4.906767e-002 9.987955e-001 -1.073237e-017
    outer loop
      vertex   1.071531e-015 1.750000e+001 0.000000e+000
      vertex   -1.715300e+000 1.741573e+001 0.000000e+000
      vertex   -3.214592e-015 1.750000e+001 2.000000e+001
    endloop
  endfacet
  facet normal -3.368899e-001 9.415441e-001 -1.111116e-016
    outer loop
      vertex   -5.079982e+000 1.674646e+001 0.000000e+000
      vertex   -6.696960e+000 1.616789e+001 0.000000e+000
      vertex   -5.079982e+000 1.674646e+001 2.000000e+001
    endloop
  endfacet
  facet normal -4.275551e-001 9.039893e-001 -9.090950e-017
    outer loop
      vertex   -6.696960e+000 1.616789e+001 0.000000e+000
      vertex   -8.249443e+000 1.543362e+001 0.000000e+000
      vertex   -6.696960e+000 1.616789e+001 2.000000e+001
    endloop
  endfacet
  facet normal -5.141027e-001 8.577286e-001 -6.060633e-017
    outer loop
      vertex   -8.249443e+000 1.543362e+001 0.000000e+000
      vertex   -9.722479e+000 1.455072e+001 0.000000e+000
      vertex   -8.249443e+000 1.543362e+001 2.000000e+001
    endloop
  endfacet
  facet normal -7.409511e-001 6.715590e-001 -1.666674e-016
    outer loop
      vertex   -1.237437e+001 1.237437e+001 0.000000e+000
      vertex   -1.352768e+001 1.110188e+001 0.000000e+000
      vertex   -1.237437e+001 1.237437e+001 2.000000e+001
    endloop
  endfacet
  facet normal -8.032075e-001 5.956993e-001 -1.111116e-016
    outer loop
      vertex   -1.352768e+001 1.110188e+001 0.000000e+000
      vertex   -1.455072e+001 9.722479e+000 0.000000e+000
      vertex   -1.352768e+001 1.110188e+001 2.000000e+001
    endloop
  endfacet
  facet normal -8.577286e-001 5.141027e-001 1.161621e-016
    outer loop
      vertex   -1.455072e+001 9.722479e+000 0.000000e+000
      vertex   -1.543362e+001 8.249443e+000 0.000000e+000
      vertex   -1.455072e+001 9.722479e+000 2.000000e+001
    endloop
  endfacet
  facet normal -9.700313e-001 -2.429802e-001 -4.798001e-017
    outer loop
      vertex   -1.716374e+001 -3.414081e+000 0.000000e+000
      vertex   -1.674646e+001 -5.079982e+000 0.000000e+000
      vertex   -1.716374e+001 -3.414081e+000 2.000000e+001
    endloop
  endfacet
  facet normal -9.415441e-001 -3.368899e-001 -9.090950e-017
    outer loop
      vertex   -1.674646e+001 -5.079982e+000 0.000000e+000
      vertex   -1.616789e+001 -6.696960e+000 0.000000e+000
      vertex   -1.674646e+001 -5.079982e+000 2.000000e+001
    endloop
  endfacet
  facet normal -8.032075e-001 -5.956993e-001 -1.313137e-016
    outer loop
      vertex   -1.455072e+001 -9.722479e+000 0.000000e+000
      vertex   -1.352768e+001 -1.110188e+001 0.000000e+000
      vertex   -1.455072e+001 -9.722479e+000 2.000000e+001
    endloop
  endfacet
  facet normal -7.409511e-001 -6.715590e-001 9.090950e-017
    outer loop
      vertex   -1.352768e+001 -1.110188e+001 0.000000e+000
      vertex   -1.237437e+001 -1.237437e+001 0.000000e+000
      vertex   -1.352768e+001 -1.110188e+001 2.000000e+001
    endloop
  endfacet
  facet normal -6.715590e-001 -7.409511e-001 1.464653e-016
    outer loop
      vertex   -1.237437e+001 -1.237437e+001 0.000000e+000
      vertex   -1.110188e+001 -1.352768e+001 0.000000e+000
      vertex   -1.237437e+001 -1.237437e+001 2.000000e+001
    endloop
  endfacet
  facet normal -4.275551e-001 -9.039893e-001 5.050528e-017
    outer loop
      vertex   -8.249443e+000 -1.543362e+001 0.000000e+000
      vertex   -6.696960e+000 -1.616789e+001 0.000000e+000
      vertex   -8.249443e+000 -1.543362e+001 2.000000e+001
    endloop
  endfacet
  facet normal -3.368899e-001 -9.415441e-001 4.545475e-017
    outer loop
      vertex   -6.696960e+000 -1.616789e+001 0.000000e+000
      vertex   -5.079982e+000 -1.674646e+001 0.000000e+000
      vertex   -6.696960e+000 -1.616789e+001 2.000000e+001
    endloop
  endfacet
  facet normal -2.429802e-001 -9.700313e-001 1.262632e-017
    outer loop
      vertex   -5.079982e+000 -1.674646e+001 0.000000e+000
      vertex   -3.414081e+000 -1.716374e+001 0.000000e+000
      vertex   -5.079982e+000 -1.674646e+001 2.000000e+001
    endloop
  endfacet
  facet normal 4.906767e-002 -9.987955e-001 -1.073237e-017
    outer loop
      vertex   -3.214592e-015 -1.750000e+001 0.000000e+000
      vertex   1.715300e+000 -1.741573e+001 0.000000e+000
      vertex   1.071531e-015 -1.750000e+001 2.000000e+001
    endloop
  endfacet
  facet normal 1.467305e-001 -9.891765e-001 2.020211e-017
    outer loop
      vertex   1.715300e+000 -1.741573e+001 0.000000e+000
      vertex   3.414081e+000 -1.716374e+001 0.000000e+000
      vertex   1.715300e+000 -1.741573e+001 2.000000e+001
    endloop
  endfacet
  facet normal 2.429802e-001 -9.700313e-001 0.000000e+000
    outer loop
      vertex   3.414081e+000 -1.716374e+001 0.000000e+000
      vertex   5.079982e+000 -1.674646e+001 0.000000e+000
      vertex   3.414081e+000 -1.716374e+001 2.000000e+001
    endloop
  endfacet
  facet normal 5.141027e-001 -8.577286e-001 -8.585897e-017
    outer loop
      vertex   8.249443e+000 -1.543362e+001 0.000000e+000
      vertex   9.722479e+000 -1.455072e+001 0.000000e+000
      vertex   8.249443e+000 -1.543362e+001 2.000000e+001
    endloop
  endfacet
  facet normal 5.956993e-001 -8.032075e-001 -5.555580e-017
    outer loop
      vertex   9.722479e+000 -1.455072e+001 0.000000e+000
      vertex   1.110188e+001 -1.352768e+001 0.000000e+000
      vertex   9.722479e+000 -1.455072e+001 2.000000e+001
    endloop
  endfacet
  facet normal 6.715590e-001 -7.409511e-001 -4.040422e-017
    outer loop
      vertex   1.110188e+001 -1.352768e+001 0.000000e+000
      vertex   1.237437e+001 -1.237437e+001 0.000000e+000
      vertex   1.110188e+001 -1.352768e+001 2.000000e+001
    endloop
  endfacet
  facet normal 8.577286e-001 -5.141027e-001 0.000000e+000
    outer loop
      vertex   1.455072e+001 -9.722479e+000 0.000000e+000
      vertex   1.543362e+001 -8.249443e+000 0.000000e+000
      vertex   1.455072e+001 -9.722479e+000 2.000000e+001
    endloop
  endfacet
  facet normal 9.039893e-001 -4.275551e-001 -8.080844e-017
    outer loop
      vertex   1.543362e+001 -8.249443e+000 0.000000e+000
      vertex   1.616789e+001 -6.696960e+000 0.000000e+000
      vertex   1.543362e+001 -8.249443e+000 2.000000e+001
    endloop
  endfacet
  facet normal -0.000000e+000 1.000000e+000 0.000000e+000
    outer loop
      vertex   -9.000000e+000 -9.000000e+000 2.000000e+001
      vertex   9.000000e+000 -9.000000e+000 2.000000e+001
      vertex   -9.000000e+000 -9.000000e+000 0.000000e+000
    endloop
  endfacet
  facet normal -0.000000e+000 1.000000e+000 0.000000e+000
    outer loop
      vertex   -9.000000e+000 -9.000000e+000 0.000000e+000
      vertex   9.000000e+000 -9.000000e+000 2.000000e+001
      vertex   9.000000e+000 -9.000000e+000 0.000000e+000
    endloop
  endfacet
  facet normal -1.000000e+000 0.000000e+000 -0.000000e+000
    outer loop
      vertex   9.000000e+000 -9.000000e+000 2.000000e+001
      vertex   9.000000e+000 9.000000e+000 2.000000e+001
      vertex   9.000000e+000 -9.000000e+000 0.000000e+000
    endloop
  endfacet
  facet normal -1.000000e+000 0.000000e+000 0.000000e+000
    outer loop
      vertex   9.000000e+000 -9.000000e+000 0.000000e+000
      vertex   9.000000e+000 9.000000e+000 2.000000e+001
      vertex   9.000000e+000 9.000000e+000 0.000000e+000
    endloop
  endfacet
  facet normal -0.000000e+000 -1.000000e+000 -0.000000e+000
    outer loop
      vertex   9.000000e+000 9.000000e+000 2.000000e+001
      vertex   -9.000000e+000 9.000000e+000 2.000000e+001
      vertex   9.000000e+000 9.000000e+000 0.000000e+000
    endloop
  endfacet
  facet normal -0.000000e+000 -1.000000e+000 -0.000000e+000
    outer loop
      vertex   9.000000e+000 9.000000e+000 0.000000e+000
      vertex   -9.000000e+000 9.000000e+000 2.000000e+001
      vertex   -9.000000e+000 9.000000e+000 0.000000e+000
    endloop
  endfacet
  facet normal 1.000000e+000 0.000000e+000 0.000000e+000
    outer loop
      vertex   -9.000000e+000 9.000000e+000 2.000000e+001
      vertex   -9.000000e+000 -9.000000e+000 2.000000e+001
      vertex   -9.000000e+000 9.000000e+000 0.000000e+000
    endloop
  endfacet
  facet normal 1.000000e+000 0.000000e+000 0.000000e+000
    outer loop
      vertex   -9.000000e+000 9.000000e+000 0.000000e+000
      vertex   -9.000000e+000 -9.000000e+000 2.000000e+001
      vertex   -9.000000e+000 -9.000000e+000 0.000000e+000
    endloop
  endfacet
  facet normal -0.000000e+000 -0.000000e+000 1.000000e+000
    outer loop
      vertex   -3.414081e+000 -1.716374e+001 2.000000e+001
      vertex   -1.715300e+000 -1.741573e+001 2.000000e+001
      vertex   -9.000000e+000 -9.000000e+000 2.000000e+001
    endloop
  endfacet
  facet normal 0.000000e+000 0.000000e+000 1.000000e+000
    outer loop
      vertex   -5.079982e+000 -1.674646e+001 2.000000e+001
      vertex   -9.000000e+000 -9.000000e+000 2.000000e+001
      vertex   -6.696960e+000 -1.616789e+001 2.000000e+001
    endloop
  endfacet
  facet normal -0.000000e+000 -0.000000e+000 1.000000e+000
    outer loop
      vertex   -5.079982e+000 -1.674646e+001 2.000000e+001
      vertex   -3.414081e+000 -1.716374e+001 2.000000e+001
      vertex   -9.000000e+000 -9.000000e+000 2.000000e+001
    endloop
  endfacet
  facet normal -0.000000e+000 0.000000e+000 1.000000e+000
    outer loop
      vertex   -1.716374e+001 3.414081e+000 2.000000e+001
      vertex   -1.741573e+001 1.715300e+000 2.000000e+001
      vertex   -9.000000e+000 9.000000e+000 2.000000e+001
    endloop
  endfacet
  facet normal 0.000000e+000 -0.000000e+000 1.000000e+000
    outer loop
      vertex   -1.674646e+001 5.079982e+000 2.000000e+001
      vertex   -9.000000e+000 9.000000e+000 2.000000e+001
      vertex   -1.616789e+001 6.696960e+000 2.000000e+001
    endloop
  endfacet
  facet normal -0.000000e+000 0.000000e+000 1.000000e+000
    outer loop
      vertex   -1.674646e+001 5.079982e+000 2.000000e+001
      vertex   -1.716374e+001 3.414081e+000 2.000000e+001
      vertex   -9.000000e+000 9.000000e+000 2.000000e+001
    endloop
  endfacet
  facet normal 0.000000e+000 0.000000e+000 1.000000e+000
    outer loop
      vertex   3.414081e+000 1.716374e+001 2.000000e+001
      vertex   1.715300e+000 1.741573e+001 2.000000e+001
      vertex   9.000000e+000 9.000000e+000 2.000000e+001
    endloop
  endfacet
  facet normal -0.000000e+000 -0.000000e+000 1.000000e+000
    outer loop
      vertex   5.079982e+000 1.674646e+001 2.000000e+001
      vertex   9.000000e+000 9.000000e+000 2.000000e+001
      vertex   6.696960e+000 1.616789e+001 2.000000e+001
    endloop
  endfacet
  facet normal 0.000000e+000 0.000000e+000 1.000000e+000
    outer loop
      vertex   5.079982e+000 1.674646e+001 2.000000e+001
      vertex   3.414081e+000 1.716374e+001 2.000000e+001
      vertex   9.000000e+000 9.000000e+000 2.000000e+001
    endloop
  endfacet
  facet normal 0.000000e+000 -0.000000e+000 1.000000e+000
    outer loop
      vertex   1.716374e+001 -3.414081e+000 2.000000e+001
      vertex   1.741573e+001 -1.715300e+000 2.000000e+001
      vertex   9.000000e+000 -9.000000e+000 2.000000e+001
    endloop
  endfacet
  facet normal -0.000000e+000 0.000000e+000 1.000000e+000
    outer loop
      vertex   1.674646e+001 -5.079982e+000 2.000000e+001
      vertex   9.000000e+000 -9.000000e+000 2.000000e+001
      vertex   1.616789e+001 -6.696960e+000 2.000000e+001
    endloop
  endfacet
  facet normal 0.000000e+000 -0.000000e+000 1.000000e+000
    outer loop
      vertex   1.674646e+001 -5.079982e+000 2.000000e+001
      vertex   1.716374e+001 -3.414081e+000 2.000000e+001
      vertex   9.000000e+000 -9.000000e+000 2.000000e+001
    endloop
  endfacet
  facet normal 0.000000e+000 0.000000e+000 1.000000e+000
    outer loop
      vertex   1.741573e+001 1.715300e+000 2.000000e+001
      vertex   9.000000e+000 9.000000e+000 2.000000e+001
      vertex   1.750000e+001 0.000000e+000 2.000000e+001
    endloop
  endfacet
  facet normal 0.000000e+000 0.000000e+000 1.000000e+000
    outer loop
      vertex   1.741573e+001 1.715300e+000 2.000000e+001
      vertex   1.716374e+001 3.414081e+000 2.000000e+001
      vertex   9.000000e+000 9.000000e+000 2.000000e+001
    endloop
  endfacet
  facet normal -0.000000e+000 -0.000000e+000 1.000000e+000
    outer loop
      vertex   9.000000e+000 9.000000e+000 2.000000e+001
      vertex   1.716374e+001 3.414081e+000 2.000000e+001
      vertex   1.674646e+001 5.079982e+000 2.000000e+001
    endloop
  endfacet
  facet normal 0.000000e+000 0.000000e+000 1.000000e+000
    outer loop
      vertex   1.616789e+001 6.696960e+000 2.000000e+001
      vertex   9.000000e+000 9.000000e+000 2.000000e+001
      vertex   1.674646e+001 5.079982e+000 2.000000e+001
    endloop
  endfacet
  facet normal 0.000000e+000 0.000000e+000 1.000000e+000
    outer loop
      vertex   1.616789e+001 6.696960e+000 2.000000e+001
      vertex   1.543362e+001 8.249443e+000 2.000000e+001
      vertex   9.000000e+000 9.000000e+000 2.000000e+001
    endloop
  endfacet
  facet normal -0.000000e+000 -0.000000e+000 1.000000e+000
    outer loop
      vertex   9.000000e+000 9.000000e+000 2.000000e+001
      vertex   1.543362e+001 8.249443e+000 2.000000e+001
      vertex   1.455072e+001 9.722479e+000 2.000000e+001
    endloop
  endfacet
  facet normal -0.000000e+000 0.000000e+000 1.000000e+000
    outer loop
      vertex   1.352768e+001 1.110188e+001 2.000000e+001
      vertex   9.000000e+000 9.000000e+000 2.000000e+001
      vertex   1.455072e+001 9.722479e+000 2.000000e+001
    endloop
  endfacet
  facet normal 0.000000e+000 0.000000e+000 1.000000e+000
    outer loop
      vertex   1.352768e+001 1.110188e+001 2.000000e+001
      vertex   1.237437e+001 1.237437e+001 2.000000e+001
      vertex   9.000000e+000 9.000000e+000 2.000000e+001
    endloop
  endfacet
  facet normal 0.000000e+000 -0.000000e+000 1.000000e+000
    outer loop
      vertex   9.000000e+000 9.000000e+000 2.000000e+001
      vertex   1.237437e+001 1.237437e+001 2.000000e+001
      vertex   1.110188e+001 1.352768e+001 2.000000e+001
    endloop
  endfacet
  facet normal -0.000000e+000 0.000000e+000 1.000000e+000
    outer loop
      vertex   9.722479e+000 1.455072e+001 2.000000e+001
      vertex   9.000000e+000 9.000000e+000 2.000000e+001
      vertex   1.110188e+001 1.352768e+001 2.000000e+001
    endloop
  endfacet
  facet normal 0.000000e+000 0.000000e+000 1.000000e+000
    outer loop
      vertex   9.722479e+000 1.455072e+001 2.000000e+001
      vertex   8.249443e+000 1.543362e+001 2.000000e+001
      vertex   9.000000e+000 9.000000e+000 2.000000e+001
    endloop
  endfacet
  facet normal 0.000000e+000 0.000000e+000 1.000000e+000
    outer loop
      vertex   9.000000e+000 9.000000e+000 2.000000e+001
      vertex   8.249443e+000 1.543362e+001 2.000000e+001
      vertex   6.696960e+000 1.616789e+001 2.000000e+001
    endloop
  endfacet
  facet normal 0.000000e+000 0.000000e+000 1.000000e+000
    outer loop
      vertex   1.715300e+000 1.741573e+001 2.000000e+001
      vertex   -3.214592e-015 1.750000e+001 2.000000e+001
      vertex   9.000000e+000 9.000000e+000 2.000000e+001
    endloop
  endfacet
  facet normal 0.000000e+000 0.000000e+000 1.000000e+000
    outer loop
      vertex   9.000000e+000 9.000000e+000 2.000000e+001
      vertex   -3.214592e-015 1.750000e+001 2.000000e+001
      vertex   -9.000000e+000 9.000000e+000 2.000000e+001
    endloop
  endfacet
  facet normal 0.000000e+000 -0.000000e+000 1.000000e+000
    outer loop
      vertex   -9.000000e+000 9.000000e+000 2.000000e+001
      vertex   -3.214592e-015 1.750000e+001 2.000000e+001
      vertex   -1.715300e+000 1.741573e+001 2.000000e+001
    endloop
  endfacet
  facet normal -0.000000e+000 0.000000e+000 1.000000e+000
    outer loop
      vertex   -3.414081e+000 1.716374e+001 2.000000e+001
      vertex   -9.000000e+000 9.000000e+000 2.000000e+001
      vertex   -1.715300e+000 1.741573e+001 2.000000e+001
    endloop
  endfacet
  facet normal 0.000000e+000 0.000000e+000 1.000000e+000
    outer loop
      vertex   -3.414081e+000 1.716374e+001 2.000000e+001
      vertex   -5.079982e+000 1.674646e+001 2.000000e+001
      vertex   -9.000000e+000 9.000000e+000 2.000000e+001
    endloop
  endfacet
  facet normal 0.000000e+000 -0.000000e+000 1.000000e+000
    outer loop
      vertex   -9.000000e+000 9.000000e+000 2.000000e+001
      vertex   -5.079982e+000 1.674646e+001 2.000000e+001
      vertex   -6.696960e+000 1.616789e+001 2.000000e+001
    endloop
  endfacet
  facet normal -0.000000e+000 0.000000e+000 1.000000e+000
    outer loop
      vertex   -8.249443e+000 1.543362e+001 2.000000e+001
      vertex   -9.000000e+000 9.000000e+000 2.000000e+001
      vertex   -6.696960e+000 1.616789e+001 2.000000e+001
    endloop
  endfacet
  facet normal 0.000000e+000 0.000000e+000 1.000000e+000
    outer loop
      vertex   -8.249443e+000 1.543362e+001 2.000000e+001
      vertex   -9.722479e+000 1.455072e+001 2.000000e+001
      vertex   -9.000000e+000 9.000000e+000 2.000000e+001
    endloop
  endfacet
  facet normal 0.000000e+000 0.000000e+000 1.000000e+000
    outer loop
      vertex   -9.000000e+000 9.000000e+000 2.000000e+001
      vertex   -9.722479e+000 1.455072e+001 2.000000e+001
      vertex   -1.110188e+001 1.352768e+001 2.000000e+001
    endloop
  endfacet
  facet normal -0.000000e+000 -0.000000e+000 1.000000e+000
    outer loop
      vertex   -1.237437e+001 1.237437e+001 2.000000e+001
      vertex   -9.000000e+000 9.000000e+000 2.000000e+001
      vertex   -1.110188e+001 1.352768e+001 2.000000e+001
    endloop
  endfacet
  facet normal 0.000000e+000 0.000000e+000 1.000000e+000
    outer loop
      vertex   -1.237437e+001 1.237437e+001 2.000000e+001
      vertex   -1.352768e+001 1.110188e+001 2.000000e+001
      vertex   -9.000000e+000 9.000000e+000 2.000000e+001
    endloop
  endfacet
  facet normal 0.000000e+000 0.000000e+000 1.000000e+000
    outer loop
      vertex   -9.000000e+000 9.000000e+000 2.000000e+001
      vertex   -1.352768e+001 1.110188e+001 2.000000e+001
      vertex   -1.455072e+001 9.722479e+000 2.000000e+001
    endloop
  endfacet
  facet normal 0.000000e+000 -0.000000e+000 1.000000e+000
    outer loop
      vertex   -1.543362e+001 8.249443e+000 2.000000e+001
      vertex   -9.000000e+000 9.000000e+000 2.000000e+001
      vertex   -1.455072e+001 9.722479e+000 2.000000e+001
    endloop
  endfacet
  facet normal -0.000000e+000 0.000000e+000 1.000000e+000
    outer loop
      vertex   -1.543362e+001 8.249443e+000 2.000000e+001
      vertex   -1.616789e+001 6.696960e+000 2.000000e+001
      vertex   -9.000000e+000 9.000000e+000 2.000000e+001
    endloop
  endfacet
  facet normal -0.000000e+000 0.000000e+000 1.000000e+000
    outer loop
      vertex   -1.741573e+001 1.715300e+000 2.000000e+001
      vertex   -1.750000e+001 -2.143061e-015 2.000000e+001
      vertex   -9.000000e+000 9.000000e+000 2.000000e+001
    endloop
  endfacet
  facet normal 0.000000e+000 0.000000e+000 1.000000e+000
    outer loop
      vertex   -9.000000e+000 9.000000e+000 2.000000e+001
      vertex   -1.750000e+001 -2.143061e-015 2.000000e+001
      vertex   -9.000000e+000 -9.000000e+000 2.000000e+001
    endloop
  endfacet
  facet normal 0.000000e+000 0.000000e+000 1.000000e+000
    outer loop
      vertex   -9.000000e+000 -9.000000e+000 2.000000e+001
      vertex   -1.750000e+001 -2.143061e-015 2.000000e+001
      vertex   -1.741573e+001 -1.715300e+000 2.000000e+001
    endloop
  endfacet
  facet normal -0.000000e+000 -0.000000e+000 1.000000e+000
    outer loop
      vertex   -1.716374e+001 -3.414081e+000 2.000000e+001
      vertex   -9.000000e+000 -9.000000e+000 2.000000e+001
      vertex   -1.741573e+001 -1.715300e+000 2.000000e+001
    endloop
  endfacet
  facet normal 0.000000e+000 0.000000e+000 1.000000e+000
    outer loop
      vertex   -1.716374e+001 -3.414081e+000 2.000000e+001
      vertex   -1.674646e+001 -5.079982e+000 2.000000e+001
      vertex   -9.000000e+000 -9.000000e+000 2.000000e+001
    endloop
  endfacet
  facet normal 0.000000e+000 0.000000e+000 1.000000e+000
    outer loop
      vertex   -9.000000e+000 -9.000000e+000 2.000000e+001
      vertex   -1.674646e+001 -5.079982e+000 2.000000e+001
      vertex   -1.616789e+001 -6.696960e+000 2.000000e+001
    endloop
  endfacet
  facet normal -0.000000e+000 -0.000000e+000 1.000000e+000
    outer loop
      vertex   -1.543362e+001 -8.249443e+000 2.000000e+001
      vertex   -9.000000e+000 -9.000000e+000 2.000000e+001
      vertex   -1.616789e+001 -6.696960e+000 2.000000e+001
    endloop
  endfacet
  facet normal -0.000000e+000 0.000000e+000 1.000000e+000
    outer loop
      vertex   -1.543362e+001 -8.249443e+000 2.000000e+001
      vertex   -1.455072e+001 -9.722479e+000 2.000000e+001
      vertex   -9.000000e+000 -9.000000e+000 2.000000e+001
    endloop
  endfacet
  facet normal 0.000000e+000 0.000000e+000 1.000000e+000
    outer loop
      vertex   -9.000000e+000 -9.000000e+000 2.000000e+001
      vertex   -1.455072e+001 -9.722479e+000 2.000000e+001
      vertex   -1.352768e+001 -1.110188e+001 2.000000e+001
    endloop
  endfacet
  facet normal 0.000000e+000 -0.000000e+000 1.000000e+000
    outer loop
      vertex   -1.237437e+001 -1.237437e+001 2.000000e+001
      vertex   -9.000000e+000 -9.000000e+000 2.000000e+001
      vertex   -1.352768e+001 -1.110188e+001 2.000000e+001
    endloop
  endfacet
  facet normal -0.000000e+000 0.000000e+000 1.000000e+000
    outer loop
      vertex   -1.237437e+001 -1.237437e+001 2.000000e+001
      vertex   -1.110188e+001 -1.352768e+001 2.000000e+001
      vertex   -9.000000e+000 -9.000000e+000 2.000000e+001
    endloop
  endfacet
  facet normal 0.000000e+000 0.000000e+000 1.000000e+000
    outer loop
      vertex   -9.000000e+000 -9.000000e+000 2.000000e+001
      vertex   -1.110188e+001 -1.352768e+001 2.000000e+001
      vertex   -9.722479e+000 -1.455072e+001 2.000000e+001
    endloop
  endfacet
  facet normal 0.000000e+000 0.000000e+000 1.000000e+000
    outer loop
      vertex   -8.249443e+000 -1.543362e+001 2.000000e+001
      vertex   -9.000000e+000 -9.000000e+000 2.000000e+001
      vertex   -9.722479e+000 -1.455072e+001 2.000000e+001
    endloop
  endfacet
  facet normal -0.000000e+000 -0.000000e+000 1.000000e+000
    outer loop
      vertex   -8.249443e+000 -1.543362e+001 2.000000e+001
      vertex   -6.696960e+000 -1.616789e+001 2.000000e+001
      vertex   -9.000000e+000 -9.000000e+000 2.000000e+001
    endloop
  endfacet
  facet normal -0.000000e+000 -0.000000e+000 1.000000e+000
    outer loop
      vertex   -1.715300e+000 -1.741573e+001 2.000000e+001
      vertex   1.071531e-015 -1.750000e+001 2.000000e+001
      vertex   -9.000000e+000 -9.000000e+000 2.000000e+001
    endloop
  endfacet
  facet normal -0.000000e+000 0.000000e+000 1.000000e+000
    outer loop
      vertex   -9.000000e+000 -9.000000e+000 2.000000e+001
      vertex   1.071531e-015 -1.750000e+001 2.000000e+001
      vertex   9.000000e+000 -9.000000e+000 2.000000e+001
    endloop
  endfacet
  facet normal -0.000000e+000 0.000000e+000 1.000000e+000
    outer loop
      vertex   9.000000e+000 -9.000000e+000 2.000000e+001
      vertex   1.071531e-015 -1.750000e+001 2.000000e+001
      vertex   1.715300e+000 -1.741573e+001 2.000000e+001
    endloop
  endfacet
  facet normal 0.000000e+000 -0.000000e+000 1.000000e+000
    outer loop
      vertex   3.414081e+000 -1.716374e+001 2.000000e+001
      vertex   9.000000e+000 -9.000000e+000 2.000000e+001
      vertex   1.715300e+000 -1.741573e+001 2.000000e+001
    endloop
  endfacet
  facet normal 0.000000e+000 0.000000e+000 1.000000e+000
    outer loop
      vertex   3.414081e+000 -1.716374e+001 2.000000e+001
      vertex   5.079982e+000 -1.674646e+001 2.000000e+001
      vertex   9.000000e+000 -9.000000e+000 2.000000e+001
    endloop
  endfacet
  facet normal -0.000000e+000 0.000000e+000 1.000000e+000
    outer loop
      vertex   9.000000e+000 -9.000000e+000 2.000000e+001
      vertex   5.079982e+000 -1.674646e+001 2.000000e+001
      vertex   6.696960e+000 -1.616789e+001 2.000000e+001
    endloop
  endfacet
  facet normal 0.000000e+000 -0.000000e+000 1.000000e+000
    outer loop
      vertex   8.249443e+000 -1.543362e+001 2.000000e+001
      vertex   9.000000e+000 -9.000000e+000 2.000000e+001
      vertex   6.696960e+000 -1.616789e+001 2.000000e+001
    endloop
  endfacet
  facet normal 0.000000e+000 -0.000000e+000 1.000000e+000
    outer loop
      vertex   8.249443e+000 -1.543362e+001 2.000000e+001
      vertex   9.722479e+000 -1.455072e+001 2.000000e+001
      vertex   9.000000e+000 -9.000000e+000 2.000000e+001
    endloop
  endfacet
  facet normal -0.000000e+000 0.000000e+000 1.000000e+000
    outer loop
      vertex   9.000000e+000 -9.000000e+000 2.000000e+001
      vertex   9.722479e+000 -1.455072e+001 2.000000e+001
      vertex   1.110188e+001 -1.352768e+001 2.000000e+001
    endloop
  endfacet
  facet normal 0.000000e+000 0.000000e+000 1.000000e+000
    outer loop
      vertex   1.237437e+001 -1.237437e+001 2.000000e+001
      vertex   9.000000e+000 -9.000000e+000 2.000000e+001
      vertex   1.110188e+001 -1.352768e+001 2.000000e+001
    endloop
  endfacet
  facet normal 0.000000e+000 -0.000000e+000 1.000000e+000
    outer loop
      vertex   1.237437e+001 -1.237437e+001 2.000000e+001
      vertex   1.352768e+001 -1.110188e+001 2.000000e+001
      vertex   9.000000e+000 -9.000000e+000 2.000000e+001
    endloop
  endfacet
  facet normal -0.000000e+000 0.000000e+000 1.000000e+000
    outer loop
      vertex   9.000000e+000 -9.000000e+000 2.000000e+001
      vertex   1.352768e+001 -1.110188e+001 2.000000e+001
      vertex   1.455072e+001 -9.722479e+000 2.000000e+001
    endloop
  endfacet
  facet normal 0.000000e+000 0.000000e+000 1.000000e+000
    outer loop
      vertex   1.543362e+001 -8.249443e+000 2.000000e+001
      vertex   9.000000e+000 -9.000000e+000 2.000000e+001
      vertex   1.455072e+001 -9.722479e+000 2.000000e+001
    endloop
  endfacet
  facet normal 0.000000e+000 -0.000000e+000 1.000000e+000
    outer loop
      vertex   1.543362e+001 -8.249443e+000 2.000000e+001
      vertex   1.616789e+001 -6.696960e+000 2.000000e+001
      vertex   9.000000e+000 -9.000000e+000 2.000000e+001
    endloop
  endfacet
  facet normal 0.000000e+000 -0.000000e+000 1.000000e+000
    outer loop
      vertex   1.741573e+001 -1.715300e+000 2.000000e+001
      vertex   1.750000e+001 0.000000e+000 2.000000e+001
      vertex   9.000000e+000 -9.000000e+000 2.000000e+001
    endloop
  endfacet
  facet normal 0.000000e+000 -0.000000e+000 1.000000e+000
    outer loop
      vertex   9.000000e+000 -9.000000e+000 2.000000e+001
      vertex   1.750000e+001 0.000000e+000 2.000000e+001
      vertex   9.000000e+000 9.000000e+000 2.000000e+001
    endloop
  endfacet
  facet normal 0.000000e+000 0.000000e+000 -1.000000e+000
    outer loop
      vertex   -1.716374e+001 -3.414081e+000 0.000000e+000
      vertex   -1.741573e+001 -1.715300e+000 0.000000e+000
      vertex   -9.000000e+000 -9.000000e+000 0.000000e+000
    endloop
  endfacet
  facet normal -0.000000e+000 -0.000000e+000 -1.000000e+000
    outer loop
      vertex   -1.674646e+001 -5.079982e+000 0.000000e+000
      vertex   -9.000000e+000 -9.000000e+000 0.000000e+000
      vertex   -1.616789e+001 -6.696960e+000 0.000000e+000
    endloop
  endfacet
  facet normal 0.000000e+000 0.000000e+000 -1.000000e+000
    outer loop
      vertex   -1.674646e+001 -5.079982e+000 0.000000e+000
      vertex   -1.716374e+001 -3.414081e+000 0.000000e+000
      vertex   -9.000000e+000 -9.000000e+000 0.000000e+000
    endloop
  endfacet
  facet normal -0.000000e+000 0.000000e+000 -1.000000e+000
    outer loop
      vertex   3.414081e+000 -1.716374e+001 0.000000e+000
      vertex   1.715300e+000 -1.741573e+001 0.000000e+000
      vertex   9.000000e+000 -9.000000e+000 0.000000e+000
    endloop
  endfacet
  facet normal 0.000000e+000 -0.000000e+000 -1.000000e+000
    outer loop
      vertex   5.079982e+000 -1.674646e+001 0.000000e+000
      vertex   9.000000e+000 -9.000000e+000 0.000000e+000
      vertex   6.696960e+000 -1.616789e+001 0.000000e+000
    endloop
  endfacet
  facet normal -0.000000e+000 0.000000e+000 -1.000000e+000
    outer loop
      vertex   5.079982e+000 -1.674646e+001 0.000000e+000
      vertex   3.414081e+000 -1.716374e+001 0.000000e+000
      vertex   9.000000e+000 -9.000000e+000 0.000000e+000
    endloop
  endfacet
  facet normal -0.000000e+000 -0.000000e+000 -1.000000e+000
    outer loop
      vertex   1.716374e+001 3.414081e+000 0.000000e+000
      vertex   1.741573e+001 1.715300e+000 0.000000e+000
      vertex   9.000000e+000 9.000000e+000 0.000000e+000
    endloop
  endfacet
  facet normal 0.000000e+000 0.000000e+000 -1.000000e+000
    outer loop
      vertex   1.674646e+001 5.079982e+000 0.000000e+000
      vertex   9.000000e+000 9.000000e+000 0.000000e+000
      vertex   1.616789e+001 6.696960e+000 0.000000e+000
    endloop
  endfacet
  facet normal -0.000000e+000 -0.000000e+000 -1.000000e+000
    outer loop
      vertex   1.674646e+001 5.079982e+000 0.000000e+000
      vertex   1.716374e+001 3.414081e+000 0.000000e+000
      vertex   9.000000e+000 9.000000e+000 0.000000e+000
    endloop
  endfacet
  facet normal 0.000000e+000 -0.000000e+000 -1.000000e+000
    outer loop
      vertex   -3.414081e+000 1.716374e+001 0.000000e+000
      vertex   -1.715300e+000 1.741573e+001 0.000000e+000
      vertex   -9.000000e+000 9.000000e+000 0.000000e+000
    endloop
  endfacet
  facet normal -0.000000e+000 0.000000e+000 -1.000000e+000
    outer loop
      vertex   -5.079982e+000 1.674646e+001 0.000000e+000
      vertex   -9.000000e+000 9.000000e+000 0.000000e+000
      vertex   -6.696960e+000 1.616789e+001 0.000000e+000
    endloop
  endfacet
  facet normal 0.000000e+000 -0.000000e+000 -1.000000e+000
    outer loop
      vertex   -5.079982e+000 1.674646e+001 0.000000e+000
      vertex   -3.414081e+000 1.716374e+001 0.000000e+000
      vertex   -9.000000e+000 9.000000e+000 0.000000e+000
    endloop
  endfacet
  facet normal -0.000000e+000 0.000000e+000 -1.000000e+000
    outer loop
      vertex   1.741573e+001 -1.715300e+000 0.000000e+000
      vertex   9.000000e+000 -9.000000e+000 0.000000e+000
      vertex   1.750000e+001 0.000000e+000 0.000000e+000
    endloop
  endfacet
  facet normal 0.000000e+000 0.000000e+000 -1.000000e+000
    outer loop
      vertex   1.741573e+001 -1.715300e+000 0.000000e+000
      vertex   1.716374e+001 -3.414081e+000 0.000000e+000
      vertex   9.000000e+000 -9.000000e+000 0.000000e+000
    endloop
  endfacet
  facet normal 0.000000e+000 -0.000000e+000 -1.000000e+000
    outer loop
      vertex   9.000000e+000 -9.000000e+000 0.000000e+000
      vertex   1.716374e+001 -3.414081e+000 0.000000e+000
      vertex   1.674646e+001 -5.079982e+000 0.000000e+000
    endloop
  endfacet
  facet normal -0.000000e+000 0.000000e+000 -1.000000e+000
    outer loop
      vertex   1.616789e+001 -6.696960e+000 0.000000e+000
      vertex   9.000000e+000 -9.000000e+000 0.000000e+000
      vertex   1.674646e+001 -5.079982e+000 0.000000e+000
    endloop
  endfacet
  facet normal 0.000000e+000 0.000000e+000 -1.000000e+000
    outer loop
      vertex   1.616789e+001 -6.696960e+000 0.000000e+000
      vertex   1.543362e+001 -8.249443e+000 0.000000e+000
      vertex   9.000000e+000 -9.000000e+000 0.000000e+000
    endloop
  endfacet
  facet normal 0.000000e+000 -0.000000e+000 -1.000000e+000
    outer loop
      vertex   9.000000e+000 -9.000000e+000 0.000000e+000
      vertex   1.543362e+001 -8.249443e+000 0.000000e+000
      vertex   1.455072e+001 -9.722479e+000 0.000000e+000
    endloop
  endfacet
  facet normal 0.000000e+000 0.000000e+000 -1.000000e+000
    outer loop
      vertex   1.352768e+001 -1.110188e+001 0.000000e+000
      vertex   9.000000e+000 -9.000000e+000 0.000000e+000
      vertex   1.455072e+001 -9.722479e+000 0.000000e+000
    endloop
  endfacet
  facet normal -0.000000e+000 0.000000e+000 -1.000000e+000
    outer loop
      vertex   1.352768e+001 -1.110188e+001 0.000000e+000
      vertex   1.237437e+001 -1.237437e+001 0.000000e+000
      vertex   9.000000e+000 -9.000000e+000 0.000000e+000
    endloop
  endfacet
  facet normal 0.000000e+000 -0.000000e+000 -1.000000e+000
    outer loop
      vertex   9.000000e+000 -9.000000e+000 0.000000e+000
      vertex   1.237437e+001 -1.237437e+001 0.000000e+000
      vertex   1.110188e+001 -1.352768e+001 0.000000e+000
    endloop
  endfacet
  facet normal 0.000000e+000 0.000000e+000 -1.000000e+000
    outer loop
      vertex   9.722479e+000 -1.455072e+001 0.000000e+000
      vertex   9.000000e+000 -9.000000e+000 0.000000e+000
      vertex   1.110188e+001 -1.352768e+001 0.000000e+000
    endloop
  endfacet
  facet normal -0.000000e+000 0.000000e+000 -1.000000e+000
    outer loop
      vertex   9.722479e+000 -1.455072e+001 0.000000e+000
      vertex   8.249443e+000 -1.543362e+001 0.000000e+000
      vertex   9.000000e+000 -9.000000e+000 0.000000e+000
    endloop
  endfacet
  facet normal 0.000000e+000 0.000000e+000 -1.000000e+000
    outer loop
      vertex   9.000000e+000 -9.000000e+000 0.000000e+000
      vertex   8.249443e+000 -1.543362e+001 0.000000e+000
      vertex   6.696960e+000 -1.616789e+001 0.000000e+000
    endloop
  endfacet
  facet normal -0.000000e+000 0.000000e+000 -1.000000e+000
    outer loop
      vertex   1.715300e+000 -1.741573e+001 0.000000e+000
      vertex   -3.214592e-015 -1.750000e+001 0.000000e+000
      vertex   9.000000e+000 -9.000000e+000 0.000000e+000
    endloop
  endfacet
  facet normal -0.000000e+000 0.000000e+000 -1.000000e+000
    outer loop
      vertex   9.000000e+000 -9.000000e+000 0.000000e+000
      vertex   -3.214592e-015 -1.750000e+001 0.000000e+000
      vertex   -9.000000e+000 -9.000000e+000 0.000000e+000
    endloop
  endfacet
  facet normal -0.000000e+000 -0.000000e+000 -1.000000e+000
    outer loop
      vertex   -9.000000e+000 -9.000000e+000 0.000000e+000
      vertex   -3.214592e-015 -1.750000e+001 0.000000e+000
      vertex   -1.715300e+000 -1.741573e+001 0.000000e+000
    endloop
  endfacet
  facet normal 0.000000e+000 0.000000e+000 -1.000000e+000
    outer loop
      vertex   -3.414081e+000 -1.716374e+001 0.000000e+000
      vertex   -9.000000e+000 -9.000000e+000 0.000000e+000
      vertex   -1.715300e+000 -1.741573e+001 0.000000e+000
    endloop
  endfacet
  facet normal 0.000000e+000 0.000000e+000 -1.000000e+000
    outer loop
      vertex   -3.414081e+000 -1.716374e+001 0.000000e+000
      vertex   -5.079982e+000 -1.674646e+001 0.000000e+000
      vertex   -9.000000e+000 -9.000000e+000 0.000000e+000
    endloop
  endfacet
  facet normal -0.000000e+000 -0.000000e+000 -1.000000e+000
    outer loop
      vertex   -9.000000e+000 -9.000000e+000 0.000000e+000
      vertex   -5.079982e+000 -1.674646e+001 0.000000e+000
      vertex   -6.696960e+000 -1.616789e+001 0.000000e+000
    endloop
  endfacet
  facet normal 0.000000e+000 0.000000e+000 -1.000000e+000
    outer loop
      vertex   -8.249443e+000 -1.543362e+001 0.000000e+000
      vertex   -9.000000e+000 -9.000000e+000 0.000000e+000
      vertex   -6.696960e+000 -1.616789e+001 0.000000e+000
    endloop
  endfacet
  facet normal 0.000000e+000 0.000000e+000 -1.000000e+000
    outer loop
      vertex   -8.249443e+000 -1.543362e+001 0.000000e+000
      vertex   -9.722479e+000 -1.455072e+001 0.000000e+000
      vertex   -9.000000e+000 -9.000000e+000 0.000000e+000
    endloop
  endfacet
  facet normal -0.000000e+000 0.000000e+000 -1.000000e+000
    outer loop
      vertex   -9.000000e+000 -9.000000e+000 0.000000e+000
      vertex   -9.722479e+000 -1.455072e+001 0.000000e+000
      vertex   -1.110188e+001 -1.352768e+001 0.000000e+000
    endloop
  endfacet
  facet normal 0.000000e+000 -0.000000e+000 -1.000000e+000
    outer loop
      vertex   -1.237437e+001 -1.237437e+001 0.000000e+000
      vertex   -9.000000e+000 -9.000000e+000 0.000000e+000
      vertex   -1.110188e+001 -1.352768e+001 0.000000e+000
    endloop
  endfacet
  facet normal 0.000000e+000 0.000000e+000 -1.000000e+000
    outer loop
      vertex   -1.237437e+001 -1.237437e+001 0.000000e+000
      vertex   -1.352768e+001 -1.110188e+001 0.000000e+000
      vertex   -9.000000e+000 -9.000000e+000 0.000000e+000
    endloop
  endfacet
  facet normal -0.000000e+000 0.000000e+000 -1.000000e+000
    outer loop
      vertex   -9.000000e+000 -9.000000e+000 0.000000e+000
      vertex   -1.352768e+001 -1.110188e+001 0.000000e+000
      vertex   -1.455072e+001 -9.722479e+000 0.000000e+000
    endloop
  endfacet
  facet normal 0.000000e+000 -0.000000e+000 -1.000000e+000
    outer loop
      vertex   -1.543362e+001 -8.249443e+000 0.000000e+000
      vertex   -9.000000e+000 -9.000000e+000 0.000000e+000
      vertex   -1.455072e+001 -9.722479e+000 0.000000e+000
    endloop
  endfacet
  facet normal 0.000000e+000 0.000000e+000 -1.000000e+000
    outer loop
      vertex   -1.543362e+001 -8.249443e+000 0.000000e+000
      vertex   -1.616789e+001 -6.696960e+000 0.000000e+000
      vertex   -9.000000e+000 -9.000000e+000 0.000000e+000
    endloop
  endfacet
  facet normal 0.000000e+000 0.000000e+000 -1.000000e+000
    outer loop
      vertex   -1.741573e+001 -1.715300e+000 0.000000e+000
      vertex   -1.750000e+001 2.143061e-015 0.000000e+000
      vertex   -9.000000e+000 -9.000000e+000 0.000000e+000
    endloop
  endfacet
  facet normal 0.000000e+000 0.000000e+000 -1.000000e+000
    outer loop
      vertex   -9.000000e+000 -9.000000e+000 0.000000e+000
      vertex   -1.750000e+001 2.143061e-015 0.000000e+000
      vertex   -9.000000e+000 9.000000e+000 0.000000e+000
    endloop
  endfacet
  facet normal -0.000000e+000 0.000000e+000 -1.000000e+000
    outer loop
      vertex   -9.000000e+000 9.000000e+000 0.000000e+000
      vertex   -1.750000e+001 2.143061e-015 0.000000e+000
      vertex   -1.741573e+001 1.715300e+000 0.000000e+000
    endloop
  endfacet
  facet normal 0.000000e+000 -0.000000e+000 -1.000000e+000
    outer loop
      vertex   -1.716374e+001 3.414081e+000 0.000000e+000
      vertex   -9.000000e+000 9.000000e+000 0.000000e+000
      vertex   -1.741573e+001 1.715300e+000 0.000000e+000
    endloop
  endfacet
  facet normal 0.000000e+000 0.000000e+000 -1.000000e+000
    outer loop
      vertex   -1.716374e+001 3.414081e+000 0.000000e+000
      vertex   -1.674646e+001 5.079982e+000 0.000000e+000
      vertex   -9.000000e+000 9.000000e+000 0.000000e+000
    endloop
  endfacet
  facet normal -0.000000e+000 0.000000e+000 -1.000000e+000
    outer loop
      vertex   -9.000000e+000 9.000000e+000 0.000000e+000
      vertex   -1.674646e+001 5.079982e+000 0.000000e+000
      vertex   -1.616789e+001 6.696960e+000 0.000000e+000
    endloop
  endfacet
  facet normal 0.000000e+000 -0.000000e+000 -1.000000e+000
    outer loop
      vertex   -1.543362e+001 8.249443e+000 0.000000e+000
      vertex   -9.000000e+000 9.000000e+000 0.000000e+000
      vertex   -1.616789e+001 6.696960e+000 0.000000e+000
    endloop
  endfacet
  facet normal 0.000000e+000 0.000000e+000 -1.000000e+000
    outer loop
      vertex   -1.543362e+001 8.249443e+000 0.000000e+000
      vertex   -1.455072e+001 9.722479e+000 0.000000e+000
      vertex   -9.000000e+000 9.000000e+000 0.000000e+000
    endloop
  endfacet
  facet normal 0.000000e+000 0.000000e+000 -1.000000e+000
    outer loop
      vertex   -9.000000e+000 9.000000e+000 0.000000e+000
      vertex   -1.455072e+001 9.722479e+000 0.000000e+000
      vertex   -1.352768e+001 1.110188e+001 0.000000e+000
    endloop
  endfacet
  facet normal -0.000000e+000 -0.000000e+000 -1.000000e+000
    outer loop
      vertex   -1.237437e+001 1.237437e+001 0.000000e+000
      vertex   -9.000000e+000 9.000000e+000 0.000000e+000
      vertex   -1.352768e+001 1.110188e+001 0.000000e+000
    endloop
  endfacet
  facet normal 0.000000e+000 0.000000e+000 -1.000000e+000
    outer loop
      vertex   -1.237437e+001 1.237437e+001 0.000000e+000
      vertex   -1.110188e+001 1.352768e+001 0.000000e+000
      vertex   -9.000000e+000 9.000000e+000 0.000000e+000
    endloop
  endfacet
  facet normal 0.000000e+000 0.000000e+000 -1.000000e+000
    outer loop
      vertex   -9.000000e+000 9.000000e+000 0.000000e+000
      vertex   -1.110188e+001 1.352768e+001 0.000000e+000
      vertex   -9.722479e+000 1.455072e+001 0.000000e+000
    endloop
  endfacet
  facet normal -0.000000e+000 0.000000e+000 -1.000000e+000
    outer loop
      vertex   -8.249443e+000 1.543362e+001 0.000000e+000
      vertex   -9.000000e+000 9.000000e+000 0.000000e+000
      vertex   -9.722479e+000 1.455072e+001 0.000000e+000
    endloop
  endfacet
  facet normal 0.000000e+000 -0.000000e+000 -1.000000e+000
    outer loop
      vertex   -8.249443e+000 1.543362e+001 0.000000e+000
      vertex   -6.696960e+000 1.616789e+001 0.000000e+000
      vertex   -9.000000e+000 9.000000e+000 0.000000e+000
    endloop
  endfacet
  facet normal 0.000000e+000 -0.000000e+000 -1.000000e+000
    outer loop
      vertex   -1.715300e+000 1.741573e+001 0.000000e+000
      vertex   1.071531e-015 1.750000e+001 0.000000e+000
      vertex   -9.000000e+000 9.000000e+000 0.000000e+000
    endloop
  endfacet
  facet normal 0.000000e+000 0.000000e+000 -1.000000e+000
    outer loop
      vertex   -9.000000e+000 9.000000e+000 0.000000e+000
      vertex   1.071531e-015 1.750000e+001 0.000000e+000
      vertex   9.000000e+000 9.000000e+000 0.000000e+000
    endloop
  endfacet
  facet normal 0.000000e+000 0.000000e+000 -1.000000e+000
    outer loop
      vertex   9.000000e+000 9.000000e+000 0.000000e+000
      vertex   1.071531e-015 1.750000e+001 0.000000e+000
      vertex   1.715300e+000 1.741573e+001 0.000000e+000
    endloop
  endfacet
  facet normal -0.000000e+000 -0.000000e+000 -1.000000e+000
    outer loop
      vertex   3.414081e+000 1.716374e+001 0.000000e+000
      vertex   9.000000e+000 9.000000e+000 0.000000e+000
      vertex   1.715300e+000 1.741573e+001 0.000000e+000
    endloop
  endfacet
  facet normal 0.000000e+000 0.000000e+000 -1.000000e+000
    outer loop
      vertex   3.414081e+000 1.716374e+001 0.000000e+000
      vertex   5.079982e+000 1.674646e+001 0.000000e+000
      vertex   9.000000e+000 9.000000e+000 0.000000e+000
    endloop
  endfacet
  facet normal 0.000000e+000 0.000000e+000 -1.000000e+000
    outer loop
      vertex   9.000000e+000 9.000000e+000 0.000000e+000
      vertex   5.079982e+000 1.674646e+001 0.000000e+000
      vertex   6.696960e+000 1.616789e+001 0.000000e+000
    endloop
  endfacet
  facet normal -0.000000e+000 -0.000000e+000 -1.000000e+000
    outer loop
      vertex   8.249443e+000 1.543362e+001 0.000000e+000
      vertex   9.000000e+000 9.000000e+000 0.000000e+000
      vertex   6.696960e+000 1.616789e+001 0.000000e+000
    endloop
  endfacet
  facet normal 0.000000e+000 -0.000000e+000 -1.000000e+000
    outer loop
      vertex   8.249443e+000 1.543362e+001 0.000000e+000
      vertex   9.722479e+000 1.455072e+001 0.000000e+000
      vertex   9.000000e+000 9.000000e+000 0.000000e+000
    endloop
  endfacet
  facet normal 0.000000e+000 0.000000e+000 -1.000000e+000
    outer loop
      vertex   9.000000e+000 9.000000e+000 0.000000e+000
      vertex   9.722479e+000 1.455072e+001 0.000000e+000
      vertex   1.110188e+001 1.352768e+001 0.000000e+000
    endloop
  endfacet
  facet normal -0.000000e+000 0.000000e+000 -1.000000e+000
    outer loop
      vertex   1.237437e+001 1.237437e+001 0.000000e+000
      vertex   9.000000e+000 9.000000e+000 0.000000e+000
      vertex   1.110188e+001 1.352768e+001 0.000000e+000
    endloop
  endfacet
  facet normal 0.000000e+000 -0.000000e+000 -1.000000e+000
    outer loop
      vertex   1.237437e+001 1.237437e+001 0.000000e+000
      vertex   1.352768e+001 1.110188e+001 0.000000e+000
      vertex   9.000000e+000 9.000000e+000 0.000000e+000
    endloop
  endfacet
  facet normal 0.000000e+000 0.000000e+000 -1.000000e+000
    outer loop
      vertex   9.000000e+000 9.000000e+000 0.000000e+000
      vertex   1.352768e+001 1.110188e+001 0.000000e+000
      vertex   1.455072e+001 9.722479e+000 0.000000e+000
    endloop
  endfacet
  facet normal 0.000000e+000 0.000000e+000 -1.000000e+000
    outer loop
      vertex   1.543362e+001 8.249443e+000 0.000000e+000
      vertex   9.000000e+000 9.000000e+000 0.000000e+000
      vertex   1.455072e+001 9.722479e+000 0.000000e+000
    endloop
  endfacet
  facet normal -0.000000e+000 -0.000000e+000 -1.000000e+000
    outer loop
      vertex   1.543362e+001 8.249443e+000 0.000000e+000
      vertex   1.616789e+001 6.696960e+000 0.000000e+000
      vertex   9.000000e+000 9.000000e+000 0.000000e+000
    endloop
  endfacet
  facet normal -0.000000e+000 -0.000000e+000 -1.000000e+000
    outer loop
      vertex   1.741573e+001 1.715300e+000 0.000000e+000
      vertex   1.750000e+001 0.000000e+000 0.000000e+000
      vertex   9.000000e+000 9.000000e+000 0.000000e+000
    endloop
  endfacet
  facet normal 0.000000e+000 -0.000000e+000 -1.000000e+000
    outer loop
      vertex   9.000000e+000 9.000000e+000 0.000000e+000
      vertex   1.750000e+001 0.000000e+000 0.000000e+000
      vertex   9.000000e+000 -9.000000e+000 0.000000e+000
    endloop
  endfacet
endsolid
