solid ascii
  facet normal 0.000000e+000 0.000000e+000 1.000000e+000
    outer loop
      vertex   8.049500e-001 7.692867e-001 7.500000e-001
      vertex   -8.355177e-001 7.692867e-001 7.500000e-001
      vertex   8.049500e-001 -9.221251e-001 7.500000e-001
    endloop
  endfacet
  facet normal 0.000000e+000 0.000000e+000 1.000000e+000
    outer loop
      vertex   8.049500e-001 -9.221251e-001 7.500000e-001
      vertex   -8.355177e-001 7.692867e-001 7.500000e-001
      vertex   -8.355177e-001 -9.221251e-001 7.500000e-001
    endloop
  endfacet
  facet normal 0.000000e+000 -0.000000e+000 -1.000000e+000
    outer loop
      vertex   -8.355177e-001 3.413391e-001 2.500000e-001
      vertex   8.049500e-001 3.413391e-001 2.500000e-001
      vertex   -8.355177e-001 -5.247452e-001 2.500000e-001
    endloop
  endfacet
  facet normal 0.000000e+000 0.000000e+000 -1.000000e+000
    outer loop
      vertex   -8.355177e-001 -5.247452e-001 2.500000e-001
      vertex   8.049500e-001 3.413391e-001 2.500000e-001
      vertex   8.049500e-001 -5.247452e-001 2.500000e-001
    endloop
  endfacet
  facet normal -0.000000e+000 1.000000e+000 0.000000e+000
    outer loop
      vertex   -8.355177e-001 -5.247452e-001 2.500000e-001
      vertex   8.049500e-001 -5.247452e-001 2.500000e-001
      vertex   -8.355177e-001 -5.247452e-001 -2.500000e-001
    endloop
  endfacet
  facet normal -0.000000e+000 1.000000e+000 0.000000e+000
    outer loop
      vertex   -8.355177e-001 -5.247452e-001 -2.500000e-001
      vertex   8.049500e-001 -5.247452e-001 2.500000e-001
      vertex   8.049500e-001 -5.247452e-001 -2.500000e-001
    endloop
  endfacet
  facet normal -0.000000e+000 -1.000000e+000 -0.000000e+000
    outer loop
      vertex   8.049500e-001 -9.221251e-001 7.500000e-001
      vertex   -8.355177e-001 -9.221251e-001 7.500000e-001
      vertex   8.049500e-001 -9.221251e-001 -2.500000e-001
    endloop
  endfacet
  facet normal -0.000000e+000 -1.000000e+000 -0.000000e+000
    outer loop
      vertex   8.049500e-001 -9.221251e-001 -2.500000e-001
      vertex   -8.355177e-001 -9.221251e-001 7.500000e-001
      vertex   -8.355177e-001 -9.221251e-001 -2.500000e-001
    endloop
  endfacet
  facet normal 0.000000e+000 -0.000000e+000 -1.000000e+000
    outer loop
      vertex   -8.355177e-001 -5.247452e-001 -2.500000e-001
      vertex   8.049500e-001 -5.247452e-001 -2.500000e-001
      vertex   -8.355177e-001 -9.221251e-001 -2.500000e-001
    endloop
  endfacet
  facet normal 0.000000e+000 0.000000e+000 -1.000000e+000
    outer loop
      vertex   -8.355177e-001 -9.221251e-001 -2.500000e-001
      vertex   8.049500e-001 -5.247452e-001 -2.500000e-001
      vertex   8.049500e-001 -9.221251e-001 -2.500000e-001
    endloop
  endfacet
  facet normal -0.000000e+000 1.000000e+000 0.000000e+000
    outer loop
      vertex   -8.355177e-001 7.692867e-001 7.500000e-001
      vertex   8.049500e-001 7.692867e-001 7.500000e-001
      vertex   -8.355177e-001 7.692867e-001 -2.500000e-001
    endloop
  endfacet
  facet normal -0.000000e+000 1.000000e+000 0.000000e+000
    outer loop
      vertex   -8.355177e-001 7.692867e-001 -2.500000e-001
      vertex   8.049500e-001 7.692867e-001 7.500000e-001
      vertex   8.049500e-001 7.692867e-001 -2.500000e-001
    endloop
  endfacet
  facet normal 1.000000e+000 0.000000e+000 -0.000000e+000
    outer loop
      vertex   8.049500e-001 3.413391e-001 -2.500000e-001
      vertex   8.049500e-001 7.692867e-001 -2.500000e-001
      vertex   8.049500e-001 3.413391e-001 2.500000e-001
    endloop
  endfacet
  facet normal 1.000000e+000 -0.000000e+000 0.000000e+000
    outer loop
      vertex   8.049500e-001 3.413391e-001 2.500000e-001
      vertex   8.049500e-001 7.692867e-001 -2.500000e-001
      vertex   8.049500e-001 7.692867e-001 7.500000e-001
    endloop
  endfacet
  facet normal 1.000000e+000 -0.000000e+000 0.000000e+000
    outer loop
      vertex   8.049500e-001 -9.221251e-001 7.500000e-001
      vertex   8.049500e-001 3.413391e-001 2.500000e-001
      vertex   8.049500e-001 7.692867e-001 7.500000e-001
    endloop
  endfacet
  facet normal 1.000000e+000 -0.000000e+000 0.000000e+000
    outer loop
      vertex   8.049500e-001 -9.221251e-001 7.500000e-001
      vertex   8.049500e-001 -5.247452e-001 2.500000e-001
      vertex   8.049500e-001 3.413391e-001 2.500000e-001
    endloop
  endfacet
  facet normal 1.000000e+000 -0.000000e+000 0.000000e+000
    outer loop
      vertex   8.049500e-001 -9.221251e-001 7.500000e-001
      vertex   8.049500e-001 -9.221251e-001 -2.500000e-001
      vertex   8.049500e-001 -5.247452e-001 2.500000e-001
    endloop
  endfacet
  facet normal 1.000000e+000 -0.000000e+000 0.000000e+000
    outer loop
      vertex   8.049500e-001 -5.247452e-001 2.500000e-001
      vertex   8.049500e-001 -9.221251e-001 -2.500000e-001
      vertex   8.049500e-001 -5.247452e-001 -2.500000e-001
    endloop
  endfacet
  facet normal -0.000000e+000 -1.000000e+000 -0.000000e+000
    outer loop
      vertex   8.049500e-001 3.413391e-001 2.500000e-001
      vertex   -8.355177e-001 3.413391e-001 2.500000e-001
      vertex   8.049500e-001 3.413391e-001 -2.500000e-001
    endloop
  endfacet
  facet normal -0.000000e+000 -1.000000e+000 -0.000000e+000
    outer loop
      vertex   8.049500e-001 3.413391e-001 -2.500000e-001
      vertex   -8.355177e-001 3.413391e-001 2.500000e-001
      vertex   -8.355177e-001 3.413391e-001 -2.500000e-001
    endloop
  endfacet
  facet normal -1.000000e+000 0.000000e+000 0.000000e+000
    outer loop
      vertex   -8.355177e-001 3.413391e-001 -2.500000e-001
      vertex   -8.355177e-001 3.413391e-001 2.500000e-001
      vertex   -8.355177e-001 7.692867e-001 -2.500000e-001
    endloop
  endfacet
  facet normal -1.000000e+000 0.000000e+000 0.000000e+000
    outer loop
      vertex   -8.355177e-001 7.692867e-001 -2.500000e-001
      vertex   -8.355177e-001 3.413391e-001 2.500000e-001
      vertex   -8.355177e-001 7.692867e-001 7.500000e-001
    endloop
  endfacet
  facet normal -1.000000e+000 -0.000000e+000 0.000000e+000
    outer loop
      vertex   -8.355177e-001 7.692867e-001 7.500000e-001
      vertex   -8.355177e-001 3.413391e-001 2.500000e-001
      vertex   -8.355177e-001 -5.247452e-001 2.500000e-001
    endloop
  endfacet
  facet normal -1.000000e+000 0.000000e+000 -0.000000e+000
    outer loop
      vertex   -8.355177e-001 -9.221251e-001 7.500000e-001
      vertex   -8.355177e-001 -5.247452e-001 2.500000e-001
      vertex   -8.355177e-001 -9.221251e-001 -2.500000e-001
    endloop
  endfacet
  facet normal -1.000000e+000 0.000000e+000 -0.000000e+000
    outer loop
      vertex   -8.355177e-001 -9.221251e-001 7.500000e-001
      vertex   -8.355177e-001 7.692867e-001 7.500000e-001
      vertex   -8.355177e-001 -5.247452e-001 2.500000e-001
    endloop
  endfacet
  facet normal -1.000000e+000 -0.000000e+000 -0.000000e+000
    outer loop
      vertex   -8.355177e-001 -5.247452e-001 2.500000e-001
      vertex   -8.355177e-001 -5.247452e-001 -2.500000e-001
      vertex   -8.355177e-001 -9.221251e-001 -2.500000e-001
    endloop
  endfacet
  facet normal 0.000000e+000 -0.000000e+000 -1.000000e+000
    outer loop
      vertex   -8.355177e-001 7.692867e-001 -2.500000e-001
      vertex   8.049500e-001 7.692867e-001 -2.500000e-001
      vertex   -8.355177e-001 3.413391e-001 -2.500000e-001
    endloop
  endfacet
  facet normal 0.000000e+000 0.000000e+000 -1.000000e+000
    outer loop
      vertex   -8.355177e-001 3.413391e-001 -2.500000e-001
      vertex   8.049500e-001 7.692867e-001 -2.500000e-001
      vertex   8.049500e-001 3.413391e-001 -2.500000e-001
    endloop
  endfacet
  facet normal 9.700313e-001 -2.429802e-001 -5.957547e-016
    outer loop
      vertex   2.204718e-001 -6.687940e-002 0.000000e+000
      vertex   2.259655e-001 -4.494734e-002 0.000000e+000
      vertex   2.259655e-001 -4.494734e-002 1.000000e-001
    endloop
  endfacet
  facet normal 9.700313e-001 -2.429802e-001 1.335829e-016
    outer loop
      vertex   2.204718e-001 -6.687940e-002 1.000000e-001
      vertex   2.204718e-001 -6.687940e-002 0.000000e+000
      vertex   2.259655e-001 -4.494734e-002 1.000000e-001
    endloop
  endfacet
  facet normal 9.415441e-001 -3.368899e-001 3.567717e-016
    outer loop
      vertex   2.204718e-001 -6.687940e-002 1.000000e-001
      vertex   2.128549e-001 -8.816738e-002 1.000000e-001
      vertex   2.204718e-001 -6.687940e-002 0.000000e+000
    endloop
  endfacet
  facet normal 9.415441e-001 -3.368899e-001 -3.077038e-016
    outer loop
      vertex   2.204718e-001 -6.687940e-002 0.000000e+000
      vertex   2.128549e-001 -8.816738e-002 1.000000e-001
      vertex   2.128549e-001 -8.816738e-002 0.000000e+000
    endloop
  endfacet
  facet normal 9.039893e-001 -4.275551e-001 -1.361709e-016
    outer loop
      vertex   2.128549e-001 -8.816738e-002 0.000000e+000
      vertex   2.128549e-001 -8.816738e-002 1.000000e-001
      vertex   2.031880e-001 -1.086063e-001 1.000000e-001
    endloop
  endfacet
  facet normal 8.577286e-001 -5.141027e-001 -4.127508e-016
    outer loop
      vertex   2.031880e-001 -1.086063e-001 0.000000e+000
      vertex   2.031880e-001 -1.086063e-001 1.000000e-001
      vertex   1.915643e-001 -1.279992e-001 1.000000e-001
    endloop
  endfacet
  facet normal 8.032075e-001 -5.956993e-001 0.000000e+000
    outer loop
      vertex   1.915643e-001 -1.279992e-001 0.000000e+000
      vertex   1.915643e-001 -1.279992e-001 1.000000e-001
      vertex   1.780958e-001 -1.461594e-001 1.000000e-001
    endloop
  endfacet
  facet normal 7.409511e-001 -6.715590e-001 -1.164367e-016
    outer loop
      vertex   1.780958e-001 -1.461594e-001 0.000000e+000
      vertex   1.780958e-001 -1.461594e-001 1.000000e-001
      vertex   1.629121e-001 -1.629121e-001 0.000000e+000
    endloop
  endfacet
  facet normal 8.032075e-001 -5.956993e-001 -2.973097e-017
    outer loop
      vertex   1.780958e-001 -1.461594e-001 0.000000e+000
      vertex   1.915643e-001 -1.279992e-001 0.000000e+000
      vertex   1.780958e-001 -1.461594e-001 1.000000e-001
    endloop
  endfacet
  facet normal 9.891765e-001 -1.467305e-001 -3.607608e-017
    outer loop
      vertex   2.259655e-001 -4.494734e-002 1.000000e-001
      vertex   2.292831e-001 -2.258241e-002 0.000000e+000
      vertex   2.292831e-001 -2.258241e-002 1.000000e-001
    endloop
  endfacet
  facet normal 9.891765e-001 -1.467305e-001 -7.124083e-016
    outer loop
      vertex   2.259655e-001 -4.494734e-002 1.000000e-001
      vertex   2.259655e-001 -4.494734e-002 0.000000e+000
      vertex   2.292831e-001 -2.258241e-002 0.000000e+000
    endloop
  endfacet
  facet normal 7.409511e-001 -6.715590e-001 1.164367e-016
    outer loop
      vertex   1.780958e-001 -1.461594e-001 1.000000e-001
      vertex   1.629121e-001 -1.629121e-001 1.000000e-001
      vertex   1.629121e-001 -1.629121e-001 0.000000e+000
    endloop
  endfacet
  facet normal 6.715590e-001 -7.409511e-001 1.922643e-016
    outer loop
      vertex   1.629121e-001 -1.629121e-001 0.000000e+000
      vertex   1.629121e-001 -1.629121e-001 1.000000e-001
      vertex   1.461594e-001 -1.780958e-001 1.000000e-001
    endloop
  endfacet
  facet normal 5.956993e-001 -8.032075e-001 -3.362522e-017
    outer loop
      vertex   1.461594e-001 -1.780958e-001 0.000000e+000
      vertex   1.461594e-001 -1.780958e-001 1.000000e-001
      vertex   1.279992e-001 -1.915643e-001 1.000000e-001
    endloop
  endfacet
  facet normal 5.141027e-001 -8.577286e-001 -1.868708e-016
    outer loop
      vertex   1.279992e-001 -1.915643e-001 0.000000e+000
      vertex   1.279992e-001 -1.915643e-001 1.000000e-001
      vertex   1.086063e-001 -2.031880e-001 1.000000e-001
    endloop
  endfacet
  facet normal 4.275551e-001 -9.039893e-001 -1.868825e-016
    outer loop
      vertex   1.086063e-001 -2.031880e-001 0.000000e+000
      vertex   1.086063e-001 -2.031880e-001 1.000000e-001
      vertex   8.816738e-002 -2.128549e-001 1.000000e-001
    endloop
  endfacet
  facet normal 3.368899e-001 -9.415441e-001 -7.126499e-016
    outer loop
      vertex   8.816738e-002 -2.128549e-001 0.000000e+000
      vertex   8.816738e-002 -2.128549e-001 1.000000e-001
      vertex   6.687940e-002 -2.204718e-001 0.000000e+000
    endloop
  endfacet
  facet normal 4.275551e-001 -9.039893e-001 -6.540814e-016
    outer loop
      vertex   8.816738e-002 -2.128549e-001 0.000000e+000
      vertex   1.086063e-001 -2.031880e-001 0.000000e+000
      vertex   8.816738e-002 -2.128549e-001 1.000000e-001
    endloop
  endfacet
  facet normal 3.368899e-001 -9.415441e-001 1.038410e-016
    outer loop
      vertex   8.816738e-002 -2.128549e-001 1.000000e-001
      vertex   6.687940e-002 -2.204718e-001 1.000000e-001
      vertex   6.687940e-002 -2.204718e-001 0.000000e+000
    endloop
  endfacet
  facet normal 2.429802e-001 -9.700313e-001 -5.227692e-017
    outer loop
      vertex   6.687940e-002 -2.204718e-001 0.000000e+000
      vertex   6.687940e-002 -2.204718e-001 1.000000e-001
      vertex   4.494734e-002 -2.259655e-001 1.000000e-001
    endloop
  endfacet
  facet normal 1.467305e-001 -9.891765e-001 0.000000e+000
    outer loop
      vertex   4.494734e-002 -2.259655e-001 0.000000e+000
      vertex   4.494734e-002 -2.259655e-001 1.000000e-001
      vertex   2.258241e-002 -2.292831e-001 1.000000e-001
    endloop
  endfacet
  facet normal 4.906767e-002 -9.987955e-001 7.940516e-016
    outer loop
      vertex   2.258241e-002 -2.292831e-001 0.000000e+000
      vertex   2.258241e-002 -2.292831e-001 1.000000e-001
      vertex   1.410747e-017 -2.303925e-001 1.000000e-001
    endloop
  endfacet
  facet normal -4.906767e-002 -9.987955e-001 2.768883e-017
    outer loop
      vertex   -4.232241e-017 -2.303925e-001 0.000000e+000
      vertex   1.410747e-017 -2.303925e-001 1.000000e-001
      vertex   -2.258241e-002 -2.292831e-001 1.000000e-001
    endloop
  endfacet
  facet normal -1.467305e-001 -9.891765e-001 -6.814371e-017
    outer loop
      vertex   -2.258241e-002 -2.292831e-001 0.000000e+000
      vertex   -2.258241e-002 -2.292831e-001 1.000000e-001
      vertex   -4.494734e-002 -2.259655e-001 0.000000e+000
    endloop
  endfacet
  facet normal -4.906767e-002 -9.987955e-001 -2.415641e-017
    outer loop
      vertex   -2.258241e-002 -2.292831e-001 0.000000e+000
      vertex   -4.232241e-017 -2.303925e-001 0.000000e+000
      vertex   -2.258241e-002 -2.292831e-001 1.000000e-001
    endloop
  endfacet
  facet normal -1.467305e-001 -9.891765e-001 -7.204252e-016
    outer loop
      vertex   -2.258241e-002 -2.292831e-001 1.000000e-001
      vertex   -4.494734e-002 -2.259655e-001 1.000000e-001
      vertex   -4.494734e-002 -2.259655e-001 0.000000e+000
    endloop
  endfacet
  facet normal -2.429802e-001 -9.700313e-001 -6.090304e-016
    outer loop
      vertex   -4.494734e-002 -2.259655e-001 0.000000e+000
      vertex   -4.494734e-002 -2.259655e-001 1.000000e-001
      vertex   -6.687940e-002 -2.204718e-001 1.000000e-001
    endloop
  endfacet
  facet normal -3.368899e-001 -9.415441e-001 4.351605e-016
    outer loop
      vertex   -6.687940e-002 -2.204718e-001 0.000000e+000
      vertex   -6.687940e-002 -2.204718e-001 1.000000e-001
      vertex   -8.816738e-002 -2.128549e-001 1.000000e-001
    endloop
  endfacet
  facet normal -4.275551e-001 -9.039893e-001 -2.296122e-016
    outer loop
      vertex   -8.816738e-002 -2.128549e-001 0.000000e+000
      vertex   -8.816738e-002 -2.128549e-001 1.000000e-001
      vertex   -1.086063e-001 -2.031880e-001 1.000000e-001
    endloop
  endfacet
  facet normal -5.141027e-001 -8.577286e-001 1.123560e-016
    outer loop
      vertex   -1.086063e-001 -2.031880e-001 0.000000e+000
      vertex   -1.086063e-001 -2.031880e-001 1.000000e-001
      vertex   -1.279992e-001 -1.915643e-001 1.000000e-001
    endloop
  endfacet
  facet normal -5.956993e-001 -8.032075e-001 -9.070095e-017
    outer loop
      vertex   -1.279992e-001 -1.915643e-001 0.000000e+000
      vertex   -1.279992e-001 -1.915643e-001 1.000000e-001
      vertex   -1.461594e-001 -1.780958e-001 0.000000e+000
    endloop
  endfacet
  facet normal -5.141027e-001 -8.577286e-001 -1.486549e-016
    outer loop
      vertex   -1.279992e-001 -1.915643e-001 0.000000e+000
      vertex   -1.086063e-001 -2.031880e-001 0.000000e+000
      vertex   -1.279992e-001 -1.915643e-001 1.000000e-001
    endloop
  endfacet
  facet normal -5.956993e-001 -8.032075e-001 -2.603776e-016
    outer loop
      vertex   -1.279992e-001 -1.915643e-001 1.000000e-001
      vertex   -1.461594e-001 -1.780958e-001 1.000000e-001
      vertex   -1.461594e-001 -1.780958e-001 0.000000e+000
    endloop
  endfacet
  facet normal -6.715590e-001 -7.409511e-001 -2.935355e-016
    outer loop
      vertex   -1.461594e-001 -1.780958e-001 0.000000e+000
      vertex   -1.461594e-001 -1.780958e-001 1.000000e-001
      vertex   -1.629121e-001 -1.629121e-001 1.000000e-001
    endloop
  endfacet
  facet normal -7.409511e-001 -6.715590e-001 4.857998e-016
    outer loop
      vertex   -1.629121e-001 -1.629121e-001 0.000000e+000
      vertex   -1.629121e-001 -1.629121e-001 1.000000e-001
      vertex   -1.780958e-001 -1.461594e-001 1.000000e-001
    endloop
  endfacet
  facet normal -8.032075e-001 -5.956993e-001 -3.948785e-017
    outer loop
      vertex   -1.780958e-001 -1.461594e-001 0.000000e+000
      vertex   -1.780958e-001 -1.461594e-001 1.000000e-001
      vertex   -1.915643e-001 -1.279992e-001 1.000000e-001
    endloop
  endfacet
  facet normal -8.577286e-001 -5.141027e-001 -2.247121e-016
    outer loop
      vertex   -1.915643e-001 -1.279992e-001 0.000000e+000
      vertex   -1.915643e-001 -1.279992e-001 1.000000e-001
      vertex   -2.031880e-001 -1.086063e-001 1.000000e-001
    endloop
  endfacet
  facet normal -9.039893e-001 -4.275551e-001 -1.868825e-016
    outer loop
      vertex   -2.031880e-001 -1.086063e-001 0.000000e+000
      vertex   -2.031880e-001 -1.086063e-001 1.000000e-001
      vertex   -2.128549e-001 -8.816738e-002 0.000000e+000
    endloop
  endfacet
  facet normal -8.577286e-001 -5.141027e-001 -2.229823e-016
    outer loop
      vertex   -2.031880e-001 -1.086063e-001 0.000000e+000
      vertex   -1.915643e-001 -1.279992e-001 0.000000e+000
      vertex   -2.031880e-001 -1.086063e-001 1.000000e-001
    endloop
  endfacet
  facet normal -9.039893e-001 -4.275551e-001 -1.868825e-016
    outer loop
      vertex   -2.031880e-001 -1.086063e-001 1.000000e-001
      vertex   -2.128549e-001 -8.816738e-002 1.000000e-001
      vertex   -2.128549e-001 -8.816738e-002 0.000000e+000
    endloop
  endfacet
  facet normal -9.415441e-001 -3.368899e-001 -1.472531e-016
    outer loop
      vertex   -2.128549e-001 -8.816738e-002 0.000000e+000
      vertex   -2.128549e-001 -8.816738e-002 1.000000e-001
      vertex   -2.204718e-001 -6.687940e-002 1.000000e-001
    endloop
  endfacet
  facet normal -9.700313e-001 -2.429802e-001 -1.858598e-016
    outer loop
      vertex   -2.204718e-001 -6.687940e-002 0.000000e+000
      vertex   -2.204718e-001 -6.687940e-002 1.000000e-001
      vertex   -2.259655e-001 -4.494734e-002 1.000000e-001
    endloop
  endfacet
  facet normal -9.891765e-001 -1.467305e-001 -7.215216e-017
    outer loop
      vertex   -2.259655e-001 -4.494734e-002 0.000000e+000
      vertex   -2.259655e-001 -4.494734e-002 1.000000e-001
      vertex   -2.292831e-001 -2.258241e-002 1.000000e-001
    endloop
  endfacet
  facet normal -9.987955e-001 -4.906767e-002 8.449888e-016
    outer loop
      vertex   -2.292831e-001 -2.258241e-002 0.000000e+000
      vertex   -2.292831e-001 -2.258241e-002 1.000000e-001
      vertex   -2.303925e-001 2.821494e-017 0.000000e+000
    endloop
  endfacet
  facet normal -9.891765e-001 -1.467305e-001 7.804380e-016
    outer loop
      vertex   -2.292831e-001 -2.258241e-002 0.000000e+000
      vertex   -2.259655e-001 -4.494734e-002 0.000000e+000
      vertex   -2.292831e-001 -2.258241e-002 1.000000e-001
    endloop
  endfacet
  facet normal -9.987955e-001 -4.906767e-002 -2.768883e-017
    outer loop
      vertex   -2.292831e-001 -2.258241e-002 1.000000e-001
      vertex   -2.303925e-001 -2.821494e-017 1.000000e-001
      vertex   -2.303925e-001 2.821494e-017 0.000000e+000
    endloop
  endfacet
  facet normal -9.987955e-001 4.906767e-002 2.768883e-017
    outer loop
      vertex   -2.303925e-001 2.821494e-017 0.000000e+000
      vertex   -2.303925e-001 -2.821494e-017 1.000000e-001
      vertex   -2.292831e-001 2.258241e-002 0.000000e+000
    endloop
  endfacet
  facet normal -9.987955e-001 4.906767e-002 -8.454745e-016
    outer loop
      vertex   -2.292831e-001 2.258241e-002 0.000000e+000
      vertex   -2.303925e-001 -2.821494e-017 1.000000e-001
      vertex   -2.292831e-001 2.258241e-002 1.000000e-001
    endloop
  endfacet
  facet normal -9.891765e-001 1.467305e-001 -7.805520e-016
    outer loop
      vertex   -2.259655e-001 4.494734e-002 1.000000e-001
      vertex   -2.292831e-001 2.258241e-002 0.000000e+000
      vertex   -2.292831e-001 2.258241e-002 1.000000e-001
    endloop
  endfacet
  facet normal -9.891765e-001 1.467305e-001 7.215216e-017
    outer loop
      vertex   -2.259655e-001 4.494734e-002 1.000000e-001
      vertex   -2.259655e-001 4.494734e-002 0.000000e+000
      vertex   -2.292831e-001 2.258241e-002 0.000000e+000
    endloop
  endfacet
  facet normal -9.700313e-001 2.429802e-001 1.189239e-016
    outer loop
      vertex   -2.259655e-001 4.494734e-002 1.000000e-001
      vertex   -2.204718e-001 6.687940e-002 1.000000e-001
      vertex   -2.259655e-001 4.494734e-002 0.000000e+000
    endloop
  endfacet
  facet normal -9.700313e-001 2.429802e-001 1.858598e-016
    outer loop
      vertex   -2.259655e-001 4.494734e-002 0.000000e+000
      vertex   -2.204718e-001 6.687940e-002 1.000000e-001
      vertex   -2.204718e-001 6.687940e-002 0.000000e+000
    endloop
  endfacet
  facet normal -9.415441e-001 3.368899e-001 2.576929e-016
    outer loop
      vertex   -2.204718e-001 6.687940e-002 0.000000e+000
      vertex   -2.204718e-001 6.687940e-002 1.000000e-001
      vertex   -2.128549e-001 8.816738e-002 1.000000e-001
    endloop
  endfacet
  facet normal -9.039893e-001 4.275551e-001 1.868825e-016
    outer loop
      vertex   -2.128549e-001 8.816738e-002 0.000000e+000
      vertex   -2.128549e-001 8.816738e-002 1.000000e-001
      vertex   -2.031880e-001 1.086063e-001 0.000000e+000
    endloop
  endfacet
  facet normal -9.415441e-001 3.368899e-001 1.486549e-016
    outer loop
      vertex   -2.128549e-001 8.816738e-002 0.000000e+000
      vertex   -2.204718e-001 6.687940e-002 0.000000e+000
      vertex   -2.128549e-001 8.816738e-002 1.000000e-001
    endloop
  endfacet
  facet normal -9.039893e-001 4.275551e-001 1.868825e-016
    outer loop
      vertex   -2.128549e-001 8.816738e-002 1.000000e-001
      vertex   -2.031880e-001 1.086063e-001 1.000000e-001
      vertex   -2.031880e-001 1.086063e-001 0.000000e+000
    endloop
  endfacet
  facet normal -8.577286e-001 5.141027e-001 2.247121e-016
    outer loop
      vertex   -2.031880e-001 1.086063e-001 0.000000e+000
      vertex   -2.031880e-001 1.086063e-001 1.000000e-001
      vertex   -1.915643e-001 1.279992e-001 1.000000e-001
    endloop
  endfacet
  facet normal -8.032075e-001 5.956993e-001 2.603776e-016
    outer loop
      vertex   -1.915643e-001 1.279992e-001 0.000000e+000
      vertex   -1.915643e-001 1.279992e-001 1.000000e-001
      vertex   -1.780958e-001 1.461594e-001 1.000000e-001
    endloop
  endfacet
  facet normal -7.409511e-001 6.715590e-001 1.164367e-016
    outer loop
      vertex   -1.780958e-001 1.461594e-001 0.000000e+000
      vertex   -1.780958e-001 1.461594e-001 1.000000e-001
      vertex   -1.629121e-001 1.629121e-001 1.000000e-001
    endloop
  endfacet
  facet normal -6.715590e-001 7.409511e-001 -4.403033e-016
    outer loop
      vertex   -1.629121e-001 1.629121e-001 0.000000e+000
      vertex   -1.629121e-001 1.629121e-001 1.000000e-001
      vertex   -1.461594e-001 1.780958e-001 1.000000e-001
    endloop
  endfacet
  facet normal -5.956993e-001 8.032075e-001 2.603776e-016
    outer loop
      vertex   -1.461594e-001 1.780958e-001 0.000000e+000
      vertex   -1.461594e-001 1.780958e-001 1.000000e-001
      vertex   -1.279992e-001 1.915643e-001 0.000000e+000
    endloop
  endfacet
  facet normal -6.715590e-001 7.409511e-001 2.973097e-016
    outer loop
      vertex   -1.461594e-001 1.780958e-001 0.000000e+000
      vertex   -1.629121e-001 1.629121e-001 0.000000e+000
      vertex   -1.461594e-001 1.780958e-001 1.000000e-001
    endloop
  endfacet
  facet normal -5.956993e-001 8.032075e-001 9.070095e-017
    outer loop
      vertex   -1.461594e-001 1.780958e-001 1.000000e-001
      vertex   -1.279992e-001 1.915643e-001 1.000000e-001
      vertex   -1.279992e-001 1.915643e-001 0.000000e+000
    endloop
  endfacet
  facet normal -5.141027e-001 8.577286e-001 1.501974e-016
    outer loop
      vertex   -1.279992e-001 1.915643e-001 0.000000e+000
      vertex   -1.279992e-001 1.915643e-001 1.000000e-001
      vertex   -1.086063e-001 2.031880e-001 1.000000e-001
    endloop
  endfacet
  facet normal -4.275551e-001 9.039893e-001 -9.344124e-017
    outer loop
      vertex   -1.086063e-001 2.031880e-001 0.000000e+000
      vertex   -1.086063e-001 2.031880e-001 1.000000e-001
      vertex   -8.816738e-002 2.128549e-001 1.000000e-001
    endloop
  endfacet
  facet normal -3.368899e-001 9.415441e-001 3.813304e-016
    outer loop
      vertex   -8.816738e-002 2.128549e-001 0.000000e+000
      vertex   -8.816738e-002 2.128549e-001 1.000000e-001
      vertex   -6.687940e-002 2.204718e-001 1.000000e-001
    endloop
  endfacet
  facet normal -2.429802e-001 9.700313e-001 -1.866857e-016
    outer loop
      vertex   -6.687940e-002 2.204718e-001 0.000000e+000
      vertex   -6.687940e-002 2.204718e-001 1.000000e-001
      vertex   -4.494734e-002 2.259655e-001 1.000000e-001
    endloop
  endfacet
  facet normal -1.467305e-001 9.891765e-001 7.204252e-016
    outer loop
      vertex   -4.494734e-002 2.259655e-001 0.000000e+000
      vertex   -4.494734e-002 2.259655e-001 1.000000e-001
      vertex   -2.258241e-002 2.292831e-001 0.000000e+000
    endloop
  endfacet
  facet normal -2.429802e-001 9.700313e-001 6.094849e-016
    outer loop
      vertex   -4.494734e-002 2.259655e-001 0.000000e+000
      vertex   -6.687940e-002 2.204718e-001 0.000000e+000
      vertex   -4.494734e-002 2.259655e-001 1.000000e-001
    endloop
  endfacet
  facet normal -1.467305e-001 9.891765e-001 6.814371e-017
    outer loop
      vertex   -4.494734e-002 2.259655e-001 1.000000e-001
      vertex   -2.258241e-002 2.292831e-001 1.000000e-001
      vertex   -2.258241e-002 2.292831e-001 0.000000e+000
    endloop
  endfacet
  facet normal -4.906767e-002 9.987955e-001 2.278772e-017
    outer loop
      vertex   -2.258241e-002 2.292831e-001 0.000000e+000
      vertex   -2.258241e-002 2.292831e-001 1.000000e-001
      vertex   -4.232241e-017 2.303925e-001 1.000000e-001
    endloop
  endfacet
  facet normal 4.906767e-002 9.987955e-001 2.768883e-017
    outer loop
      vertex   1.410747e-017 2.303925e-001 0.000000e+000
      vertex   -4.232241e-017 2.303925e-001 1.000000e-001
      vertex   2.258241e-002 2.292831e-001 1.000000e-001
    endloop
  endfacet
  facet normal 1.467305e-001 9.891765e-001 -6.282308e-016
    outer loop
      vertex   2.258241e-002 2.292831e-001 0.000000e+000
      vertex   2.258241e-002 2.292831e-001 1.000000e-001
      vertex   4.494734e-002 2.259655e-001 1.000000e-001
    endloop
  endfacet
  facet normal 2.429802e-001 9.700313e-001 -0.000000e+000
    outer loop
      vertex   4.494734e-002 2.259655e-001 0.000000e+000
      vertex   4.494734e-002 2.259655e-001 1.000000e-001
      vertex   6.687940e-002 2.204718e-001 1.000000e-001
    endloop
  endfacet
  facet normal 3.368899e-001 9.415441e-001 -1.038410e-016
    outer loop
      vertex   6.687940e-002 2.204718e-001 0.000000e+000
      vertex   6.687940e-002 2.204718e-001 1.000000e-001
      vertex   8.816738e-002 2.128549e-001 0.000000e+000
    endloop
  endfacet
  facet normal 2.429802e-001 9.700313e-001 5.202920e-017
    outer loop
      vertex   6.687940e-002 2.204718e-001 0.000000e+000
      vertex   4.494734e-002 2.259655e-001 0.000000e+000
      vertex   6.687940e-002 2.204718e-001 1.000000e-001
    endloop
  endfacet
  facet normal 3.368899e-001 9.415441e-001 7.126499e-016
    outer loop
      vertex   6.687940e-002 2.204718e-001 1.000000e-001
      vertex   8.816738e-002 2.128549e-001 1.000000e-001
      vertex   8.816738e-002 2.128549e-001 0.000000e+000
    endloop
  endfacet
  facet normal 4.275551e-001 9.039893e-001 6.500978e-016
    outer loop
      vertex   8.816738e-002 2.128549e-001 0.000000e+000
      vertex   8.816738e-002 2.128549e-001 1.000000e-001
      vertex   1.086063e-001 2.031880e-001 1.000000e-001
    endloop
  endfacet
  facet normal 5.141027e-001 8.577286e-001 2.247121e-016
    outer loop
      vertex   1.086063e-001 2.031880e-001 0.000000e+000
      vertex   1.086063e-001 2.031880e-001 1.000000e-001
      vertex   1.279992e-001 1.915643e-001 1.000000e-001
    endloop
  endfacet
  facet normal 5.956993e-001 8.032075e-001 2.998654e-016
    outer loop
      vertex   1.279992e-001 1.915643e-001 0.000000e+000
      vertex   1.279992e-001 1.915643e-001 1.000000e-001
      vertex   1.461594e-001 1.780958e-001 1.000000e-001
    endloop
  endfacet
  facet normal 6.715590e-001 7.409511e-001 2.177080e-016
    outer loop
      vertex   1.461594e-001 1.780958e-001 0.000000e+000
      vertex   1.461594e-001 1.780958e-001 1.000000e-001
      vertex   1.629121e-001 1.629121e-001 1.000000e-001
    endloop
  endfacet
  facet normal 7.409511e-001 6.715590e-001 -1.164367e-016
    outer loop
      vertex   1.629121e-001 1.629121e-001 0.000000e+000
      vertex   1.629121e-001 1.629121e-001 1.000000e-001
      vertex   1.780958e-001 1.461594e-001 0.000000e+000
    endloop
  endfacet
  facet normal 6.715590e-001 7.409511e-001 -1.932513e-016
    outer loop
      vertex   1.629121e-001 1.629121e-001 0.000000e+000
      vertex   1.461594e-001 1.780958e-001 0.000000e+000
      vertex   1.629121e-001 1.629121e-001 1.000000e-001
    endloop
  endfacet
  facet normal 7.409511e-001 6.715590e-001 1.164367e-016
    outer loop
      vertex   1.629121e-001 1.629121e-001 1.000000e-001
      vertex   1.780958e-001 1.461594e-001 1.000000e-001
      vertex   1.780958e-001 1.461594e-001 0.000000e+000
    endloop
  endfacet
  facet normal 8.032075e-001 5.956993e-001 3.948785e-017
    outer loop
      vertex   1.780958e-001 1.461594e-001 0.000000e+000
      vertex   1.780958e-001 1.461594e-001 1.000000e-001
      vertex   1.915643e-001 1.279992e-001 1.000000e-001
    endloop
  endfacet
  facet normal 8.577286e-001 5.141027e-001 -0.000000e+000
    outer loop
      vertex   1.915643e-001 1.279992e-001 0.000000e+000
      vertex   1.915643e-001 1.279992e-001 1.000000e-001
      vertex   2.031880e-001 1.086063e-001 1.000000e-001
    endloop
  endfacet
  facet normal 9.039893e-001 4.275551e-001 5.099359e-016
    outer loop
      vertex   2.031880e-001 1.086063e-001 0.000000e+000
      vertex   2.031880e-001 1.086063e-001 1.000000e-001
      vertex   2.128549e-001 8.816738e-002 1.000000e-001
    endloop
  endfacet
  facet normal 9.415441e-001 3.368899e-001 3.077038e-016
    outer loop
      vertex   2.128549e-001 8.816738e-002 0.000000e+000
      vertex   2.128549e-001 8.816738e-002 1.000000e-001
      vertex   2.204718e-001 6.687940e-002 1.000000e-001
    endloop
  endfacet
  facet normal 9.700313e-001 2.429802e-001 -1.335829e-016
    outer loop
      vertex   2.204718e-001 6.687940e-002 0.000000e+000
      vertex   2.204718e-001 6.687940e-002 1.000000e-001
      vertex   2.259655e-001 4.494734e-002 0.000000e+000
    endloop
  endfacet
  facet normal 9.415441e-001 3.368899e-001 -3.567717e-016
    outer loop
      vertex   2.204718e-001 6.687940e-002 0.000000e+000
      vertex   2.128549e-001 8.816738e-002 0.000000e+000
      vertex   2.204718e-001 6.687940e-002 1.000000e-001
    endloop
  endfacet
  facet normal 9.700313e-001 2.429802e-001 5.957547e-016
    outer loop
      vertex   2.204718e-001 6.687940e-002 1.000000e-001
      vertex   2.259655e-001 4.494734e-002 1.000000e-001
      vertex   2.259655e-001 4.494734e-002 0.000000e+000
    endloop
  endfacet
  facet normal 9.891765e-001 1.467305e-001 7.124083e-016
    outer loop
      vertex   2.259655e-001 4.494734e-002 0.000000e+000
      vertex   2.259655e-001 4.494734e-002 1.000000e-001
      vertex   2.292831e-001 2.258241e-002 1.000000e-001
    endloop
  endfacet
  facet normal 9.987955e-001 4.906767e-002 1.206409e-017
    outer loop
      vertex   2.292831e-001 2.258241e-002 0.000000e+000
      vertex   2.292831e-001 2.258241e-002 1.000000e-001
      vertex   2.303925e-001 0.000000e+000 1.000000e-001
    endloop
  endfacet
  facet normal 9.987955e-001 -4.906767e-002 0.000000e+000
    outer loop
      vertex   2.303925e-001 0.000000e+000 0.000000e+000
      vertex   2.303925e-001 0.000000e+000 1.000000e-001
      vertex   2.292831e-001 -2.258241e-002 1.000000e-001
    endloop
  endfacet
  facet normal 9.987955e-001 -4.906767e-002 -1.114911e-017
    outer loop
      vertex   2.292831e-001 -2.258241e-002 0.000000e+000
      vertex   2.303925e-001 0.000000e+000 0.000000e+000
      vertex   2.292831e-001 -2.258241e-002 1.000000e-001
    endloop
  endfacet
  facet normal 9.987955e-001 4.906767e-002 0.000000e+000
    outer loop
      vertex   2.303925e-001 0.000000e+000 0.000000e+000
      vertex   2.292831e-001 2.258241e-002 0.000000e+000
      vertex   2.303925e-001 0.000000e+000 1.000000e-001
    endloop
  endfacet
  facet normal 9.891765e-001 1.467305e-001 3.716371e-017
    outer loop
      vertex   2.292831e-001 2.258241e-002 0.000000e+000
      vertex   2.259655e-001 4.494734e-002 0.000000e+000
      vertex   2.292831e-001 2.258241e-002 1.000000e-001
    endloop
  endfacet
  facet normal 9.039893e-001 4.275551e-001 1.486549e-016
    outer loop
      vertex   2.128549e-001 8.816738e-002 0.000000e+000
      vertex   2.031880e-001 1.086063e-001 0.000000e+000
      vertex   2.128549e-001 8.816738e-002 1.000000e-001
    endloop
  endfacet
  facet normal 8.577286e-001 5.141027e-001 4.162336e-016
    outer loop
      vertex   2.031880e-001 1.086063e-001 0.000000e+000
      vertex   1.915643e-001 1.279992e-001 0.000000e+000
      vertex   2.031880e-001 1.086063e-001 1.000000e-001
    endloop
  endfacet
  facet normal 8.032075e-001 5.956993e-001 0.000000e+000
    outer loop
      vertex   1.915643e-001 1.279992e-001 0.000000e+000
      vertex   1.780958e-001 1.461594e-001 0.000000e+000
      vertex   1.915643e-001 1.279992e-001 1.000000e-001
    endloop
  endfacet
  facet normal 5.956993e-001 8.032075e-001 2.973097e-017
    outer loop
      vertex   1.461594e-001 1.780958e-001 0.000000e+000
      vertex   1.279992e-001 1.915643e-001 0.000000e+000
      vertex   1.461594e-001 1.780958e-001 1.000000e-001
    endloop
  endfacet
  facet normal 5.141027e-001 8.577286e-001 1.783858e-016
    outer loop
      vertex   1.279992e-001 1.915643e-001 0.000000e+000
      vertex   1.086063e-001 2.031880e-001 0.000000e+000
      vertex   1.279992e-001 1.915643e-001 1.000000e-001
    endloop
  endfacet
  facet normal 4.275551e-001 9.039893e-001 1.932513e-016
    outer loop
      vertex   1.086063e-001 2.031880e-001 0.000000e+000
      vertex   8.816738e-002 2.128549e-001 0.000000e+000
      vertex   1.086063e-001 2.031880e-001 1.000000e-001
    endloop
  endfacet
  facet normal 1.467305e-001 9.891765e-001 0.000000e+000
    outer loop
      vertex   4.494734e-002 2.259655e-001 0.000000e+000
      vertex   2.258241e-002 2.292831e-001 0.000000e+000
      vertex   4.494734e-002 2.259655e-001 1.000000e-001
    endloop
  endfacet
  facet normal 4.906767e-002 9.987955e-001 -7.953035e-016
    outer loop
      vertex   2.258241e-002 2.292831e-001 0.000000e+000
      vertex   1.410747e-017 2.303925e-001 0.000000e+000
      vertex   2.258241e-002 2.292831e-001 1.000000e-001
    endloop
  endfacet
  facet normal -4.906767e-002 9.987955e-001 -2.601460e-017
    outer loop
      vertex   1.410747e-017 2.303925e-001 0.000000e+000
      vertex   -2.258241e-002 2.292831e-001 0.000000e+000
      vertex   -4.232241e-017 2.303925e-001 1.000000e-001
    endloop
  endfacet
  facet normal -3.368899e-001 9.415441e-001 -4.310991e-016
    outer loop
      vertex   -6.687940e-002 2.204718e-001 0.000000e+000
      vertex   -8.816738e-002 2.128549e-001 0.000000e+000
      vertex   -6.687940e-002 2.204718e-001 1.000000e-001
    endloop
  endfacet
  facet normal -4.275551e-001 9.039893e-001 2.229823e-016
    outer loop
      vertex   -8.816738e-002 2.128549e-001 0.000000e+000
      vertex   -1.086063e-001 2.031880e-001 0.000000e+000
      vertex   -8.816738e-002 2.128549e-001 1.000000e-001
    endloop
  endfacet
  facet normal -5.141027e-001 8.577286e-001 -1.189239e-016
    outer loop
      vertex   -1.086063e-001 2.031880e-001 0.000000e+000
      vertex   -1.279992e-001 1.915643e-001 0.000000e+000
      vertex   -1.086063e-001 2.031880e-001 1.000000e-001
    endloop
  endfacet
  facet normal -7.409511e-001 6.715590e-001 -4.905610e-016
    outer loop
      vertex   -1.629121e-001 1.629121e-001 0.000000e+000
      vertex   -1.780958e-001 1.461594e-001 0.000000e+000
      vertex   -1.629121e-001 1.629121e-001 1.000000e-001
    endloop
  endfacet
  facet normal -8.032075e-001 5.956993e-001 4.459646e-017
    outer loop
      vertex   -1.780958e-001 1.461594e-001 0.000000e+000
      vertex   -1.915643e-001 1.279992e-001 0.000000e+000
      vertex   -1.780958e-001 1.461594e-001 1.000000e-001
    endloop
  endfacet
  facet normal -8.577286e-001 5.141027e-001 2.229823e-016
    outer loop
      vertex   -1.915643e-001 1.279992e-001 0.000000e+000
      vertex   -2.031880e-001 1.086063e-001 0.000000e+000
      vertex   -1.915643e-001 1.279992e-001 1.000000e-001
    endloop
  endfacet
  facet normal -9.700313e-001 -2.429802e-001 -1.189239e-016
    outer loop
      vertex   -2.259655e-001 -4.494734e-002 0.000000e+000
      vertex   -2.204718e-001 -6.687940e-002 0.000000e+000
      vertex   -2.259655e-001 -4.494734e-002 1.000000e-001
    endloop
  endfacet
  facet normal -9.415441e-001 -3.368899e-001 -2.675787e-016
    outer loop
      vertex   -2.204718e-001 -6.687940e-002 0.000000e+000
      vertex   -2.128549e-001 -8.816738e-002 0.000000e+000
      vertex   -2.204718e-001 -6.687940e-002 1.000000e-001
    endloop
  endfacet
  facet normal -8.032075e-001 -5.956993e-001 -2.527133e-016
    outer loop
      vertex   -1.915643e-001 -1.279992e-001 0.000000e+000
      vertex   -1.780958e-001 -1.461594e-001 0.000000e+000
      vertex   -1.915643e-001 -1.279992e-001 1.000000e-001
    endloop
  endfacet
  facet normal -7.409511e-001 -6.715590e-001 -1.189239e-016
    outer loop
      vertex   -1.780958e-001 -1.461594e-001 0.000000e+000
      vertex   -1.629121e-001 -1.629121e-001 0.000000e+000
      vertex   -1.780958e-001 -1.461594e-001 1.000000e-001
    endloop
  endfacet
  facet normal -6.715590e-001 -7.409511e-001 4.459646e-016
    outer loop
      vertex   -1.629121e-001 -1.629121e-001 0.000000e+000
      vertex   -1.461594e-001 -1.780958e-001 0.000000e+000
      vertex   -1.629121e-001 -1.629121e-001 1.000000e-001
    endloop
  endfacet
  facet normal -4.275551e-001 -9.039893e-001 8.919291e-017
    outer loop
      vertex   -1.086063e-001 -2.031880e-001 0.000000e+000
      vertex   -8.816738e-002 -2.128549e-001 0.000000e+000
      vertex   -1.086063e-001 -2.031880e-001 1.000000e-001
    endloop
  endfacet
  facet normal -3.368899e-001 -9.415441e-001 -3.716371e-016
    outer loop
      vertex   -8.816738e-002 -2.128549e-001 0.000000e+000
      vertex   -6.687940e-002 -2.204718e-001 0.000000e+000
      vertex   -8.816738e-002 -2.128549e-001 1.000000e-001
    endloop
  endfacet
  facet normal -2.429802e-001 -9.700313e-001 1.858186e-016
    outer loop
      vertex   -6.687940e-002 -2.204718e-001 0.000000e+000
      vertex   -4.494734e-002 -2.259655e-001 0.000000e+000
      vertex   -6.687940e-002 -2.204718e-001 1.000000e-001
    endloop
  endfacet
  facet normal 4.906767e-002 -9.987955e-001 -2.601460e-017
    outer loop
      vertex   -4.232241e-017 -2.303925e-001 0.000000e+000
      vertex   2.258241e-002 -2.292831e-001 0.000000e+000
      vertex   1.410747e-017 -2.303925e-001 1.000000e-001
    endloop
  endfacet
  facet normal 1.467305e-001 -9.891765e-001 6.280668e-016
    outer loop
      vertex   2.258241e-002 -2.292831e-001 0.000000e+000
      vertex   4.494734e-002 -2.259655e-001 0.000000e+000
      vertex   2.258241e-002 -2.292831e-001 1.000000e-001
    endloop
  endfacet
  facet normal 2.429802e-001 -9.700313e-001 0.000000e+000
    outer loop
      vertex   4.494734e-002 -2.259655e-001 0.000000e+000
      vertex   6.687940e-002 -2.204718e-001 0.000000e+000
      vertex   4.494734e-002 -2.259655e-001 1.000000e-001
    endloop
  endfacet
  facet normal 5.141027e-001 -8.577286e-001 -2.378478e-016
    outer loop
      vertex   1.086063e-001 -2.031880e-001 0.000000e+000
      vertex   1.279992e-001 -1.915643e-001 0.000000e+000
      vertex   1.086063e-001 -2.031880e-001 1.000000e-001
    endloop
  endfacet
  facet normal 5.956993e-001 -8.032075e-001 -2.973097e-016
    outer loop
      vertex   1.279992e-001 -1.915643e-001 0.000000e+000
      vertex   1.461594e-001 -1.780958e-001 0.000000e+000
      vertex   1.279992e-001 -1.915643e-001 1.000000e-001
    endloop
  endfacet
  facet normal 6.715590e-001 -7.409511e-001 -2.081168e-016
    outer loop
      vertex   1.461594e-001 -1.780958e-001 0.000000e+000
      vertex   1.629121e-001 -1.629121e-001 0.000000e+000
      vertex   1.461594e-001 -1.780958e-001 1.000000e-001
    endloop
  endfacet
  facet normal 8.577286e-001 -5.141027e-001 0.000000e+000
    outer loop
      vertex   1.915643e-001 -1.279992e-001 0.000000e+000
      vertex   2.031880e-001 -1.086063e-001 0.000000e+000
      vertex   1.915643e-001 -1.279992e-001 1.000000e-001
    endloop
  endfacet
  facet normal 9.039893e-001 -4.275551e-001 -5.202920e-016
    outer loop
      vertex   2.031880e-001 -1.086063e-001 0.000000e+000
      vertex   2.128549e-001 -8.816738e-002 0.000000e+000
      vertex   2.031880e-001 -1.086063e-001 1.000000e-001
    endloop
  endfacet
  facet normal 0.000000e+000 0.000000e+000 1.000000e+000
    outer loop
      vertex   2.258241e-002 2.292831e-001 1.000000e-001
      vertex   -2.258241e-002 2.292831e-001 1.000000e-001
      vertex   4.494734e-002 2.259655e-001 1.000000e-001
    endloop
  endfacet
  facet normal 0.000000e+000 0.000000e+000 1.000000e+000
    outer loop
      vertex   2.258241e-002 2.292831e-001 1.000000e-001
      vertex   -4.232241e-017 2.303925e-001 1.000000e-001
      vertex   -2.258241e-002 2.292831e-001 1.000000e-001
    endloop
  endfacet
  facet normal 0.000000e+000 0.000000e+000 1.000000e+000
    outer loop
      vertex   4.494734e-002 2.259655e-001 1.000000e-001
      vertex   -4.494734e-002 2.259655e-001 1.000000e-001
      vertex   6.687940e-002 2.204718e-001 1.000000e-001
    endloop
  endfacet
  facet normal 0.000000e+000 0.000000e+000 1.000000e+000
    outer loop
      vertex   4.494734e-002 2.259655e-001 1.000000e-001
      vertex   -2.258241e-002 2.292831e-001 1.000000e-001
      vertex   -4.494734e-002 2.259655e-001 1.000000e-001
    endloop
  endfacet
  facet normal 0.000000e+000 0.000000e+000 1.000000e+000
    outer loop
      vertex   6.687940e-002 2.204718e-001 1.000000e-001
      vertex   -6.687940e-002 2.204718e-001 1.000000e-001
      vertex   8.816738e-002 2.128549e-001 1.000000e-001
    endloop
  endfacet
  facet normal 0.000000e+000 0.000000e+000 1.000000e+000
    outer loop
      vertex   6.687940e-002 2.204718e-001 1.000000e-001
      vertex   -4.494734e-002 2.259655e-001 1.000000e-001
      vertex   -6.687940e-002 2.204718e-001 1.000000e-001
    endloop
  endfacet
  facet normal 0.000000e+000 0.000000e+000 1.000000e+000
    outer loop
      vertex   8.816738e-002 2.128549e-001 1.000000e-001
      vertex   -8.816738e-002 2.128549e-001 1.000000e-001
      vertex   1.086063e-001 2.031880e-001 1.000000e-001
    endloop
  endfacet
  facet normal 0.000000e+000 0.000000e+000 1.000000e+000
    outer loop
      vertex   8.816738e-002 2.128549e-001 1.000000e-001
      vertex   -6.687940e-002 2.204718e-001 1.000000e-001
      vertex   -8.816738e-002 2.128549e-001 1.000000e-001
    endloop
  endfacet
  facet normal 0.000000e+000 0.000000e+000 1.000000e+000
    outer loop
      vertex   1.086063e-001 2.031880e-001 1.000000e-001
      vertex   -1.086063e-001 2.031880e-001 1.000000e-001
      vertex   1.279992e-001 1.915643e-001 1.000000e-001
    endloop
  endfacet
  facet normal 0.000000e+000 0.000000e+000 1.000000e+000
    outer loop
      vertex   1.086063e-001 2.031880e-001 1.000000e-001
      vertex   -8.816738e-002 2.128549e-001 1.000000e-001
      vertex   -1.086063e-001 2.031880e-001 1.000000e-001
    endloop
  endfacet
  facet normal 0.000000e+000 0.000000e+000 1.000000e+000
    outer loop
      vertex   1.279992e-001 1.915643e-001 1.000000e-001
      vertex   -1.279992e-001 1.915643e-001 1.000000e-001
      vertex   1.461594e-001 1.780958e-001 1.000000e-001
    endloop
  endfacet
  facet normal 0.000000e+000 0.000000e+000 1.000000e+000
    outer loop
      vertex   1.279992e-001 1.915643e-001 1.000000e-001
      vertex   -1.086063e-001 2.031880e-001 1.000000e-001
      vertex   -1.279992e-001 1.915643e-001 1.000000e-001
    endloop
  endfacet
  facet normal 0.000000e+000 0.000000e+000 1.000000e+000
    outer loop
      vertex   1.461594e-001 1.780958e-001 1.000000e-001
      vertex   -1.461594e-001 1.780958e-001 1.000000e-001
      vertex   1.629121e-001 1.629121e-001 1.000000e-001
    endloop
  endfacet
  facet normal 0.000000e+000 0.000000e+000 1.000000e+000
    outer loop
      vertex   1.461594e-001 1.780958e-001 1.000000e-001
      vertex   -1.279992e-001 1.915643e-001 1.000000e-001
      vertex   -1.461594e-001 1.780958e-001 1.000000e-001
    endloop
  endfacet
  facet normal 0.000000e+000 0.000000e+000 1.000000e+000
    outer loop
      vertex   1.629121e-001 1.629121e-001 1.000000e-001
      vertex   -1.629121e-001 1.629121e-001 1.000000e-001
      vertex   1.780958e-001 1.461594e-001 1.000000e-001
    endloop
  endfacet
  facet normal 0.000000e+000 0.000000e+000 1.000000e+000
    outer loop
      vertex   1.629121e-001 1.629121e-001 1.000000e-001
      vertex   -1.461594e-001 1.780958e-001 1.000000e-001
      vertex   -1.629121e-001 1.629121e-001 1.000000e-001
    endloop
  endfacet
  facet normal -0.000000e+000 0.000000e+000 1.000000e+000
    outer loop
      vertex   -1.629121e-001 1.629121e-001 1.000000e-001
      vertex   -1.780958e-001 1.461594e-001 1.000000e-001
      vertex   1.780958e-001 1.461594e-001 1.000000e-001
    endloop
  endfacet
  facet normal 0.000000e+000 0.000000e+000 1.000000e+000
    outer loop
      vertex   1.780958e-001 1.461594e-001 1.000000e-001
      vertex   -1.780958e-001 1.461594e-001 1.000000e-001
      vertex   1.915643e-001 1.279992e-001 1.000000e-001
    endloop
  endfacet
  facet normal 0.000000e+000 0.000000e+000 1.000000e+000
    outer loop
      vertex   1.915643e-001 1.279992e-001 1.000000e-001
      vertex   -1.780958e-001 1.461594e-001 1.000000e-001
      vertex   -1.915643e-001 1.279992e-001 1.000000e-001
    endloop
  endfacet
  facet normal 0.000000e+000 0.000000e+000 1.000000e+000
    outer loop
      vertex   2.031880e-001 1.086063e-001 1.000000e-001
      vertex   -1.915643e-001 1.279992e-001 1.000000e-001
      vertex   -2.031880e-001 1.086063e-001 1.000000e-001
    endloop
  endfacet
  facet normal 0.000000e+000 0.000000e+000 1.000000e+000
    outer loop
      vertex   2.128549e-001 8.816738e-002 1.000000e-001
      vertex   -2.031880e-001 1.086063e-001 1.000000e-001
      vertex   -2.128549e-001 8.816738e-002 1.000000e-001
    endloop
  endfacet
  facet normal 0.000000e+000 0.000000e+000 1.000000e+000
    outer loop
      vertex   2.204718e-001 6.687940e-002 1.000000e-001
      vertex   -2.128549e-001 8.816738e-002 1.000000e-001
      vertex   -2.204718e-001 6.687940e-002 1.000000e-001
    endloop
  endfacet
  facet normal 0.000000e+000 0.000000e+000 1.000000e+000
    outer loop
      vertex   2.259655e-001 4.494734e-002 1.000000e-001
      vertex   -2.204718e-001 6.687940e-002 1.000000e-001
      vertex   -2.259655e-001 4.494734e-002 1.000000e-001
    endloop
  endfacet
  facet normal 0.000000e+000 0.000000e+000 1.000000e+000
    outer loop
      vertex   2.292831e-001 2.258241e-002 1.000000e-001
      vertex   -2.259655e-001 4.494734e-002 1.000000e-001
      vertex   -2.292831e-001 2.258241e-002 1.000000e-001
    endloop
  endfacet
  facet normal 0.000000e+000 0.000000e+000 1.000000e+000
    outer loop
      vertex   2.303925e-001 0.000000e+000 1.000000e-001
      vertex   -2.292831e-001 2.258241e-002 1.000000e-001
      vertex   -2.303925e-001 -2.821494e-017 1.000000e-001
    endloop
  endfacet
  facet normal 0.000000e+000 0.000000e+000 1.000000e+000
    outer loop
      vertex   2.292831e-001 -2.258241e-002 1.000000e-001
      vertex   -2.303925e-001 -2.821494e-017 1.000000e-001
      vertex   -2.292831e-001 -2.258241e-002 1.000000e-001
    endloop
  endfacet
  facet normal 0.000000e+000 0.000000e+000 1.000000e+000
    outer loop
      vertex   2.259655e-001 -4.494734e-002 1.000000e-001
      vertex   -2.292831e-001 -2.258241e-002 1.000000e-001
      vertex   -2.259655e-001 -4.494734e-002 1.000000e-001
    endloop
  endfacet
  facet normal 0.000000e+000 0.000000e+000 1.000000e+000
    outer loop
      vertex   2.204718e-001 -6.687940e-002 1.000000e-001
      vertex   -2.259655e-001 -4.494734e-002 1.000000e-001
      vertex   -2.204718e-001 -6.687940e-002 1.000000e-001
    endloop
  endfacet
  facet normal 0.000000e+000 0.000000e+000 1.000000e+000
    outer loop
      vertex   2.128549e-001 -8.816738e-002 1.000000e-001
      vertex   -2.204718e-001 -6.687940e-002 1.000000e-001
      vertex   -2.128549e-001 -8.816738e-002 1.000000e-001
    endloop
  endfacet
  facet normal 0.000000e+000 0.000000e+000 1.000000e+000
    outer loop
      vertex   2.031880e-001 -1.086063e-001 1.000000e-001
      vertex   -2.128549e-001 -8.816738e-002 1.000000e-001
      vertex   -2.031880e-001 -1.086063e-001 1.000000e-001
    endloop
  endfacet
  facet normal 0.000000e+000 0.000000e+000 1.000000e+000
    outer loop
      vertex   1.915643e-001 -1.279992e-001 1.000000e-001
      vertex   -2.031880e-001 -1.086063e-001 1.000000e-001
      vertex   -1.915643e-001 -1.279992e-001 1.000000e-001
    endloop
  endfacet
  facet normal 0.000000e+000 0.000000e+000 1.000000e+000
    outer loop
      vertex   1.780958e-001 -1.461594e-001 1.000000e-001
      vertex   -1.915643e-001 -1.279992e-001 1.000000e-001
      vertex   -1.780958e-001 -1.461594e-001 1.000000e-001
    endloop
  endfacet
  facet normal 0.000000e+000 0.000000e+000 1.000000e+000
    outer loop
      vertex   1.629121e-001 -1.629121e-001 1.000000e-001
      vertex   -1.780958e-001 -1.461594e-001 1.000000e-001
      vertex   -1.629121e-001 -1.629121e-001 1.000000e-001
    endloop
  endfacet
  facet normal 0.000000e+000 0.000000e+000 1.000000e+000
    outer loop
      vertex   1.461594e-001 -1.780958e-001 1.000000e-001
      vertex   -1.629121e-001 -1.629121e-001 1.000000e-001
      vertex   -1.461594e-001 -1.780958e-001 1.000000e-001
    endloop
  endfacet
  facet normal 0.000000e+000 0.000000e+000 1.000000e+000
    outer loop
      vertex   1.279992e-001 -1.915643e-001 1.000000e-001
      vertex   -1.461594e-001 -1.780958e-001 1.000000e-001
      vertex   -1.279992e-001 -1.915643e-001 1.000000e-001
    endloop
  endfacet
  facet normal 0.000000e+000 0.000000e+000 1.000000e+000
    outer loop
      vertex   1.086063e-001 -2.031880e-001 1.000000e-001
      vertex   -1.279992e-001 -1.915643e-001 1.000000e-001
      vertex   -1.086063e-001 -2.031880e-001 1.000000e-001
    endloop
  endfacet
  facet normal 0.000000e+000 0.000000e+000 1.000000e+000
    outer loop
      vertex   8.816738e-002 -2.128549e-001 1.000000e-001
      vertex   -1.086063e-001 -2.031880e-001 1.000000e-001
      vertex   -8.816738e-002 -2.128549e-001 1.000000e-001
    endloop
  endfacet
  facet normal 0.000000e+000 0.000000e+000 1.000000e+000
    outer loop
      vertex   6.687940e-002 -2.204718e-001 1.000000e-001
      vertex   -8.816738e-002 -2.128549e-001 1.000000e-001
      vertex   -6.687940e-002 -2.204718e-001 1.000000e-001
    endloop
  endfacet
  facet normal 0.000000e+000 0.000000e+000 1.000000e+000
    outer loop
      vertex   4.494734e-002 -2.259655e-001 1.000000e-001
      vertex   -6.687940e-002 -2.204718e-001 1.000000e-001
      vertex   -4.494734e-002 -2.259655e-001 1.000000e-001
    endloop
  endfacet
  facet normal 0.000000e+000 0.000000e+000 1.000000e+000
    outer loop
      vertex   2.258241e-002 -2.292831e-001 1.000000e-001
      vertex   -4.494734e-002 -2.259655e-001 1.000000e-001
      vertex   -2.258241e-002 -2.292831e-001 1.000000e-001
    endloop
  endfacet
  facet normal 0.000000e+000 -0.000000e+000 1.000000e+000
    outer loop
      vertex   1.410747e-017 -2.303925e-001 1.000000e-001
      vertex   2.258241e-002 -2.292831e-001 1.000000e-001
      vertex   -2.258241e-002 -2.292831e-001 1.000000e-001
    endloop
  endfacet
  facet normal 0.000000e+000 -0.000000e+000 1.000000e+000
    outer loop
      vertex   2.258241e-002 -2.292831e-001 1.000000e-001
      vertex   4.494734e-002 -2.259655e-001 1.000000e-001
      vertex   -4.494734e-002 -2.259655e-001 1.000000e-001
    endloop
  endfacet
  facet normal 0.000000e+000 -0.000000e+000 1.000000e+000
    outer loop
      vertex   4.494734e-002 -2.259655e-001 1.000000e-001
      vertex   6.687940e-002 -2.204718e-001 1.000000e-001
      vertex   -6.687940e-002 -2.204718e-001 1.000000e-001
    endloop
  endfacet
  facet normal 0.000000e+000 -0.000000e+000 1.000000e+000
    outer loop
      vertex   6.687940e-002 -2.204718e-001 1.000000e-001
      vertex   8.816738e-002 -2.128549e-001 1.000000e-001
      vertex   -8.816738e-002 -2.128549e-001 1.000000e-001
    endloop
  endfacet
  facet normal 0.000000e+000 -0.000000e+000 1.000000e+000
    outer loop
      vertex   8.816738e-002 -2.128549e-001 1.000000e-001
      vertex   1.086063e-001 -2.031880e-001 1.000000e-001
      vertex   -1.086063e-001 -2.031880e-001 1.000000e-001
    endloop
  endfacet
  facet normal 0.000000e+000 -0.000000e+000 1.000000e+000
    outer loop
      vertex   1.086063e-001 -2.031880e-001 1.000000e-001
      vertex   1.279992e-001 -1.915643e-001 1.000000e-001
      vertex   -1.279992e-001 -1.915643e-001 1.000000e-001
    endloop
  endfacet
  facet normal 0.000000e+000 -0.000000e+000 1.000000e+000
    outer loop
      vertex   1.279992e-001 -1.915643e-001 1.000000e-001
      vertex   1.461594e-001 -1.780958e-001 1.000000e-001
      vertex   -1.461594e-001 -1.780958e-001 1.000000e-001
    endloop
  endfacet
  facet normal 0.000000e+000 -0.000000e+000 1.000000e+000
    outer loop
      vertex   1.461594e-001 -1.780958e-001 1.000000e-001
      vertex   1.629121e-001 -1.629121e-001 1.000000e-001
      vertex   -1.629121e-001 -1.629121e-001 1.000000e-001
    endloop
  endfacet
  facet normal 0.000000e+000 -0.000000e+000 1.000000e+000
    outer loop
      vertex   1.629121e-001 -1.629121e-001 1.000000e-001
      vertex   1.780958e-001 -1.461594e-001 1.000000e-001
      vertex   -1.780958e-001 -1.461594e-001 1.000000e-001
    endloop
  endfacet
  facet normal 0.000000e+000 -0.000000e+000 1.000000e+000
    outer loop
      vertex   1.780958e-001 -1.461594e-001 1.000000e-001
      vertex   1.915643e-001 -1.279992e-001 1.000000e-001
      vertex   -1.915643e-001 -1.279992e-001 1.000000e-001
    endloop
  endfacet
  facet normal 0.000000e+000 -0.000000e+000 1.000000e+000
    outer loop
      vertex   1.915643e-001 -1.279992e-001 1.000000e-001
      vertex   2.031880e-001 -1.086063e-001 1.000000e-001
      vertex   -2.031880e-001 -1.086063e-001 1.000000e-001
    endloop
  endfacet
  facet normal 0.000000e+000 -0.000000e+000 1.000000e+000
    outer loop
      vertex   2.031880e-001 -1.086063e-001 1.000000e-001
      vertex   2.128549e-001 -8.816738e-002 1.000000e-001
      vertex   -2.128549e-001 -8.816738e-002 1.000000e-001
    endloop
  endfacet
  facet normal 0.000000e+000 -0.000000e+000 1.000000e+000
    outer loop
      vertex   2.128549e-001 -8.816738e-002 1.000000e-001
      vertex   2.204718e-001 -6.687940e-002 1.000000e-001
      vertex   -2.204718e-001 -6.687940e-002 1.000000e-001
    endloop
  endfacet
  facet normal 0.000000e+000 -0.000000e+000 1.000000e+000
    outer loop
      vertex   2.204718e-001 -6.687940e-002 1.000000e-001
      vertex   2.259655e-001 -4.494734e-002 1.000000e-001
      vertex   -2.259655e-001 -4.494734e-002 1.000000e-001
    endloop
  endfacet
  facet normal 0.000000e+000 -0.000000e+000 1.000000e+000
    outer loop
      vertex   2.259655e-001 -4.494734e-002 1.000000e-001
      vertex   2.292831e-001 -2.258241e-002 1.000000e-001
      vertex   -2.292831e-001 -2.258241e-002 1.000000e-001
    endloop
  endfacet
  facet normal 0.000000e+000 -0.000000e+000 1.000000e+000
    outer loop
      vertex   2.292831e-001 -2.258241e-002 1.000000e-001
      vertex   2.303925e-001 0.000000e+000 1.000000e-001
      vertex   -2.303925e-001 -2.821494e-017 1.000000e-001
    endloop
  endfacet
  facet normal -0.000000e+000 -0.000000e+000 1.000000e+000
    outer loop
      vertex   -2.292831e-001 2.258241e-002 1.000000e-001
      vertex   2.303925e-001 0.000000e+000 1.000000e-001
      vertex   2.292831e-001 2.258241e-002 1.000000e-001
    endloop
  endfacet
  facet normal -0.000000e+000 -0.000000e+000 1.000000e+000
    outer loop
      vertex   -2.259655e-001 4.494734e-002 1.000000e-001
      vertex   2.292831e-001 2.258241e-002 1.000000e-001
      vertex   2.259655e-001 4.494734e-002 1.000000e-001
    endloop
  endfacet
  facet normal -0.000000e+000 -0.000000e+000 1.000000e+000
    outer loop
      vertex   -2.204718e-001 6.687940e-002 1.000000e-001
      vertex   2.259655e-001 4.494734e-002 1.000000e-001
      vertex   2.204718e-001 6.687940e-002 1.000000e-001
    endloop
  endfacet
  facet normal -0.000000e+000 -0.000000e+000 1.000000e+000
    outer loop
      vertex   -2.128549e-001 8.816738e-002 1.000000e-001
      vertex   2.204718e-001 6.687940e-002 1.000000e-001
      vertex   2.128549e-001 8.816738e-002 1.000000e-001
    endloop
  endfacet
  facet normal -0.000000e+000 -0.000000e+000 1.000000e+000
    outer loop
      vertex   -2.031880e-001 1.086063e-001 1.000000e-001
      vertex   2.128549e-001 8.816738e-002 1.000000e-001
      vertex   2.031880e-001 1.086063e-001 1.000000e-001
    endloop
  endfacet
  facet normal -0.000000e+000 -0.000000e+000 1.000000e+000
    outer loop
      vertex   -1.915643e-001 1.279992e-001 1.000000e-001
      vertex   2.031880e-001 1.086063e-001 1.000000e-001
      vertex   1.915643e-001 1.279992e-001 1.000000e-001
    endloop
  endfacet
  facet normal 0.000000e+000 0.000000e+000 -1.000000e+000
    outer loop
      vertex   2.258241e-002 -2.292831e-001 0.000000e+000
      vertex   -2.258241e-002 -2.292831e-001 0.000000e+000
      vertex   4.494734e-002 -2.259655e-001 0.000000e+000
    endloop
  endfacet
  facet normal -0.000000e+000 0.000000e+000 -1.000000e+000
    outer loop
      vertex   2.258241e-002 -2.292831e-001 0.000000e+000
      vertex   -4.232241e-017 -2.303925e-001 0.000000e+000
      vertex   -2.258241e-002 -2.292831e-001 0.000000e+000
    endloop
  endfacet
  facet normal 0.000000e+000 0.000000e+000 -1.000000e+000
    outer loop
      vertex   4.494734e-002 -2.259655e-001 0.000000e+000
      vertex   -4.494734e-002 -2.259655e-001 0.000000e+000
      vertex   6.687940e-002 -2.204718e-001 0.000000e+000
    endloop
  endfacet
  facet normal -0.000000e+000 0.000000e+000 -1.000000e+000
    outer loop
      vertex   4.494734e-002 -2.259655e-001 0.000000e+000
      vertex   -2.258241e-002 -2.292831e-001 0.000000e+000
      vertex   -4.494734e-002 -2.259655e-001 0.000000e+000
    endloop
  endfacet
  facet normal 0.000000e+000 0.000000e+000 -1.000000e+000
    outer loop
      vertex   6.687940e-002 -2.204718e-001 0.000000e+000
      vertex   -6.687940e-002 -2.204718e-001 0.000000e+000
      vertex   8.816738e-002 -2.128549e-001 0.000000e+000
    endloop
  endfacet
  facet normal -0.000000e+000 0.000000e+000 -1.000000e+000
    outer loop
      vertex   6.687940e-002 -2.204718e-001 0.000000e+000
      vertex   -4.494734e-002 -2.259655e-001 0.000000e+000
      vertex   -6.687940e-002 -2.204718e-001 0.000000e+000
    endloop
  endfacet
  facet normal 0.000000e+000 0.000000e+000 -1.000000e+000
    outer loop
      vertex   8.816738e-002 -2.128549e-001 0.000000e+000
      vertex   -8.816738e-002 -2.128549e-001 0.000000e+000
      vertex   1.086063e-001 -2.031880e-001 0.000000e+000
    endloop
  endfacet
  facet normal -0.000000e+000 0.000000e+000 -1.000000e+000
    outer loop
      vertex   8.816738e-002 -2.128549e-001 0.000000e+000
      vertex   -6.687940e-002 -2.204718e-001 0.000000e+000
      vertex   -8.816738e-002 -2.128549e-001 0.000000e+000
    endloop
  endfacet
  facet normal 0.000000e+000 0.000000e+000 -1.000000e+000
    outer loop
      vertex   1.086063e-001 -2.031880e-001 0.000000e+000
      vertex   -1.086063e-001 -2.031880e-001 0.000000e+000
      vertex   1.279992e-001 -1.915643e-001 0.000000e+000
    endloop
  endfacet
  facet normal -0.000000e+000 0.000000e+000 -1.000000e+000
    outer loop
      vertex   1.086063e-001 -2.031880e-001 0.000000e+000
      vertex   -8.816738e-002 -2.128549e-001 0.000000e+000
      vertex   -1.086063e-001 -2.031880e-001 0.000000e+000
    endloop
  endfacet
  facet normal 0.000000e+000 0.000000e+000 -1.000000e+000
    outer loop
      vertex   1.279992e-001 -1.915643e-001 0.000000e+000
      vertex   -1.279992e-001 -1.915643e-001 0.000000e+000
      vertex   1.461594e-001 -1.780958e-001 0.000000e+000
    endloop
  endfacet
  facet normal -0.000000e+000 0.000000e+000 -1.000000e+000
    outer loop
      vertex   1.279992e-001 -1.915643e-001 0.000000e+000
      vertex   -1.086063e-001 -2.031880e-001 0.000000e+000
      vertex   -1.279992e-001 -1.915643e-001 0.000000e+000
    endloop
  endfacet
  facet normal 0.000000e+000 0.000000e+000 -1.000000e+000
    outer loop
      vertex   1.461594e-001 -1.780958e-001 0.000000e+000
      vertex   -1.461594e-001 -1.780958e-001 0.000000e+000
      vertex   1.629121e-001 -1.629121e-001 0.000000e+000
    endloop
  endfacet
  facet normal -0.000000e+000 0.000000e+000 -1.000000e+000
    outer loop
      vertex   1.461594e-001 -1.780958e-001 0.000000e+000
      vertex   -1.279992e-001 -1.915643e-001 0.000000e+000
      vertex   -1.461594e-001 -1.780958e-001 0.000000e+000
    endloop
  endfacet
  facet normal 0.000000e+000 0.000000e+000 -1.000000e+000
    outer loop
      vertex   1.629121e-001 -1.629121e-001 0.000000e+000
      vertex   -1.629121e-001 -1.629121e-001 0.000000e+000
      vertex   1.780958e-001 -1.461594e-001 0.000000e+000
    endloop
  endfacet
  facet normal -0.000000e+000 0.000000e+000 -1.000000e+000
    outer loop
      vertex   1.629121e-001 -1.629121e-001 0.000000e+000
      vertex   -1.461594e-001 -1.780958e-001 0.000000e+000
      vertex   -1.629121e-001 -1.629121e-001 0.000000e+000
    endloop
  endfacet
  facet normal 0.000000e+000 0.000000e+000 -1.000000e+000
    outer loop
      vertex   -1.629121e-001 -1.629121e-001 0.000000e+000
      vertex   -1.780958e-001 -1.461594e-001 0.000000e+000
      vertex   1.780958e-001 -1.461594e-001 0.000000e+000
    endloop
  endfacet
  facet normal 0.000000e+000 0.000000e+000 -1.000000e+000
    outer loop
      vertex   1.780958e-001 -1.461594e-001 0.000000e+000
      vertex   -1.780958e-001 -1.461594e-001 0.000000e+000
      vertex   1.915643e-001 -1.279992e-001 0.000000e+000
    endloop
  endfacet
  facet normal -0.000000e+000 0.000000e+000 -1.000000e+000
    outer loop
      vertex   1.915643e-001 -1.279992e-001 0.000000e+000
      vertex   -1.780958e-001 -1.461594e-001 0.000000e+000
      vertex   -1.915643e-001 -1.279992e-001 0.000000e+000
    endloop
  endfacet
  facet normal -0.000000e+000 0.000000e+000 -1.000000e+000
    outer loop
      vertex   2.031880e-001 -1.086063e-001 0.000000e+000
      vertex   -1.915643e-001 -1.279992e-001 0.000000e+000
      vertex   -2.031880e-001 -1.086063e-001 0.000000e+000
    endloop
  endfacet
  facet normal -0.000000e+000 0.000000e+000 -1.000000e+000
    outer loop
      vertex   2.128549e-001 -8.816738e-002 0.000000e+000
      vertex   -2.031880e-001 -1.086063e-001 0.000000e+000
      vertex   -2.128549e-001 -8.816738e-002 0.000000e+000
    endloop
  endfacet
  facet normal -0.000000e+000 0.000000e+000 -1.000000e+000
    outer loop
      vertex   2.204718e-001 -6.687940e-002 0.000000e+000
      vertex   -2.128549e-001 -8.816738e-002 0.000000e+000
      vertex   -2.204718e-001 -6.687940e-002 0.000000e+000
    endloop
  endfacet
  facet normal -0.000000e+000 0.000000e+000 -1.000000e+000
    outer loop
      vertex   2.259655e-001 -4.494734e-002 0.000000e+000
      vertex   -2.204718e-001 -6.687940e-002 0.000000e+000
      vertex   -2.259655e-001 -4.494734e-002 0.000000e+000
    endloop
  endfacet
  facet normal -0.000000e+000 0.000000e+000 -1.000000e+000
    outer loop
      vertex   2.292831e-001 -2.258241e-002 0.000000e+000
      vertex   -2.259655e-001 -4.494734e-002 0.000000e+000
      vertex   -2.292831e-001 -2.258241e-002 0.000000e+000
    endloop
  endfacet
  facet normal -0.000000e+000 0.000000e+000 -1.000000e+000
    outer loop
      vertex   2.303925e-001 0.000000e+000 0.000000e+000
      vertex   -2.292831e-001 -2.258241e-002 0.000000e+000
      vertex   -2.303925e-001 2.821494e-017 0.000000e+000
    endloop
  endfacet
  facet normal -0.000000e+000 0.000000e+000 -1.000000e+000
    outer loop
      vertex   2.292831e-001 2.258241e-002 0.000000e+000
      vertex   -2.303925e-001 2.821494e-017 0.000000e+000
      vertex   -2.292831e-001 2.258241e-002 0.000000e+000
    endloop
  endfacet
  facet normal -0.000000e+000 0.000000e+000 -1.000000e+000
    outer loop
      vertex   2.259655e-001 4.494734e-002 0.000000e+000
      vertex   -2.292831e-001 2.258241e-002 0.000000e+000
      vertex   -2.259655e-001 4.494734e-002 0.000000e+000
    endloop
  endfacet
  facet normal -0.000000e+000 0.000000e+000 -1.000000e+000
    outer loop
      vertex   2.204718e-001 6.687940e-002 0.000000e+000
      vertex   -2.259655e-001 4.494734e-002 0.000000e+000
      vertex   -2.204718e-001 6.687940e-002 0.000000e+000
    endloop
  endfacet
  facet normal -0.000000e+000 0.000000e+000 -1.000000e+000
    outer loop
      vertex   2.128549e-001 8.816738e-002 0.000000e+000
      vertex   -2.204718e-001 6.687940e-002 0.000000e+000
      vertex   -2.128549e-001 8.816738e-002 0.000000e+000
    endloop
  endfacet
  facet normal -0.000000e+000 0.000000e+000 -1.000000e+000
    outer loop
      vertex   2.031880e-001 1.086063e-001 0.000000e+000
      vertex   -2.128549e-001 8.816738e-002 0.000000e+000
      vertex   -2.031880e-001 1.086063e-001 0.000000e+000
    endloop
  endfacet
  facet normal -0.000000e+000 0.000000e+000 -1.000000e+000
    outer loop
      vertex   1.915643e-001 1.279992e-001 0.000000e+000
      vertex   -2.031880e-001 1.086063e-001 0.000000e+000
      vertex   -1.915643e-001 1.279992e-001 0.000000e+000
    endloop
  endfacet
  facet normal -0.000000e+000 0.000000e+000 -1.000000e+000
    outer loop
      vertex   1.780958e-001 1.461594e-001 0.000000e+000
      vertex   -1.915643e-001 1.279992e-001 0.000000e+000
      vertex   -1.780958e-001 1.461594e-001 0.000000e+000
    endloop
  endfacet
  facet normal -0.000000e+000 0.000000e+000 -1.000000e+000
    outer loop
      vertex   1.629121e-001 1.629121e-001 0.000000e+000
      vertex   -1.780958e-001 1.461594e-001 0.000000e+000
      vertex   -1.629121e-001 1.629121e-001 0.000000e+000
    endloop
  endfacet
  facet normal -0.000000e+000 0.000000e+000 -1.000000e+000
    outer loop
      vertex   1.461594e-001 1.780958e-001 0.000000e+000
      vertex   -1.629121e-001 1.629121e-001 0.000000e+000
      vertex   -1.461594e-001 1.780958e-001 0.000000e+000
    endloop
  endfacet
  facet normal -0.000000e+000 0.000000e+000 -1.000000e+000
    outer loop
      vertex   1.279992e-001 1.915643e-001 0.000000e+000
      vertex   -1.461594e-001 1.780958e-001 0.000000e+000
      vertex   -1.279992e-001 1.915643e-001 0.000000e+000
    endloop
  endfacet
  facet normal -0.000000e+000 0.000000e+000 -1.000000e+000
    outer loop
      vertex   1.086063e-001 2.031880e-001 0.000000e+000
      vertex   -1.279992e-001 1.915643e-001 0.000000e+000
      vertex   -1.086063e-001 2.031880e-001 0.000000e+000
    endloop
  endfacet
  facet normal -0.000000e+000 0.000000e+000 -1.000000e+000
    outer loop
      vertex   8.816738e-002 2.128549e-001 0.000000e+000
      vertex   -1.086063e-001 2.031880e-001 0.000000e+000
      vertex   -8.816738e-002 2.128549e-001 0.000000e+000
    endloop
  endfacet
  facet normal -0.000000e+000 0.000000e+000 -1.000000e+000
    outer loop
      vertex   6.687940e-002 2.204718e-001 0.000000e+000
      vertex   -8.816738e-002 2.128549e-001 0.000000e+000
      vertex   -6.687940e-002 2.204718e-001 0.000000e+000
    endloop
  endfacet
  facet normal -0.000000e+000 0.000000e+000 -1.000000e+000
    outer loop
      vertex   4.494734e-002 2.259655e-001 0.000000e+000
      vertex   -6.687940e-002 2.204718e-001 0.000000e+000
      vertex   -4.494734e-002 2.259655e-001 0.000000e+000
    endloop
  endfacet
  facet normal -0.000000e+000 0.000000e+000 -1.000000e+000
    outer loop
      vertex   2.258241e-002 2.292831e-001 0.000000e+000
      vertex   -4.494734e-002 2.259655e-001 0.000000e+000
      vertex   -2.258241e-002 2.292831e-001 0.000000e+000
    endloop
  endfacet
  facet normal -0.000000e+000 -0.000000e+000 -1.000000e+000
    outer loop
      vertex   1.410747e-017 2.303925e-001 0.000000e+000
      vertex   2.258241e-002 2.292831e-001 0.000000e+000
      vertex   -2.258241e-002 2.292831e-001 0.000000e+000
    endloop
  endfacet
  facet normal -0.000000e+000 -0.000000e+000 -1.000000e+000
    outer loop
      vertex   2.258241e-002 2.292831e-001 0.000000e+000
      vertex   4.494734e-002 2.259655e-001 0.000000e+000
      vertex   -4.494734e-002 2.259655e-001 0.000000e+000
    endloop
  endfacet
  facet normal -0.000000e+000 -0.000000e+000 -1.000000e+000
    outer loop
      vertex   4.494734e-002 2.259655e-001 0.000000e+000
      vertex   6.687940e-002 2.204718e-001 0.000000e+000
      vertex   -6.687940e-002 2.204718e-001 0.000000e+000
    endloop
  endfacet
  facet normal -0.000000e+000 -0.000000e+000 -1.000000e+000
    outer loop
      vertex   6.687940e-002 2.204718e-001 0.000000e+000
      vertex   8.816738e-002 2.128549e-001 0.000000e+000
      vertex   -8.816738e-002 2.128549e-001 0.000000e+000
    endloop
  endfacet
  facet normal -0.000000e+000 -0.000000e+000 -1.000000e+000
    outer loop
      vertex   8.816738e-002 2.128549e-001 0.000000e+000
      vertex   1.086063e-001 2.031880e-001 0.000000e+000
      vertex   -1.086063e-001 2.031880e-001 0.000000e+000
    endloop
  endfacet
  facet normal -0.000000e+000 -0.000000e+000 -1.000000e+000
    outer loop
      vertex   1.086063e-001 2.031880e-001 0.000000e+000
      vertex   1.279992e-001 1.915643e-001 0.000000e+000
      vertex   -1.279992e-001 1.915643e-001 0.000000e+000
    endloop
  endfacet
  facet normal -0.000000e+000 -0.000000e+000 -1.000000e+000
    outer loop
      vertex   1.279992e-001 1.915643e-001 0.000000e+000
      vertex   1.461594e-001 1.780958e-001 0.000000e+000
      vertex   -1.461594e-001 1.780958e-001 0.000000e+000
    endloop
  endfacet
  facet normal -0.000000e+000 -0.000000e+000 -1.000000e+000
    outer loop
      vertex   1.461594e-001 1.780958e-001 0.000000e+000
      vertex   1.629121e-001 1.629121e-001 0.000000e+000
      vertex   -1.629121e-001 1.629121e-001 0.000000e+000
    endloop
  endfacet
  facet normal -0.000000e+000 -0.000000e+000 -1.000000e+000
    outer loop
      vertex   1.629121e-001 1.629121e-001 0.000000e+000
      vertex   1.780958e-001 1.461594e-001 0.000000e+000
      vertex   -1.780958e-001 1.461594e-001 0.000000e+000
    endloop
  endfacet
  facet normal -0.000000e+000 -0.000000e+000 -1.000000e+000
    outer loop
      vertex   1.780958e-001 1.461594e-001 0.000000e+000
      vertex   1.915643e-001 1.279992e-001 0.000000e+000
      vertex   -1.915643e-001 1.279992e-001 0.000000e+000
    endloop
  endfacet
  facet normal -0.000000e+000 -0.000000e+000 -1.000000e+000
    outer loop
      vertex   1.915643e-001 1.279992e-001 0.000000e+000
      vertex   2.031880e-001 1.086063e-001 0.000000e+000
      vertex   -2.031880e-001 1.086063e-001 0.000000e+000
    endloop
  endfacet
  facet normal -0.000000e+000 -0.000000e+000 -1.000000e+000
    outer loop
      vertex   2.031880e-001 1.086063e-001 0.000000e+000
      vertex   2.128549e-001 8.816738e-002 0.000000e+000
      vertex   -2.128549e-001 8.816738e-002 0.000000e+000
    endloop
  endfacet
  facet normal -0.000000e+000 -0.000000e+000 -1.000000e+000
    outer loop
      vertex   2.128549e-001 8.816738e-002 0.000000e+000
      vertex   2.204718e-001 6.687940e-002 0.000000e+000
      vertex   -2.204718e-001 6.687940e-002 0.000000e+000
    endloop
  endfacet
  facet normal -0.000000e+000 -0.000000e+000 -1.000000e+000
    outer loop
      vertex   2.204718e-001 6.687940e-002 0.000000e+000
      vertex   2.259655e-001 4.494734e-002 0.000000e+000
      vertex   -2.259655e-001 4.494734e-002 0.000000e+000
    endloop
  endfacet
  facet normal -0.000000e+000 -0.000000e+000 -1.000000e+000
    outer loop
      vertex   2.259655e-001 4.494734e-002 0.000000e+000
      vertex   2.292831e-001 2.258241e-002 0.000000e+000
      vertex   -2.292831e-001 2.258241e-002 0.000000e+000
    endloop
  endfacet
  facet normal -0.000000e+000 -0.000000e+000 -1.000000e+000
    outer loop
      vertex   2.292831e-001 2.258241e-002 0.000000e+000
      vertex   2.303925e-001 0.000000e+000 0.000000e+000
      vertex   -2.303925e-001 2.821494e-017 0.000000e+000
    endloop
  endfacet
  facet normal 0.000000e+000 0.000000e+000 -1.000000e+000
    outer loop
      vertex   1.915643e-001 -1.279992e-001 0.000000e+000
      vertex   -1.915643e-001 -1.279992e-001 0.000000e+000
      vertex   2.031880e-001 -1.086063e-001 0.000000e+000
    endloop
  endfacet
  facet normal 0.000000e+000 0.000000e+000 -1.000000e+000
    outer loop
      vertex   2.031880e-001 -1.086063e-001 0.000000e+000
      vertex   -2.031880e-001 -1.086063e-001 0.000000e+000
      vertex   2.128549e-001 -8.816738e-002 0.000000e+000
    endloop
  endfacet
  facet normal 0.000000e+000 0.000000e+000 -1.000000e+000
    outer loop
      vertex   2.128549e-001 -8.816738e-002 0.000000e+000
      vertex   -2.128549e-001 -8.816738e-002 0.000000e+000
      vertex   2.204718e-001 -6.687940e-002 0.000000e+000
    endloop
  endfacet
  facet normal 0.000000e+000 0.000000e+000 -1.000000e+000
    outer loop
      vertex   2.204718e-001 -6.687940e-002 0.000000e+000
      vertex   -2.204718e-001 -6.687940e-002 0.000000e+000
      vertex   2.259655e-001 -4.494734e-002 0.000000e+000
    endloop
  endfacet
  facet normal 0.000000e+000 0.000000e+000 -1.000000e+000
    outer loop
      vertex   2.259655e-001 -4.494734e-002 0.000000e+000
      vertex   -2.259655e-001 -4.494734e-002 0.000000e+000
      vertex   2.292831e-001 -2.258241e-002 0.000000e+000
    endloop
  endfacet
  facet normal -0.000000e+000 0.000000e+000 -1.000000e+000
    outer loop
      vertex   2.292831e-001 -2.258241e-002 0.000000e+000
      vertex   -2.292831e-001 -2.258241e-002 0.000000e+000
      vertex   2.303925e-001 0.000000e+000 0.000000e+000
    endloop
  endfacet
endsolid
